<?xml version="1.0" encoding="UTF-8" standalone="no"?>
<!DOCTYPE svg PUBLIC "-//W3C//DTD SVG 1.1//EN"
 "http://www.w3.org/Graphics/SVG/1.1/DTD/svg11.dtd">
<!-- Generated by graphviz version 2.40.1 (20161225.0304)
 -->
<!-- Title: oneDegreeRelationshipsDiagram Pages: 1 -->
<svg width="540pt" height="275pt"
 viewBox="0.00 0.00 540.00 274.70" xmlns="http://www.w3.org/2000/svg" xmlns:xlink="http://www.w3.org/1999/xlink">
<g id="graph0" class="graph" transform="scale(1 1) rotate(0) translate(4 270.7)">
<title>oneDegreeRelationshipsDiagram</title>
<polygon fill="#ffffff" stroke="transparent" points="-4,4 -4,-270.7 536,-270.7 536,4 -4,4"/>
<text text-anchor="middle" x="72.4936" y="-7.3" font-family="Helvetica,sans-Serif" font-size="11.00" fill="#000000">Generated by SchemaSpy</text>
<!-- METADATA_Ruptures -->
<g id="node1" class="node">
<title>METADATA_Ruptures</title>
<g id="a_node1"><a xlink:href="../../tables/METADATA_Ruptures.html" xlink:title="METADATA_Ruptures" target="_top">
<polygon fill="#ffffff" stroke="transparent" points="209,-62.7 209,-262.7 524,-262.7 524,-62.7 209,-62.7"/>
<polygon fill="#f5f5f5" stroke="transparent" points="211.5,-237.7 211.5,-260.7 522.5,-260.7 522.5,-237.7 211.5,-237.7"/>
<polygon fill="none" stroke="#000000" points="211.5,-237.7 211.5,-260.7 522.5,-260.7 522.5,-237.7 211.5,-237.7"/>
<text text-anchor="start" x="216.5" y="-246.8" font-family="Helvetica,sans-Serif" font-weight="bold" font-size="11.00" fill="#000000">METADATA_Ruptures</text>
<text text-anchor="start" x="487.5437" y="-245.8" font-family="Helvetica,sans-Serif" font-size="11.00" fill="#000000">[table]</text>
<polygon fill="none" stroke="#000000" points="211.5,-215.7 211.5,-237.7 392.5,-237.7 392.5,-215.7 211.5,-215.7"/>
<text text-anchor="start" x="231.5" y="-222.8" font-family="Helvetica,sans-Serif" font-size="11.00" fill="#000000">Completion</text>
<polygon fill="none" stroke="#000000" points="392.5,-215.7 392.5,-237.7 522.5,-237.7 522.5,-215.7 392.5,-215.7"/>
<text text-anchor="start" x="395.5" y="-223.4" font-family="Helvetica,sans-Serif" font-size="11.00" fill="#000000">text[2000000000,10]</text>
<polygon fill="none" stroke="#000000" points="211.5,-193.7 211.5,-215.7 392.5,-215.7 392.5,-193.7 211.5,-193.7"/>
<text text-anchor="start" x="231.5" y="-200.8" font-family="Helvetica,sans-Serif" font-size="11.00" fill="#000000">Supplementary_RUP_DS_ID</text>
<polygon fill="none" stroke="#000000" points="392.5,-193.7 392.5,-215.7 522.5,-215.7 522.5,-193.7 392.5,-193.7"/>
<text text-anchor="start" x="395.5" y="-201.4" font-family="Helvetica,sans-Serif" font-size="11.00" fill="#000000">text[2000000000,10]</text>
<polygon fill="none" stroke="#000000" points="211.5,-171.7 211.5,-193.7 392.5,-193.7 392.5,-171.7 211.5,-171.7"/>
<text text-anchor="start" x="231.5" y="-178.8" font-family="Helvetica,sans-Serif" font-size="11.00" fill="#000000">Date_Updated</text>
<polygon fill="none" stroke="#000000" points="392.5,-171.7 392.5,-193.7 522.5,-193.7 522.5,-171.7 392.5,-171.7"/>
<text text-anchor="start" x="395.1372" y="-179.4" font-family="Helvetica,sans-Serif" font-size="11.00" fill="#000000">datetime[2000000000,10]</text>
<polygon fill="none" stroke="#000000" points="211.5,-149.7 211.5,-171.7 392.5,-171.7 392.5,-149.7 211.5,-149.7"/>
<image xlink:href="../../images/primaryKeys.png" width="11px" height="12px" preserveAspectRatio="xMinYMin meet" x="216.5" y="-166.7"/>
<text text-anchor="start" x="231.5" y="-156.8" font-family="Helvetica,sans-Serif" font-size="11.00" fill="#000000">DS_ID</text>
<polygon fill="none" stroke="#000000" points="392.5,-149.7 392.5,-171.7 522.5,-171.7 522.5,-149.7 392.5,-149.7"/>
<text text-anchor="start" x="395.5" y="-157.4" font-family="Helvetica,sans-Serif" font-size="11.00" fill="#000000">integer[2000000000,10]</text>
<polygon fill="none" stroke="#000000" points="211.5,-127.7 211.5,-149.7 392.5,-149.7 392.5,-127.7 211.5,-127.7"/>
<text text-anchor="start" x="231.5" y="-134.8" font-family="Helvetica,sans-Serif" font-size="11.00" fill="#000000">EPSG_Original</text>
<polygon fill="none" stroke="#000000" points="392.5,-127.7 392.5,-149.7 522.5,-149.7 522.5,-127.7 392.5,-127.7"/>
<text text-anchor="start" x="395.5" y="-135.4" font-family="Helvetica,sans-Serif" font-size="11.00" fill="#000000">integer[2000000000,10]</text>
<polygon fill="none" stroke="#000000" points="211.5,-105.7 211.5,-127.7 392.5,-127.7 392.5,-105.7 211.5,-105.7"/>
<image xlink:href="../../images/primaryKeys.png" width="11px" height="12px" preserveAspectRatio="xMinYMin meet" x="216.5" y="-122.7"/>
<text text-anchor="start" x="231.5" y="-112.8" font-family="Helvetica,sans-Serif" font-size="11.00" fill="#000000">EQ_ID</text>
<polygon fill="none" stroke="#000000" points="392.5,-105.7 392.5,-127.7 522.5,-127.7 522.5,-105.7 392.5,-105.7"/>
<text text-anchor="start" x="395.5" y="-113.4" font-family="Helvetica,sans-Serif" font-size="11.00" fill="#000000">integer[2000000000,10]</text>
<polygon fill="none" stroke="#000000" points="211.5,-83.7 211.5,-105.7 392.5,-105.7 392.5,-83.7 211.5,-83.7"/>
<text text-anchor="start" x="231.5" y="-90.8" font-family="Helvetica,sans-Serif" font-size="11.00" fill="#000000">Source_File</text>
<polygon fill="none" stroke="#000000" points="392.5,-83.7 392.5,-105.7 522.5,-105.7 522.5,-83.7 392.5,-83.7"/>
<text text-anchor="start" x="395.5" y="-91.4" font-family="Helvetica,sans-Serif" font-size="11.00" fill="#000000">text[2000000000,10]</text>
<polygon fill="#ffffff" stroke="transparent" points="211.5,-64.7 211.5,-83.7 293.5,-83.7 293.5,-64.7 211.5,-64.7"/>
<polygon fill="none" stroke="#000000" points="211.5,-64.7 211.5,-83.7 293.5,-83.7 293.5,-64.7 211.5,-64.7"/>
<text text-anchor="start" x="214.5" y="-70.8" font-family="Helvetica,sans-Serif" font-size="11.00" fill="#000000">&lt; 2</text>
<polygon fill="#ffffff" stroke="transparent" points="293.5,-64.7 293.5,-83.7 392.5,-83.7 392.5,-64.7 293.5,-64.7"/>
<polygon fill="none" stroke="#000000" points="293.5,-64.7 293.5,-83.7 392.5,-83.7 392.5,-64.7 293.5,-64.7"/>
<text text-anchor="start" x="357.1105" y="-70.8" font-family="Helvetica,sans-Serif" font-size="11.00" fill="#000000">0 rows</text>
<polygon fill="#ffffff" stroke="transparent" points="392.5,-64.7 392.5,-83.7 522.5,-83.7 522.5,-64.7 392.5,-64.7"/>
<polygon fill="none" stroke="#000000" points="392.5,-64.7 392.5,-83.7 522.5,-83.7 522.5,-64.7 392.5,-64.7"/>
<text text-anchor="start" x="503.9053" y="-70.8" font-family="Helvetica,sans-Serif" font-size="11.00" fill="#000000">0 &gt;</text>
<polygon fill="none" stroke="#000000" stroke-width="2" points="210,-63.7 210,-261.7 523,-261.7 523,-63.7 210,-63.7"/>
</a>
</g>
</g>
<!-- METADATA_Datasets -->
<g id="node2" class="node">
<title>METADATA_Datasets</title>
<g id="a_node2"><a xlink:href="../../tables/METADATA_Datasets.html" xlink:title="METADATA_Datasets" target="_top">
<polygon fill="#ffffff" stroke="transparent" points="8,-142.2 8,-225.2 160,-225.2 160,-142.2 8,-142.2"/>
<polygon fill="#f5f5f5" stroke="transparent" points="8,-201.7 8,-224.7 160,-224.7 160,-201.7 8,-201.7"/>
<polygon fill="none" stroke="#000000" points="8,-201.7 8,-224.7 160,-224.7 160,-201.7 8,-201.7"/>
<text text-anchor="start" x="12.7997" y="-210.8" font-family="Helvetica,sans-Serif" font-weight="bold" font-size="11.00" fill="#000000">METADATA_Datasets</text>
<text text-anchor="start" x="125.5219" y="-209.8" font-family="Helvetica,sans-Serif" font-size="11.00" fill="#000000">[table]</text>
<polygon fill="none" stroke="#000000" points="8,-179.7 8,-201.7 160,-201.7 160,-179.7 8,-179.7"/>
<image xlink:href="../../images/primaryKeys.png" width="11px" height="12px" preserveAspectRatio="xMinYMin meet" x="13" y="-196.7"/>
<text text-anchor="start" x="32" y="-186.8" font-family="Helvetica,sans-Serif" font-size="11.00" fill="#000000">DS_ID</text>
<polygon fill="none" stroke="#000000" points="8,-160.7 8,-179.7 160,-179.7 160,-160.7 8,-160.7"/>
<text text-anchor="start" x="11" y="-166.8" font-family="Helvetica,sans-Serif" font-size="11.00" fill="#000000">...</text>
<polygon fill="#ffffff" stroke="transparent" points="8,-141.7 8,-160.7 57,-160.7 57,-141.7 8,-141.7"/>
<polygon fill="none" stroke="#000000" points="8,-141.7 8,-160.7 57,-160.7 57,-141.7 8,-141.7"/>
<text text-anchor="start" x="11" y="-147.8" font-family="Helvetica,sans-Serif" font-size="11.00" fill="#000000"> &#160;</text>
<polygon fill="#ffffff" stroke="transparent" points="57,-141.7 57,-160.7 114,-160.7 114,-141.7 57,-141.7"/>
<polygon fill="none" stroke="#000000" points="57,-141.7 57,-160.7 114,-160.7 114,-141.7 57,-141.7"/>
<text text-anchor="start" x="78.6105" y="-147.8" font-family="Helvetica,sans-Serif" font-size="11.00" fill="#000000">0 rows</text>
<polygon fill="#ffffff" stroke="transparent" points="114,-141.7 114,-160.7 160,-160.7 160,-141.7 114,-141.7"/>
<polygon fill="none" stroke="#000000" points="114,-141.7 114,-160.7 160,-160.7 160,-141.7 114,-141.7"/>
<text text-anchor="start" x="135.2904" y="-147.8" font-family="Helvetica,sans-Serif" font-size="11.00" fill="#000000">43 &gt;</text>
</a>
</g>
</g>
<!-- METADATA_Ruptures&#45;&gt;METADATA_Datasets -->
<g id="edge1" class="edge">
<title>METADATA_Ruptures:w&#45;&gt;METADATA_Datasets:e</title>
<path fill="none" stroke="#000000" d="M197.5458,-164.3786C184.3193,-172.3895 180.6947,-190.7 160,-190.7"/>
<polygon fill="#000000" stroke="#000000" points="203.7643,-162.7393 212.4177,-164.1811 207.6321,-161.7197 211.5,-160.7 211.5,-160.7 211.5,-160.7 207.6321,-161.7197 210.5823,-157.2189 203.7643,-162.7393 203.7643,-162.7393"/>
<ellipse fill="none" stroke="#000000" cx="200.67" cy="-163.5551" rx="3.2" ry="3.2"/>
</g>
<!-- METADATA_Events -->
<g id="node3" class="node">
<title>METADATA_Events</title>
<g id="a_node3"><a xlink:href="../../tables/METADATA_Events.html" xlink:title="METADATA_Events" target="_top">
<polygon fill="#ffffff" stroke="transparent" points="13,-38.2 13,-121.2 155,-121.2 155,-38.2 13,-38.2"/>
<polygon fill="#f5f5f5" stroke="transparent" points="13,-97.7 13,-120.7 155,-120.7 155,-97.7 13,-97.7"/>
<polygon fill="none" stroke="#000000" points="13,-97.7 13,-120.7 155,-120.7 155,-97.7 13,-97.7"/>
<text text-anchor="start" x="17.6881" y="-106.8" font-family="Helvetica,sans-Serif" font-weight="bold" font-size="11.00" fill="#000000">METADATA_Events</text>
<text text-anchor="start" x="120.5219" y="-105.8" font-family="Helvetica,sans-Serif" font-size="11.00" fill="#000000">[table]</text>
<polygon fill="none" stroke="#000000" points="13,-75.7 13,-97.7 155,-97.7 155,-75.7 13,-75.7"/>
<image xlink:href="../../images/primaryKeys.png" width="11px" height="12px" preserveAspectRatio="xMinYMin meet" x="18" y="-92.7"/>
<text text-anchor="start" x="37" y="-82.8" font-family="Helvetica,sans-Serif" font-size="11.00" fill="#000000">EQ_ID</text>
<polygon fill="none" stroke="#000000" points="13,-56.7 13,-75.7 155,-75.7 155,-56.7 13,-56.7"/>
<text text-anchor="start" x="16" y="-62.8" font-family="Helvetica,sans-Serif" font-size="11.00" fill="#000000">...</text>
<polygon fill="#ffffff" stroke="transparent" points="13,-37.7 13,-56.7 57,-56.7 57,-37.7 13,-37.7"/>
<polygon fill="none" stroke="#000000" points="13,-37.7 13,-56.7 57,-56.7 57,-37.7 13,-37.7"/>
<text text-anchor="start" x="16" y="-43.8" font-family="Helvetica,sans-Serif" font-size="11.00" fill="#000000"> &#160;</text>
<polygon fill="#ffffff" stroke="transparent" points="57,-37.7 57,-56.7 111,-56.7 111,-37.7 57,-37.7"/>
<polygon fill="none" stroke="#000000" points="57,-37.7 57,-56.7 111,-56.7 111,-37.7 57,-37.7"/>
<text text-anchor="start" x="75.6105" y="-43.8" font-family="Helvetica,sans-Serif" font-size="11.00" fill="#000000">0 rows</text>
<polygon fill="#ffffff" stroke="transparent" points="111,-37.7 111,-56.7 155,-56.7 155,-37.7 111,-37.7"/>
<polygon fill="none" stroke="#000000" points="111,-37.7 111,-56.7 155,-56.7 155,-37.7 111,-37.7"/>
<text text-anchor="start" x="130.2904" y="-43.8" font-family="Helvetica,sans-Serif" font-size="11.00" fill="#000000">40 &gt;</text>
</a>
</g>
</g>
<!-- METADATA_Ruptures&#45;&gt;METADATA_Events -->
<g id="edge2" class="edge">
<title>METADATA_Ruptures:w&#45;&gt;METADATA_Events:e</title>
<path fill="none" stroke="#000000" d="M197.2561,-113.4895C182.0279,-105.7503 177.6563,-86.7 155,-86.7"/>
<polygon fill="#000000" stroke="#000000" points="203.6958,-114.9409 210.7084,-120.2119 207.5979,-115.8205 211.5,-116.7 211.5,-116.7 211.5,-116.7 207.5979,-115.8205 212.2916,-113.1881 203.6958,-114.9409 203.6958,-114.9409"/>
<ellipse fill="none" stroke="#000000" cx="200.5741" cy="-114.2373" rx="3.2" ry="3.2"/>
</g>
</g>
</svg>
