<?xml version="1.0" encoding="UTF-8" standalone="no"?>
<!DOCTYPE svg PUBLIC "-//W3C//DTD SVG 1.1//EN"
 "http://www.w3.org/Graphics/SVG/1.1/DTD/svg11.dtd">
<!-- Generated by graphviz version 2.40.1 (20161225.0304)
 -->
<!-- Title: oneDegreeRelationshipsDiagram Pages: 1 -->
<svg width="530pt" height="382pt"
 viewBox="0.00 0.00 530.00 382.20" xmlns="http://www.w3.org/2000/svg" xmlns:xlink="http://www.w3.org/1999/xlink">
<g id="graph0" class="graph" transform="scale(1 1) rotate(0) translate(4 378.2)">
<title>oneDegreeRelationshipsDiagram</title>
<polygon fill="#ffffff" stroke="transparent" points="-4,4 -4,-378.2 526,-378.2 526,4 -4,4"/>
<text text-anchor="middle" x="72.4936" y="-7.3" font-family="Helvetica,sans-Serif" font-size="11.00" fill="#000000">Generated by SchemaSpy</text>
<!-- METADATA_Points -->
<g id="node1" class="node">
<title>METADATA_Points</title>
<g id="a_node1"><a xlink:href="../../tables/METADATA_Points.html" xlink:title="METADATA_Points" target="_top">
<polygon fill="#ffffff" stroke="transparent" points="209,-38.2 209,-370.2 514,-370.2 514,-38.2 209,-38.2"/>
<polygon fill="#f5f5f5" stroke="transparent" points="211.5,-345.2 211.5,-368.2 512.5,-368.2 512.5,-345.2 211.5,-345.2"/>
<polygon fill="none" stroke="#000000" points="211.5,-345.2 211.5,-368.2 512.5,-368.2 512.5,-345.2 211.5,-345.2"/>
<text text-anchor="start" x="216.5" y="-354.3" font-family="Helvetica,sans-Serif" font-weight="bold" font-size="11.00" fill="#000000">METADATA_Points</text>
<text text-anchor="start" x="477.5437" y="-353.3" font-family="Helvetica,sans-Serif" font-size="11.00" fill="#000000">[table]</text>
<polygon fill="none" stroke="#000000" points="211.5,-323.2 211.5,-345.2 382.5,-345.2 382.5,-323.2 211.5,-323.2"/>
<text text-anchor="start" x="231.5" y="-330.3" font-family="Helvetica,sans-Serif" font-size="11.00" fill="#000000">Completion</text>
<polygon fill="none" stroke="#000000" points="382.5,-323.2 382.5,-345.2 512.5,-345.2 512.5,-323.2 382.5,-323.2"/>
<text text-anchor="start" x="385.5" y="-330.9" font-family="Helvetica,sans-Serif" font-size="11.00" fill="#000000">text[2000000000,10]</text>
<polygon fill="none" stroke="#000000" points="211.5,-301.2 211.5,-323.2 382.5,-323.2 382.5,-301.2 211.5,-301.2"/>
<text text-anchor="start" x="231.5" y="-308.3" font-family="Helvetica,sans-Serif" font-size="11.00" fill="#000000">Location_Basis</text>
<polygon fill="none" stroke="#000000" points="382.5,-301.2 382.5,-323.2 512.5,-323.2 512.5,-301.2 382.5,-301.2"/>
<text text-anchor="start" x="385.5" y="-308.9" font-family="Helvetica,sans-Serif" font-size="11.00" fill="#000000">text[2000000000,10]</text>
<polygon fill="none" stroke="#000000" points="211.5,-279.2 211.5,-301.2 382.5,-301.2 382.5,-279.2 211.5,-279.2"/>
<text text-anchor="start" x="231.5" y="-286.3" font-family="Helvetica,sans-Serif" font-size="11.00" fill="#000000">Date_Updated</text>
<polygon fill="none" stroke="#000000" points="382.5,-279.2 382.5,-301.2 512.5,-301.2 512.5,-279.2 382.5,-279.2"/>
<text text-anchor="start" x="385.1372" y="-286.9" font-family="Helvetica,sans-Serif" font-size="11.00" fill="#000000">datetime[2000000000,10]</text>
<polygon fill="none" stroke="#000000" points="211.5,-257.2 211.5,-279.2 382.5,-279.2 382.5,-257.2 211.5,-257.2"/>
<text text-anchor="start" x="231.5" y="-264.3" font-family="Helvetica,sans-Serif" font-size="11.00" fill="#000000">FZW_Unc_Type</text>
<polygon fill="none" stroke="#000000" points="382.5,-257.2 382.5,-279.2 512.5,-279.2 512.5,-257.2 382.5,-257.2"/>
<text text-anchor="start" x="385.5" y="-264.9" font-family="Helvetica,sans-Serif" font-size="11.00" fill="#000000">text[2000000000,10]</text>
<polygon fill="none" stroke="#000000" points="211.5,-235.2 211.5,-257.2 382.5,-257.2 382.5,-235.2 211.5,-235.2"/>
<image xlink:href="../../images/primaryKeys.png" width="11px" height="12px" preserveAspectRatio="xMinYMin meet" x="216.5" y="-252.2"/>
<text text-anchor="start" x="231.5" y="-242.3" font-family="Helvetica,sans-Serif" font-size="11.00" fill="#000000">EQ_ID</text>
<polygon fill="none" stroke="#000000" points="382.5,-235.2 382.5,-257.2 512.5,-257.2 512.5,-235.2 382.5,-235.2"/>
<text text-anchor="start" x="385.5" y="-242.9" font-family="Helvetica,sans-Serif" font-size="11.00" fill="#000000">integer[2000000000,10]</text>
<polygon fill="none" stroke="#000000" points="211.5,-213.2 211.5,-235.2 382.5,-235.2 382.5,-213.2 211.5,-213.2"/>
<text text-anchor="start" x="231.5" y="-220.3" font-family="Helvetica,sans-Serif" font-size="11.00" fill="#000000">Vertical_Direction_Pos</text>
<polygon fill="none" stroke="#000000" points="382.5,-213.2 382.5,-235.2 512.5,-235.2 512.5,-213.2 382.5,-213.2"/>
<text text-anchor="start" x="385.5" y="-220.9" font-family="Helvetica,sans-Serif" font-size="11.00" fill="#000000">text[2000000000,10]</text>
<polygon fill="none" stroke="#000000" points="211.5,-191.2 211.5,-213.2 382.5,-213.2 382.5,-191.2 211.5,-191.2"/>
<text text-anchor="start" x="231.5" y="-198.3" font-family="Helvetica,sans-Serif" font-size="11.00" fill="#000000">Supplementary_PT_DS_ID</text>
<polygon fill="none" stroke="#000000" points="382.5,-191.2 382.5,-213.2 512.5,-213.2 512.5,-191.2 382.5,-191.2"/>
<text text-anchor="start" x="385.5" y="-198.9" font-family="Helvetica,sans-Serif" font-size="11.00" fill="#000000">text[2000000000,10]</text>
<polygon fill="none" stroke="#000000" points="211.5,-169.2 211.5,-191.2 382.5,-191.2 382.5,-169.2 211.5,-169.2"/>
<text text-anchor="start" x="231.5" y="-176.3" font-family="Helvetica,sans-Serif" font-size="11.00" fill="#000000">Meas_Type</text>
<polygon fill="none" stroke="#000000" points="382.5,-169.2 382.5,-191.2 512.5,-191.2 512.5,-169.2 382.5,-169.2"/>
<text text-anchor="start" x="385.5" y="-176.9" font-family="Helvetica,sans-Serif" font-size="11.00" fill="#000000">text[2000000000,10]</text>
<polygon fill="none" stroke="#000000" points="211.5,-147.2 211.5,-169.2 382.5,-169.2 382.5,-147.2 211.5,-147.2"/>
<text text-anchor="start" x="231.5" y="-154.3" font-family="Helvetica,sans-Serif" font-size="11.00" fill="#000000">Lateral_Direction_Pos</text>
<polygon fill="none" stroke="#000000" points="382.5,-147.2 382.5,-169.2 512.5,-169.2 512.5,-147.2 382.5,-147.2"/>
<text text-anchor="start" x="385.5" y="-154.9" font-family="Helvetica,sans-Serif" font-size="11.00" fill="#000000">text[2000000000,10]</text>
<polygon fill="none" stroke="#000000" points="211.5,-125.2 211.5,-147.2 382.5,-147.2 382.5,-125.2 211.5,-125.2"/>
<image xlink:href="../../images/primaryKeys.png" width="11px" height="12px" preserveAspectRatio="xMinYMin meet" x="216.5" y="-142.2"/>
<text text-anchor="start" x="231.5" y="-132.3" font-family="Helvetica,sans-Serif" font-size="11.00" fill="#000000">DS_ID</text>
<polygon fill="none" stroke="#000000" points="382.5,-125.2 382.5,-147.2 512.5,-147.2 512.5,-125.2 382.5,-125.2"/>
<text text-anchor="start" x="385.5" y="-132.9" font-family="Helvetica,sans-Serif" font-size="11.00" fill="#000000">integer[2000000000,10]</text>
<polygon fill="none" stroke="#000000" points="211.5,-103.2 211.5,-125.2 382.5,-125.2 382.5,-103.2 211.5,-103.2"/>
<text text-anchor="start" x="231.5" y="-110.3" font-family="Helvetica,sans-Serif" font-size="11.00" fill="#000000">EPSG_Original</text>
<polygon fill="none" stroke="#000000" points="382.5,-103.2 382.5,-125.2 512.5,-125.2 512.5,-103.2 382.5,-103.2"/>
<text text-anchor="start" x="385.5" y="-110.9" font-family="Helvetica,sans-Serif" font-size="11.00" fill="#000000">integer[2000000000,10]</text>
<polygon fill="none" stroke="#000000" points="211.5,-81.2 211.5,-103.2 382.5,-103.2 382.5,-81.2 211.5,-81.2"/>
<text text-anchor="start" x="231.5" y="-88.3" font-family="Helvetica,sans-Serif" font-size="11.00" fill="#000000">Source_File</text>
<polygon fill="none" stroke="#000000" points="382.5,-81.2 382.5,-103.2 512.5,-103.2 512.5,-81.2 382.5,-81.2"/>
<text text-anchor="start" x="385.5" y="-88.9" font-family="Helvetica,sans-Serif" font-size="11.00" fill="#000000">text[2000000000,10]</text>
<polygon fill="none" stroke="#000000" points="211.5,-59.2 211.5,-81.2 382.5,-81.2 382.5,-59.2 211.5,-59.2"/>
<text text-anchor="start" x="231.5" y="-66.3" font-family="Helvetica,sans-Serif" font-size="11.00" fill="#000000">Displ_Unc_Type</text>
<polygon fill="none" stroke="#000000" points="382.5,-59.2 382.5,-81.2 512.5,-81.2 512.5,-59.2 382.5,-59.2"/>
<text text-anchor="start" x="385.5" y="-66.9" font-family="Helvetica,sans-Serif" font-size="11.00" fill="#000000">text[2000000000,10]</text>
<polygon fill="#ffffff" stroke="transparent" points="211.5,-40.2 211.5,-59.2 288.5,-59.2 288.5,-40.2 211.5,-40.2"/>
<polygon fill="none" stroke="#000000" points="211.5,-40.2 211.5,-59.2 288.5,-59.2 288.5,-40.2 211.5,-40.2"/>
<text text-anchor="start" x="214.5" y="-46.3" font-family="Helvetica,sans-Serif" font-size="11.00" fill="#000000">&lt; 2</text>
<polygon fill="#ffffff" stroke="transparent" points="288.5,-40.2 288.5,-59.2 382.5,-59.2 382.5,-40.2 288.5,-40.2"/>
<polygon fill="none" stroke="#000000" points="288.5,-40.2 288.5,-59.2 382.5,-59.2 382.5,-40.2 288.5,-40.2"/>
<text text-anchor="start" x="347.1105" y="-46.3" font-family="Helvetica,sans-Serif" font-size="11.00" fill="#000000">0 rows</text>
<polygon fill="#ffffff" stroke="transparent" points="382.5,-40.2 382.5,-59.2 512.5,-59.2 512.5,-40.2 382.5,-40.2"/>
<polygon fill="none" stroke="#000000" points="382.5,-40.2 382.5,-59.2 512.5,-59.2 512.5,-40.2 382.5,-40.2"/>
<text text-anchor="start" x="493.9053" y="-46.3" font-family="Helvetica,sans-Serif" font-size="11.00" fill="#000000">0 &gt;</text>
<polygon fill="none" stroke="#000000" stroke-width="2" points="210,-39.2 210,-369.2 513,-369.2 513,-39.2 210,-39.2"/>
</a>
</g>
</g>
<!-- METADATA_Datasets -->
<g id="node2" class="node">
<title>METADATA_Datasets</title>
<g id="a_node2"><a xlink:href="../../tables/METADATA_Datasets.html" xlink:title="METADATA_Datasets" target="_top">
<polygon fill="#ffffff" stroke="transparent" points="8,-87.7 8,-170.7 160,-170.7 160,-87.7 8,-87.7"/>
<polygon fill="#f5f5f5" stroke="transparent" points="8,-147.2 8,-170.2 160,-170.2 160,-147.2 8,-147.2"/>
<polygon fill="none" stroke="#000000" points="8,-147.2 8,-170.2 160,-170.2 160,-147.2 8,-147.2"/>
<text text-anchor="start" x="12.7997" y="-156.3" font-family="Helvetica,sans-Serif" font-weight="bold" font-size="11.00" fill="#000000">METADATA_Datasets</text>
<text text-anchor="start" x="125.5219" y="-155.3" font-family="Helvetica,sans-Serif" font-size="11.00" fill="#000000">[table]</text>
<polygon fill="none" stroke="#000000" points="8,-125.2 8,-147.2 160,-147.2 160,-125.2 8,-125.2"/>
<image xlink:href="../../images/primaryKeys.png" width="11px" height="12px" preserveAspectRatio="xMinYMin meet" x="13" y="-142.2"/>
<text text-anchor="start" x="32" y="-132.3" font-family="Helvetica,sans-Serif" font-size="11.00" fill="#000000">DS_ID</text>
<polygon fill="none" stroke="#000000" points="8,-106.2 8,-125.2 160,-125.2 160,-106.2 8,-106.2"/>
<text text-anchor="start" x="11" y="-112.3" font-family="Helvetica,sans-Serif" font-size="11.00" fill="#000000">...</text>
<polygon fill="#ffffff" stroke="transparent" points="8,-87.2 8,-106.2 57,-106.2 57,-87.2 8,-87.2"/>
<polygon fill="none" stroke="#000000" points="8,-87.2 8,-106.2 57,-106.2 57,-87.2 8,-87.2"/>
<text text-anchor="start" x="11" y="-93.3" font-family="Helvetica,sans-Serif" font-size="11.00" fill="#000000"> &#160;</text>
<polygon fill="#ffffff" stroke="transparent" points="57,-87.2 57,-106.2 114,-106.2 114,-87.2 57,-87.2"/>
<polygon fill="none" stroke="#000000" points="57,-87.2 57,-106.2 114,-106.2 114,-87.2 57,-87.2"/>
<text text-anchor="start" x="78.6105" y="-93.3" font-family="Helvetica,sans-Serif" font-size="11.00" fill="#000000">0 rows</text>
<polygon fill="#ffffff" stroke="transparent" points="114,-87.2 114,-106.2 160,-106.2 160,-87.2 114,-87.2"/>
<polygon fill="none" stroke="#000000" points="114,-87.2 114,-106.2 160,-106.2 160,-87.2 114,-87.2"/>
<text text-anchor="start" x="135.2904" y="-93.3" font-family="Helvetica,sans-Serif" font-size="11.00" fill="#000000">43 &gt;</text>
</a>
</g>
</g>
<!-- METADATA_Points&#45;&gt;METADATA_Datasets -->
<g id="edge1" class="edge">
<title>METADATA_Points:w&#45;&gt;METADATA_Datasets:e</title>
<path fill="none" stroke="#000000" d="M197.0156,-136.2C184.6771,-136.2 177.1667,-136.2 160,-136.2"/>
<polygon fill="#000000" stroke="#000000" points="203.5,-136.2001 211.5,-139.8 207.5,-136.2 211.5,-136.2 211.5,-136.2 211.5,-136.2 207.5,-136.2 211.5,-132.6 203.5,-136.2001 203.5,-136.2001"/>
<ellipse fill="none" stroke="#000000" cx="200.3" cy="-136.2001" rx="3.2" ry="3.2"/>
</g>
<!-- METADATA_Events -->
<g id="node3" class="node">
<title>METADATA_Events</title>
<g id="a_node3"><a xlink:href="../../tables/METADATA_Events.html" xlink:title="METADATA_Events" target="_top">
<polygon fill="#ffffff" stroke="transparent" points="13,-197.7 13,-280.7 155,-280.7 155,-197.7 13,-197.7"/>
<polygon fill="#f5f5f5" stroke="transparent" points="13,-257.2 13,-280.2 155,-280.2 155,-257.2 13,-257.2"/>
<polygon fill="none" stroke="#000000" points="13,-257.2 13,-280.2 155,-280.2 155,-257.2 13,-257.2"/>
<text text-anchor="start" x="17.6881" y="-266.3" font-family="Helvetica,sans-Serif" font-weight="bold" font-size="11.00" fill="#000000">METADATA_Events</text>
<text text-anchor="start" x="120.5219" y="-265.3" font-family="Helvetica,sans-Serif" font-size="11.00" fill="#000000">[table]</text>
<polygon fill="none" stroke="#000000" points="13,-235.2 13,-257.2 155,-257.2 155,-235.2 13,-235.2"/>
<image xlink:href="../../images/primaryKeys.png" width="11px" height="12px" preserveAspectRatio="xMinYMin meet" x="18" y="-252.2"/>
<text text-anchor="start" x="37" y="-242.3" font-family="Helvetica,sans-Serif" font-size="11.00" fill="#000000">EQ_ID</text>
<polygon fill="none" stroke="#000000" points="13,-216.2 13,-235.2 155,-235.2 155,-216.2 13,-216.2"/>
<text text-anchor="start" x="16" y="-222.3" font-family="Helvetica,sans-Serif" font-size="11.00" fill="#000000">...</text>
<polygon fill="#ffffff" stroke="transparent" points="13,-197.2 13,-216.2 57,-216.2 57,-197.2 13,-197.2"/>
<polygon fill="none" stroke="#000000" points="13,-197.2 13,-216.2 57,-216.2 57,-197.2 13,-197.2"/>
<text text-anchor="start" x="16" y="-203.3" font-family="Helvetica,sans-Serif" font-size="11.00" fill="#000000"> &#160;</text>
<polygon fill="#ffffff" stroke="transparent" points="57,-197.2 57,-216.2 111,-216.2 111,-197.2 57,-197.2"/>
<polygon fill="none" stroke="#000000" points="57,-197.2 57,-216.2 111,-216.2 111,-197.2 57,-197.2"/>
<text text-anchor="start" x="75.6105" y="-203.3" font-family="Helvetica,sans-Serif" font-size="11.00" fill="#000000">0 rows</text>
<polygon fill="#ffffff" stroke="transparent" points="111,-197.2 111,-216.2 155,-216.2 155,-197.2 111,-197.2"/>
<polygon fill="none" stroke="#000000" points="111,-197.2 111,-216.2 155,-216.2 155,-197.2 111,-197.2"/>
<text text-anchor="start" x="130.2904" y="-203.3" font-family="Helvetica,sans-Serif" font-size="11.00" fill="#000000">40 &gt;</text>
</a>
</g>
</g>
<!-- METADATA_Points&#45;&gt;METADATA_Events -->
<g id="edge2" class="edge">
<title>METADATA_Points:w&#45;&gt;METADATA_Events:e</title>
<path fill="none" stroke="#000000" d="M196.8944,-246.2C182.5775,-246.2 174.4219,-246.2 155,-246.2"/>
<polygon fill="#000000" stroke="#000000" points="203.5,-246.2001 211.5,-249.8 207.5,-246.2 211.5,-246.2 211.5,-246.2 211.5,-246.2 207.5,-246.2 211.5,-242.6 203.5,-246.2001 203.5,-246.2001"/>
<ellipse fill="none" stroke="#000000" cx="200.3" cy="-246.2001" rx="3.2" ry="3.2"/>
</g>
</g>
</svg>
