<?xml version="1.0" encoding="UTF-8" standalone="no"?>
<!DOCTYPE svg PUBLIC "-//W3C//DTD SVG 1.1//EN"
 "http://www.w3.org/Graphics/SVG/1.1/DTD/svg11.dtd">
<!-- Generated by graphviz version 2.40.1 (20161225.0304)
 -->
<!-- Title: oneDegreeRelationshipsDiagram Pages: 1 -->
<svg width="687pt" height="388pt"
 viewBox="0.00 0.00 687.00 387.70" xmlns="http://www.w3.org/2000/svg" xmlns:xlink="http://www.w3.org/1999/xlink">
<g id="graph0" class="graph" transform="scale(1 1) rotate(0) translate(4 383.7)">
<title>oneDegreeRelationshipsDiagram</title>
<polygon fill="#ffffff" stroke="transparent" points="-4,4 -4,-383.7 683,-383.7 683,4 -4,4"/>
<text text-anchor="middle" x="72.4936" y="-7.3" font-family="Helvetica,sans-Serif" font-size="11.00" fill="#000000">Generated by SchemaSpy</text>
<!-- METADATA_Geology -->
<g id="node1" class="node">
<title>METADATA_Geology</title>
<g id="a_node1"><a xlink:href="../../tables/METADATA_Geology.html" xlink:title="METADATA_Geology" target="_top">
<polygon fill="#ffffff" stroke="transparent" points="209,-175.7 209,-375.7 486,-375.7 486,-175.7 209,-175.7"/>
<polygon fill="#f5f5f5" stroke="transparent" points="211.5,-350.7 211.5,-373.7 484.5,-373.7 484.5,-350.7 211.5,-350.7"/>
<polygon fill="none" stroke="#000000" points="211.5,-350.7 211.5,-373.7 484.5,-373.7 484.5,-350.7 211.5,-350.7"/>
<text text-anchor="start" x="216.5" y="-359.8" font-family="Helvetica,sans-Serif" font-weight="bold" font-size="11.00" fill="#000000">METADATA_Geology</text>
<text text-anchor="start" x="449.5437" y="-358.8" font-family="Helvetica,sans-Serif" font-size="11.00" fill="#000000">[table]</text>
<polygon fill="none" stroke="#000000" points="211.5,-328.7 211.5,-350.7 354.5,-350.7 354.5,-328.7 211.5,-328.7"/>
<text text-anchor="start" x="231.5" y="-335.8" font-family="Helvetica,sans-Serif" font-size="11.00" fill="#000000">Completion</text>
<polygon fill="none" stroke="#000000" points="354.5,-328.7 354.5,-350.7 484.5,-350.7 484.5,-328.7 354.5,-328.7"/>
<text text-anchor="start" x="357.5" y="-336.4" font-family="Helvetica,sans-Serif" font-size="11.00" fill="#000000">text[2000000000,10]</text>
<polygon fill="none" stroke="#000000" points="211.5,-306.7 211.5,-328.7 354.5,-328.7 354.5,-306.7 211.5,-306.7"/>
<text text-anchor="start" x="231.5" y="-313.8" font-family="Helvetica,sans-Serif" font-size="11.00" fill="#000000">Date_Updated</text>
<polygon fill="none" stroke="#000000" points="354.5,-306.7 354.5,-328.7 484.5,-328.7 484.5,-306.7 354.5,-306.7"/>
<text text-anchor="start" x="357.1372" y="-314.4" font-family="Helvetica,sans-Serif" font-size="11.00" fill="#000000">datetime[2000000000,10]</text>
<polygon fill="none" stroke="#000000" points="211.5,-284.7 211.5,-306.7 354.5,-306.7 354.5,-284.7 211.5,-284.7"/>
<image xlink:href="../../images/primaryKeys.png" width="11px" height="12px" preserveAspectRatio="xMinYMin meet" x="216.5" y="-301.7"/>
<text text-anchor="start" x="231.5" y="-291.8" font-family="Helvetica,sans-Serif" font-size="11.00" fill="#000000">DS_ID</text>
<polygon fill="none" stroke="#000000" points="354.5,-284.7 354.5,-306.7 484.5,-306.7 484.5,-284.7 354.5,-284.7"/>
<text text-anchor="start" x="357.5" y="-292.4" font-family="Helvetica,sans-Serif" font-size="11.00" fill="#000000">integer[2000000000,10]</text>
<polygon fill="none" stroke="#000000" points="211.5,-262.7 211.5,-284.7 354.5,-284.7 354.5,-262.7 211.5,-262.7"/>
<text text-anchor="start" x="231.5" y="-269.8" font-family="Helvetica,sans-Serif" font-size="11.00" fill="#000000">EPSG_Original</text>
<polygon fill="none" stroke="#000000" points="354.5,-262.7 354.5,-284.7 484.5,-284.7 484.5,-262.7 354.5,-262.7"/>
<text text-anchor="start" x="357.5" y="-270.4" font-family="Helvetica,sans-Serif" font-size="11.00" fill="#000000">integer[2000000000,10]</text>
<polygon fill="none" stroke="#000000" points="211.5,-240.7 211.5,-262.7 354.5,-262.7 354.5,-240.7 211.5,-240.7"/>
<text text-anchor="start" x="231.5" y="-247.8" font-family="Helvetica,sans-Serif" font-size="11.00" fill="#000000">Map_Scale</text>
<polygon fill="none" stroke="#000000" points="354.5,-240.7 354.5,-262.7 484.5,-262.7 484.5,-240.7 354.5,-240.7"/>
<text text-anchor="start" x="357.5" y="-248.4" font-family="Helvetica,sans-Serif" font-size="11.00" fill="#000000">text[2000000000,10]</text>
<polygon fill="none" stroke="#000000" points="211.5,-218.7 211.5,-240.7 354.5,-240.7 354.5,-218.7 211.5,-218.7"/>
<text text-anchor="start" x="231.5" y="-225.8" font-family="Helvetica,sans-Serif" font-size="11.00" fill="#000000">Source_File</text>
<polygon fill="none" stroke="#000000" points="354.5,-218.7 354.5,-240.7 484.5,-240.7 484.5,-218.7 354.5,-218.7"/>
<text text-anchor="start" x="357.5" y="-226.4" font-family="Helvetica,sans-Serif" font-size="11.00" fill="#000000">text[2000000000,10]</text>
<polygon fill="none" stroke="#000000" points="211.5,-196.7 211.5,-218.7 354.5,-218.7 354.5,-196.7 211.5,-196.7"/>
<text text-anchor="start" x="231.5" y="-203.8" font-family="Helvetica,sans-Serif" font-size="11.00" fill="#000000">Location</text>
<polygon fill="none" stroke="#000000" points="354.5,-196.7 354.5,-218.7 484.5,-218.7 484.5,-196.7 354.5,-196.7"/>
<text text-anchor="start" x="357.5" y="-204.4" font-family="Helvetica,sans-Serif" font-size="11.00" fill="#000000">text[2000000000,10]</text>
<polygon fill="#ffffff" stroke="transparent" points="211.5,-177.7 211.5,-196.7 274.5,-196.7 274.5,-177.7 211.5,-177.7"/>
<polygon fill="none" stroke="#000000" points="211.5,-177.7 211.5,-196.7 274.5,-196.7 274.5,-177.7 211.5,-177.7"/>
<text text-anchor="start" x="214.5" y="-183.8" font-family="Helvetica,sans-Serif" font-size="11.00" fill="#000000">&lt; 1</text>
<polygon fill="#ffffff" stroke="transparent" points="274.5,-177.7 274.5,-196.7 354.5,-196.7 354.5,-177.7 274.5,-177.7"/>
<polygon fill="none" stroke="#000000" points="274.5,-177.7 274.5,-196.7 354.5,-196.7 354.5,-177.7 274.5,-177.7"/>
<text text-anchor="start" x="319.1105" y="-183.8" font-family="Helvetica,sans-Serif" font-size="11.00" fill="#000000">0 rows</text>
<polygon fill="#ffffff" stroke="transparent" points="354.5,-177.7 354.5,-196.7 484.5,-196.7 484.5,-177.7 354.5,-177.7"/>
<polygon fill="none" stroke="#000000" points="354.5,-177.7 354.5,-196.7 484.5,-196.7 484.5,-177.7 354.5,-177.7"/>
<text text-anchor="start" x="465.9053" y="-183.8" font-family="Helvetica,sans-Serif" font-size="11.00" fill="#000000">2 &gt;</text>
<polygon fill="none" stroke="#000000" stroke-width="2" points="210,-176.7 210,-374.7 485,-374.7 485,-176.7 210,-176.7"/>
</a>
</g>
</g>
<!-- METADATA_Datasets -->
<g id="node2" class="node">
<title>METADATA_Datasets</title>
<g id="a_node2"><a xlink:href="../../tables/METADATA_Datasets.html" xlink:title="METADATA_Datasets" target="_top">
<polygon fill="#ffffff" stroke="transparent" points="8,-103.2 8,-186.2 160,-186.2 160,-103.2 8,-103.2"/>
<polygon fill="#f5f5f5" stroke="transparent" points="8,-162.7 8,-185.7 160,-185.7 160,-162.7 8,-162.7"/>
<polygon fill="none" stroke="#000000" points="8,-162.7 8,-185.7 160,-185.7 160,-162.7 8,-162.7"/>
<text text-anchor="start" x="12.7997" y="-171.8" font-family="Helvetica,sans-Serif" font-weight="bold" font-size="11.00" fill="#000000">METADATA_Datasets</text>
<text text-anchor="start" x="125.5219" y="-170.8" font-family="Helvetica,sans-Serif" font-size="11.00" fill="#000000">[table]</text>
<polygon fill="none" stroke="#000000" points="8,-140.7 8,-162.7 160,-162.7 160,-140.7 8,-140.7"/>
<image xlink:href="../../images/primaryKeys.png" width="11px" height="12px" preserveAspectRatio="xMinYMin meet" x="13" y="-157.7"/>
<text text-anchor="start" x="32" y="-147.8" font-family="Helvetica,sans-Serif" font-size="11.00" fill="#000000">DS_ID</text>
<polygon fill="none" stroke="#000000" points="8,-121.7 8,-140.7 160,-140.7 160,-121.7 8,-121.7"/>
<text text-anchor="start" x="11" y="-127.8" font-family="Helvetica,sans-Serif" font-size="11.00" fill="#000000">...</text>
<polygon fill="#ffffff" stroke="transparent" points="8,-102.7 8,-121.7 57,-121.7 57,-102.7 8,-102.7"/>
<polygon fill="none" stroke="#000000" points="8,-102.7 8,-121.7 57,-121.7 57,-102.7 8,-102.7"/>
<text text-anchor="start" x="11" y="-108.8" font-family="Helvetica,sans-Serif" font-size="11.00" fill="#000000"> &#160;</text>
<polygon fill="#ffffff" stroke="transparent" points="57,-102.7 57,-121.7 114,-121.7 114,-102.7 57,-102.7"/>
<polygon fill="none" stroke="#000000" points="57,-102.7 57,-121.7 114,-121.7 114,-102.7 57,-102.7"/>
<text text-anchor="start" x="78.6105" y="-108.8" font-family="Helvetica,sans-Serif" font-size="11.00" fill="#000000">0 rows</text>
<polygon fill="#ffffff" stroke="transparent" points="114,-102.7 114,-121.7 160,-121.7 160,-102.7 114,-102.7"/>
<polygon fill="none" stroke="#000000" points="114,-102.7 114,-121.7 160,-121.7 160,-102.7 114,-102.7"/>
<text text-anchor="start" x="135.2904" y="-108.8" font-family="Helvetica,sans-Serif" font-size="11.00" fill="#000000">43 &gt;</text>
</a>
</g>
</g>
<!-- METADATA_Geology&#45;&gt;METADATA_Datasets -->
<g id="edge1" class="edge">
<title>METADATA_Geology:w&#45;&gt;METADATA_Datasets:e</title>
<path fill="none" stroke="#000000" d="M201.0606,-294.2748C152.9022,-279.3194 223.9872,-151.7 160,-151.7"/>
<polygon fill="#000000" stroke="#000000" points="211.2485,-291.6285 210.1662,-299.555 208.581,-299.3386 209.6632,-291.4121 211.2485,-291.6285"/>
<polyline fill="none" stroke="#000000" points="211.5,-295.7 207.5368,-295.1589 "/>
<ellipse fill="none" stroke="#000000" cx="204.3662" cy="-294.726" rx="3.2" ry="3.2"/>
</g>
<!-- PTOBS_Geology -->
<g id="node3" class="node">
<title>PTOBS_Geology</title>
<g id="a_node3"><a xlink:href="../../tables/PTOBS_Geology.html" xlink:title="PTOBS_Geology" target="_top">
<polygon fill="#ffffff" stroke="transparent" points="539.5,-219.2 539.5,-368.2 666.5,-368.2 666.5,-219.2 539.5,-219.2"/>
<polygon fill="#f5f5f5" stroke="transparent" points="540,-344.7 540,-367.7 667,-367.7 667,-344.7 540,-344.7"/>
<polygon fill="none" stroke="#000000" points="540,-344.7 540,-367.7 667,-367.7 667,-344.7 540,-344.7"/>
<text text-anchor="start" x="544.8216" y="-353.8" font-family="Helvetica,sans-Serif" font-weight="bold" font-size="11.00" fill="#000000">PTOBS_Geology</text>
<text text-anchor="start" x="632.5219" y="-352.8" font-family="Helvetica,sans-Serif" font-size="11.00" fill="#000000">[table]</text>
<polygon fill="none" stroke="#000000" points="540,-322.7 540,-344.7 667,-344.7 667,-322.7 540,-322.7"/>
<image xlink:href="../../images/primaryKeys.png" width="11px" height="12px" preserveAspectRatio="xMinYMin meet" x="545" y="-339.7"/>
<text text-anchor="start" x="565" y="-329.8" font-family="Helvetica,sans-Serif" font-size="11.00" fill="#000000">PT_ID</text>
<polygon fill="none" stroke="#000000" points="540,-300.7 540,-322.7 667,-322.7 667,-300.7 540,-300.7"/>
<image xlink:href="../../images/primaryKeys.png" width="11px" height="12px" preserveAspectRatio="xMinYMin meet" x="545" y="-317.7"/>
<text text-anchor="start" x="565" y="-307.8" font-family="Helvetica,sans-Serif" font-size="11.00" fill="#000000">EQ_ID</text>
<polygon fill="none" stroke="#000000" points="540,-278.7 540,-300.7 667,-300.7 667,-278.7 540,-278.7"/>
<image xlink:href="../../images/primaryKeys.png" width="11px" height="12px" preserveAspectRatio="xMinYMin meet" x="545" y="-295.7"/>
<text text-anchor="start" x="565" y="-285.8" font-family="Helvetica,sans-Serif" font-size="11.00" fill="#000000">GEO_DS_ID</text>
<polygon fill="none" stroke="#000000" points="540,-256.7 540,-278.7 667,-278.7 667,-256.7 540,-256.7"/>
<image xlink:href="../../images/primaryKeys.png" width="11px" height="12px" preserveAspectRatio="xMinYMin meet" x="545" y="-273.7"/>
<text text-anchor="start" x="565" y="-263.8" font-family="Helvetica,sans-Serif" font-size="11.00" fill="#000000">PT_DS_ID</text>
<polygon fill="none" stroke="#000000" points="540,-237.7 540,-256.7 667,-256.7 667,-237.7 540,-237.7"/>
<text text-anchor="start" x="543" y="-243.8" font-family="Helvetica,sans-Serif" font-size="11.00" fill="#000000">...</text>
<polygon fill="#ffffff" stroke="transparent" points="540,-218.7 540,-237.7 589,-237.7 589,-218.7 540,-218.7"/>
<polygon fill="none" stroke="#000000" points="540,-218.7 540,-237.7 589,-237.7 589,-218.7 540,-218.7"/>
<text text-anchor="start" x="543" y="-224.8" font-family="Helvetica,sans-Serif" font-size="11.00" fill="#000000">&lt; 4</text>
<polygon fill="#ffffff" stroke="transparent" points="589,-218.7 589,-237.7 641,-237.7 641,-218.7 589,-218.7"/>
<polygon fill="none" stroke="#000000" points="589,-218.7 589,-237.7 641,-237.7 641,-218.7 589,-218.7"/>
<text text-anchor="start" x="605.6105" y="-224.8" font-family="Helvetica,sans-Serif" font-size="11.00" fill="#000000">0 rows</text>
<polygon fill="#ffffff" stroke="transparent" points="641,-218.7 641,-237.7 667,-237.7 667,-218.7 641,-218.7"/>
<polygon fill="none" stroke="#000000" points="641,-218.7 641,-237.7 667,-237.7 667,-218.7 641,-218.7"/>
<text text-anchor="start" x="657.8862" y="-224.8" font-family="Helvetica,sans-Serif" font-size="11.00" fill="#000000"> &#160;</text>
</a>
</g>
</g>
<!-- PTOBS_Geology&#45;&gt;METADATA_Geology -->
<g id="edge2" class="edge">
<title>PTOBS_Geology:w&#45;&gt;METADATA_Geology:e</title>
<path fill="none" stroke="#000000" d="M525.6116,-290.4844C511.5538,-292.1108 503.6893,-295.7 484.5,-295.7"/>
<polygon fill="#000000" stroke="#000000" points="532.0119,-290.1355 540.196,-293.2947 536.0059,-289.9178 540,-289.7 540,-289.7 540,-289.7 536.0059,-289.9178 539.804,-286.1053 532.0119,-290.1355 532.0119,-290.1355"/>
<ellipse fill="none" stroke="#000000" cx="528.8166" cy="-290.3097" rx="3.2" ry="3.2"/>
</g>
<!-- PTOBS_Geology&#45;&gt;METADATA_Datasets -->
<g id="edge3" class="edge">
<title>PTOBS_Geology:w&#45;&gt;METADATA_Datasets:e</title>
<path fill="none" stroke="#000000" d="M525.7771,-264.6521C499.8879,-250.4216 530.2088,-190.181 494,-165.7 432.4586,-124.0914 234.2874,-151.7 160,-151.7"/>
<polygon fill="#000000" stroke="#000000" points="532.1776,-266.0237 539.2456,-271.2201 536.0888,-266.8618 540,-267.7 540,-267.7 540,-267.7 536.0888,-266.8618 540.7544,-264.1799 532.1776,-266.0237 532.1776,-266.0237"/>
<ellipse fill="none" stroke="#000000" cx="529.0486" cy="-265.3531" rx="3.2" ry="3.2"/>
</g>
<!-- RUPOBS_Geology -->
<g id="node4" class="node">
<title>RUPOBS_Geology</title>
<g id="a_node4"><a xlink:href="../../tables/RUPOBS_Geology.html" xlink:title="RUPOBS_Geology" target="_top">
<polygon fill="#ffffff" stroke="transparent" points="535,-38.2 535,-187.2 671,-187.2 671,-38.2 535,-38.2"/>
<polygon fill="#f5f5f5" stroke="transparent" points="535,-163.7 535,-186.7 671,-186.7 671,-163.7 535,-163.7"/>
<polygon fill="none" stroke="#000000" points="535,-163.7 535,-186.7 671,-186.7 671,-163.7 535,-163.7"/>
<text text-anchor="start" x="539.7407" y="-172.8" font-family="Helvetica,sans-Serif" font-weight="bold" font-size="11.00" fill="#000000">RUPOBS_Geology</text>
<text text-anchor="start" x="636.5219" y="-171.8" font-family="Helvetica,sans-Serif" font-size="11.00" fill="#000000">[table]</text>
<polygon fill="none" stroke="#000000" points="535,-141.7 535,-163.7 671,-163.7 671,-141.7 535,-141.7"/>
<image xlink:href="../../images/primaryKeys.png" width="11px" height="12px" preserveAspectRatio="xMinYMin meet" x="540" y="-158.7"/>
<text text-anchor="start" x="560" y="-148.8" font-family="Helvetica,sans-Serif" font-size="11.00" fill="#000000">EQ_ID</text>
<polygon fill="none" stroke="#000000" points="535,-119.7 535,-141.7 671,-141.7 671,-119.7 535,-119.7"/>
<image xlink:href="../../images/primaryKeys.png" width="11px" height="12px" preserveAspectRatio="xMinYMin meet" x="540" y="-136.7"/>
<text text-anchor="start" x="560" y="-126.8" font-family="Helvetica,sans-Serif" font-size="11.00" fill="#000000">RUP_DS_ID</text>
<polygon fill="none" stroke="#000000" points="535,-97.7 535,-119.7 671,-119.7 671,-97.7 535,-97.7"/>
<image xlink:href="../../images/primaryKeys.png" width="11px" height="12px" preserveAspectRatio="xMinYMin meet" x="540" y="-114.7"/>
<text text-anchor="start" x="560" y="-104.8" font-family="Helvetica,sans-Serif" font-size="11.00" fill="#000000">GEO_DS_ID</text>
<polygon fill="none" stroke="#000000" points="535,-75.7 535,-97.7 671,-97.7 671,-75.7 535,-75.7"/>
<image xlink:href="../../images/primaryKeys.png" width="11px" height="12px" preserveAspectRatio="xMinYMin meet" x="540" y="-92.7"/>
<text text-anchor="start" x="560" y="-82.8" font-family="Helvetica,sans-Serif" font-size="11.00" fill="#000000">RUP_ID</text>
<polygon fill="none" stroke="#000000" points="535,-56.7 535,-75.7 671,-75.7 671,-56.7 535,-56.7"/>
<text text-anchor="start" x="538" y="-62.8" font-family="Helvetica,sans-Serif" font-size="11.00" fill="#000000">...</text>
<polygon fill="#ffffff" stroke="transparent" points="535,-37.7 535,-56.7 588,-56.7 588,-37.7 535,-37.7"/>
<polygon fill="none" stroke="#000000" points="535,-37.7 535,-56.7 588,-56.7 588,-37.7 535,-37.7"/>
<text text-anchor="start" x="538" y="-43.8" font-family="Helvetica,sans-Serif" font-size="11.00" fill="#000000">&lt; 3</text>
<polygon fill="#ffffff" stroke="transparent" points="588,-37.7 588,-56.7 642,-56.7 642,-37.7 588,-37.7"/>
<polygon fill="none" stroke="#000000" points="588,-37.7 588,-56.7 642,-56.7 642,-37.7 588,-37.7"/>
<text text-anchor="start" x="606.6105" y="-43.8" font-family="Helvetica,sans-Serif" font-size="11.00" fill="#000000">0 rows</text>
<polygon fill="#ffffff" stroke="transparent" points="642,-37.7 642,-56.7 671,-56.7 671,-37.7 642,-37.7"/>
<polygon fill="none" stroke="#000000" points="642,-37.7 642,-56.7 671,-56.7 671,-37.7 642,-37.7"/>
<text text-anchor="start" x="661.8862" y="-43.8" font-family="Helvetica,sans-Serif" font-size="11.00" fill="#000000"> &#160;</text>
</a>
</g>
</g>
<!-- RUPOBS_Geology&#45;&gt;METADATA_Geology -->
<g id="edge4" class="edge">
<title>RUPOBS_Geology:w&#45;&gt;METADATA_Geology:e</title>
<path fill="none" stroke="#000000" d="M520.4765,-111.0644C464.1556,-132.7113 564.8716,-295.7 484.5,-295.7"/>
<polygon fill="#000000" stroke="#000000" points="527.1039,-109.9855 535.5785,-112.2532 531.052,-109.3427 535,-108.7 535,-108.7 535,-108.7 531.052,-109.3427 534.4215,-105.1468 527.1039,-109.9855 527.1039,-109.9855"/>
<ellipse fill="none" stroke="#000000" cx="523.9455" cy="-110.4997" rx="3.2" ry="3.2"/>
</g>
<!-- RUPOBS_Geology&#45;&gt;METADATA_Datasets -->
<g id="edge5" class="edge">
<title>RUPOBS_Geology:w&#45;&gt;METADATA_Datasets:e</title>
<path fill="none" stroke="#000000" d="M520.562,-130.6712C383.8102,-130.1248 343.266,-122.2205 201,-141.7 182.417,-144.2444 178.7564,-151.7 160,-151.7"/>
<polygon fill="#000000" stroke="#000000" points="527,-130.684 534.9928,-134.3 531,-130.692 535,-130.7 535,-130.7 535,-130.7 531,-130.692 535.0072,-127.1 527,-130.684 527,-130.684"/>
<ellipse fill="none" stroke="#000000" cx="523.8" cy="-130.6775" rx="3.2" ry="3.2"/>
</g>
</g>
</svg>
