<?xml version="1.0" encoding="UTF-8" standalone="no"?>
<!DOCTYPE svg PUBLIC "-//W3C//DTD SVG 1.1//EN"
 "http://www.w3.org/Graphics/SVG/1.1/DTD/svg11.dtd">
<!-- Generated by graphviz version 2.40.1 (20161225.0304)
 -->
<!-- Title: oneDegreeRelationshipsDiagram Pages: 1 -->
<svg width="745pt" height="282pt"
 viewBox="0.00 0.00 745.00 281.70" xmlns="http://www.w3.org/2000/svg" xmlns:xlink="http://www.w3.org/1999/xlink">
<g id="graph0" class="graph" transform="scale(1 1) rotate(0) translate(4 277.7)">
<title>oneDegreeRelationshipsDiagram</title>
<polygon fill="#ffffff" stroke="transparent" points="-4,4 -4,-277.7 741,-277.7 741,4 -4,4"/>
<text text-anchor="middle" x="72.4936" y="-7.3" font-family="Helvetica,sans-Serif" font-size="11.00" fill="#000000">Generated by SchemaSpy</text>
<!-- PAIRING_RUPENDS_NOMRUP_temp -->
<g id="node1" class="node">
<title>PAIRING_RUPENDS_NOMRUP_temp</title>
<g id="a_node1"><a xlink:href="../../tables/PAIRING_RUPENDS_NOMRUP_temp.html" xlink:title="PAIRING_RUPENDS_NOMRUP_temp" target="_top">
<polygon fill="#ffffff" stroke="transparent" points="364,-47.7 364,-269.7 729,-269.7 729,-47.7 364,-47.7"/>
<polygon fill="#f5f5f5" stroke="transparent" points="366.5,-244.7 366.5,-267.7 727.5,-267.7 727.5,-244.7 366.5,-244.7"/>
<polygon fill="none" stroke="#000000" points="366.5,-244.7 366.5,-267.7 727.5,-267.7 727.5,-244.7 366.5,-244.7"/>
<text text-anchor="start" x="371.5" y="-253.8" font-family="Helvetica,sans-Serif" font-weight="bold" font-size="11.00" fill="#000000">PAIRING_RUPENDS_NOMRUP_temp</text>
<text text-anchor="start" x="692.5437" y="-252.8" font-family="Helvetica,sans-Serif" font-size="11.00" fill="#000000">[table]</text>
<polygon fill="none" stroke="#000000" points="366.5,-222.7 366.5,-244.7 597.5,-244.7 597.5,-222.7 366.5,-222.7"/>
<text text-anchor="start" x="386.5" y="-229.8" font-family="Helvetica,sans-Serif" font-size="11.00" fill="#000000">Source_File</text>
<polygon fill="none" stroke="#000000" points="597.5,-222.7 597.5,-244.7 727.5,-244.7 727.5,-222.7 597.5,-222.7"/>
<text text-anchor="start" x="600.5" y="-230.4" font-family="Helvetica,sans-Serif" font-size="11.00" fill="#000000">text[2000000000,10]</text>
<polygon fill="none" stroke="#000000" points="366.5,-200.7 366.5,-222.7 597.5,-222.7 597.5,-200.7 366.5,-200.7"/>
<image xlink:href="../../images/primaryKeys.png" width="11px" height="12px" preserveAspectRatio="xMinYMin meet" x="371.5" y="-217.7"/>
<text text-anchor="start" x="386.5" y="-207.8" font-family="Helvetica,sans-Serif" font-size="11.00" fill="#000000">EQ_ID</text>
<polygon fill="none" stroke="#000000" points="597.5,-200.7 597.5,-222.7 727.5,-222.7 727.5,-200.7 597.5,-200.7"/>
<text text-anchor="start" x="600.5" y="-208.4" font-family="Helvetica,sans-Serif" font-size="11.00" fill="#000000">integer[2000000000,10]</text>
<polygon fill="none" stroke="#000000" points="366.5,-178.7 366.5,-200.7 597.5,-200.7 597.5,-178.7 366.5,-178.7"/>
<image xlink:href="../../images/primaryKeys.png" width="11px" height="12px" preserveAspectRatio="xMinYMin meet" x="371.5" y="-195.7"/>
<text text-anchor="start" x="386.5" y="-185.8" font-family="Helvetica,sans-Serif" font-size="11.00" fill="#000000">RUP_DS_ID</text>
<polygon fill="none" stroke="#000000" points="597.5,-178.7 597.5,-200.7 727.5,-200.7 727.5,-178.7 597.5,-178.7"/>
<text text-anchor="start" x="600.5" y="-186.4" font-family="Helvetica,sans-Serif" font-size="11.00" fill="#000000">integer[2000000000,10]</text>
<polygon fill="none" stroke="#000000" points="366.5,-156.7 366.5,-178.7 597.5,-178.7 597.5,-156.7 366.5,-156.7"/>
<text text-anchor="start" x="386.5" y="-163.8" font-family="Helvetica,sans-Serif" font-size="11.00" fill="#000000">Date_Added</text>
<polygon fill="none" stroke="#000000" points="597.5,-156.7 597.5,-178.7 727.5,-178.7 727.5,-156.7 597.5,-156.7"/>
<text text-anchor="start" x="600.1372" y="-164.4" font-family="Helvetica,sans-Serif" font-size="11.00" fill="#000000">datetime[2000000000,10]</text>
<polygon fill="none" stroke="#000000" points="366.5,-134.7 366.5,-156.7 597.5,-156.7 597.5,-134.7 366.5,-134.7"/>
<image xlink:href="../../images/primaryKeys.png" width="11px" height="12px" preserveAspectRatio="xMinYMin meet" x="371.5" y="-151.7"/>
<text text-anchor="start" x="386.5" y="-141.8" font-family="Helvetica,sans-Serif" font-size="11.00" fill="#000000">Vert_ID</text>
<polygon fill="none" stroke="#000000" points="597.5,-134.7 597.5,-156.7 727.5,-156.7 727.5,-134.7 597.5,-134.7"/>
<text text-anchor="start" x="600.5" y="-142.4" font-family="Helvetica,sans-Serif" font-size="11.00" fill="#000000">integer[2000000000,10]</text>
<polygon fill="none" stroke="#000000" points="366.5,-112.7 366.5,-134.7 597.5,-134.7 597.5,-112.7 366.5,-112.7"/>
<text text-anchor="start" x="386.5" y="-119.8" font-family="Helvetica,sans-Serif" font-size="11.00" fill="#000000">Dist2Nomrup</text>
<polygon fill="none" stroke="#000000" points="597.5,-112.7 597.5,-134.7 727.5,-134.7 727.5,-112.7 597.5,-112.7"/>
<text text-anchor="start" x="600.5" y="-120.4" font-family="Helvetica,sans-Serif" font-size="11.00" fill="#000000">float[2000000000,10]</text>
<polygon fill="none" stroke="#000000" points="366.5,-90.7 366.5,-112.7 597.5,-112.7 597.5,-90.7 366.5,-90.7"/>
<image xlink:href="../../images/primaryKeys.png" width="11px" height="12px" preserveAspectRatio="xMinYMin meet" x="371.5" y="-107.7"/>
<text text-anchor="start" x="386.5" y="-97.8" font-family="Helvetica,sans-Serif" font-size="11.00" fill="#000000">RUP_ID</text>
<polygon fill="none" stroke="#000000" points="597.5,-90.7 597.5,-112.7 727.5,-112.7 727.5,-90.7 597.5,-90.7"/>
<text text-anchor="start" x="600.5" y="-98.4" font-family="Helvetica,sans-Serif" font-size="11.00" fill="#000000">integer[2000000000,10]</text>
<polygon fill="none" stroke="#000000" points="366.5,-68.7 366.5,-90.7 597.5,-90.7 597.5,-68.7 366.5,-68.7"/>
<text text-anchor="start" x="386.5" y="-75.8" font-family="Helvetica,sans-Serif" font-size="11.00" fill="#000000">Dist_Along_Nomrup</text>
<polygon fill="none" stroke="#000000" points="597.5,-68.7 597.5,-90.7 727.5,-90.7 727.5,-68.7 597.5,-68.7"/>
<text text-anchor="start" x="600.5" y="-76.4" font-family="Helvetica,sans-Serif" font-size="11.00" fill="#000000">float[2000000000,10]</text>
<polygon fill="#ffffff" stroke="transparent" points="366.5,-49.7 366.5,-68.7 473.5,-68.7 473.5,-49.7 366.5,-49.7"/>
<polygon fill="none" stroke="#000000" points="366.5,-49.7 366.5,-68.7 473.5,-68.7 473.5,-49.7 366.5,-49.7"/>
<text text-anchor="start" x="369.5" y="-55.8" font-family="Helvetica,sans-Serif" font-size="11.00" fill="#000000">&lt; 3</text>
<polygon fill="#ffffff" stroke="transparent" points="473.5,-49.7 473.5,-68.7 597.5,-68.7 597.5,-49.7 473.5,-49.7"/>
<polygon fill="none" stroke="#000000" points="473.5,-49.7 473.5,-68.7 597.5,-68.7 597.5,-49.7 473.5,-49.7"/>
<text text-anchor="start" x="562.1105" y="-55.8" font-family="Helvetica,sans-Serif" font-size="11.00" fill="#000000">0 rows</text>
<polygon fill="#ffffff" stroke="transparent" points="597.5,-49.7 597.5,-68.7 727.5,-68.7 727.5,-49.7 597.5,-49.7"/>
<polygon fill="none" stroke="#000000" points="597.5,-49.7 597.5,-68.7 727.5,-68.7 727.5,-49.7 597.5,-49.7"/>
<text text-anchor="start" x="708.9053" y="-55.8" font-family="Helvetica,sans-Serif" font-size="11.00" fill="#000000">0 &gt;</text>
<polygon fill="none" stroke="#000000" stroke-width="2" points="365,-48.7 365,-268.7 728,-268.7 728,-48.7 365,-48.7"/>
</a>
</g>
</g>
<!-- METADATA_Events -->
<g id="node2" class="node">
<title>METADATA_Events</title>
<g id="a_node2"><a xlink:href="../../tables/METADATA_Events.html" xlink:title="METADATA_Events" target="_top">
<polygon fill="#ffffff" stroke="transparent" points="13,-167.2 13,-250.2 155,-250.2 155,-167.2 13,-167.2"/>
<polygon fill="#f5f5f5" stroke="transparent" points="13,-226.7 13,-249.7 155,-249.7 155,-226.7 13,-226.7"/>
<polygon fill="none" stroke="#000000" points="13,-226.7 13,-249.7 155,-249.7 155,-226.7 13,-226.7"/>
<text text-anchor="start" x="17.6881" y="-235.8" font-family="Helvetica,sans-Serif" font-weight="bold" font-size="11.00" fill="#000000">METADATA_Events</text>
<text text-anchor="start" x="120.5219" y="-234.8" font-family="Helvetica,sans-Serif" font-size="11.00" fill="#000000">[table]</text>
<polygon fill="none" stroke="#000000" points="13,-204.7 13,-226.7 155,-226.7 155,-204.7 13,-204.7"/>
<image xlink:href="../../images/primaryKeys.png" width="11px" height="12px" preserveAspectRatio="xMinYMin meet" x="18" y="-221.7"/>
<text text-anchor="start" x="37" y="-211.8" font-family="Helvetica,sans-Serif" font-size="11.00" fill="#000000">EQ_ID</text>
<polygon fill="none" stroke="#000000" points="13,-185.7 13,-204.7 155,-204.7 155,-185.7 13,-185.7"/>
<text text-anchor="start" x="16" y="-191.8" font-family="Helvetica,sans-Serif" font-size="11.00" fill="#000000">...</text>
<polygon fill="#ffffff" stroke="transparent" points="13,-166.7 13,-185.7 57,-185.7 57,-166.7 13,-166.7"/>
<polygon fill="none" stroke="#000000" points="13,-166.7 13,-185.7 57,-185.7 57,-166.7 13,-166.7"/>
<text text-anchor="start" x="16" y="-172.8" font-family="Helvetica,sans-Serif" font-size="11.00" fill="#000000"> &#160;</text>
<polygon fill="#ffffff" stroke="transparent" points="57,-166.7 57,-185.7 111,-185.7 111,-166.7 57,-166.7"/>
<polygon fill="none" stroke="#000000" points="57,-166.7 57,-185.7 111,-185.7 111,-166.7 57,-166.7"/>
<text text-anchor="start" x="75.6105" y="-172.8" font-family="Helvetica,sans-Serif" font-size="11.00" fill="#000000">0 rows</text>
<polygon fill="#ffffff" stroke="transparent" points="111,-166.7 111,-185.7 155,-185.7 155,-166.7 111,-166.7"/>
<polygon fill="none" stroke="#000000" points="111,-166.7 111,-185.7 155,-185.7 155,-166.7 111,-166.7"/>
<text text-anchor="start" x="130.2904" y="-172.8" font-family="Helvetica,sans-Serif" font-size="11.00" fill="#000000">40 &gt;</text>
</a>
</g>
</g>
<!-- PAIRING_RUPENDS_NOMRUP_temp&#45;&gt;METADATA_Events -->
<g id="edge1" class="edge">
<title>PAIRING_RUPENDS_NOMRUP_temp:w&#45;&gt;METADATA_Events:e</title>
<path fill="none" stroke="#000000" d="M351.9395,-211.7334C269.7589,-212.1181 243.9671,-215.7 155,-215.7"/>
<polygon fill="#000000" stroke="#000000" points="358.5,-211.7184 366.5083,-215.3 362.5,-211.7092 366.5,-211.7 366.5,-211.7 366.5,-211.7 362.5,-211.7092 366.4917,-208.1 358.5,-211.7184 358.5,-211.7184"/>
<ellipse fill="none" stroke="#000000" cx="355.3" cy="-211.7258" rx="3.2" ry="3.2"/>
</g>
<!-- METADATA_Datasets -->
<g id="node3" class="node">
<title>METADATA_Datasets</title>
<g id="a_node3"><a xlink:href="../../tables/METADATA_Datasets.html" xlink:title="METADATA_Datasets" target="_top">
<polygon fill="#ffffff" stroke="transparent" points="8,-62.2 8,-145.2 160,-145.2 160,-62.2 8,-62.2"/>
<polygon fill="#f5f5f5" stroke="transparent" points="8,-121.7 8,-144.7 160,-144.7 160,-121.7 8,-121.7"/>
<polygon fill="none" stroke="#000000" points="8,-121.7 8,-144.7 160,-144.7 160,-121.7 8,-121.7"/>
<text text-anchor="start" x="12.7997" y="-130.8" font-family="Helvetica,sans-Serif" font-weight="bold" font-size="11.00" fill="#000000">METADATA_Datasets</text>
<text text-anchor="start" x="125.5219" y="-129.8" font-family="Helvetica,sans-Serif" font-size="11.00" fill="#000000">[table]</text>
<polygon fill="none" stroke="#000000" points="8,-99.7 8,-121.7 160,-121.7 160,-99.7 8,-99.7"/>
<image xlink:href="../../images/primaryKeys.png" width="11px" height="12px" preserveAspectRatio="xMinYMin meet" x="13" y="-116.7"/>
<text text-anchor="start" x="32" y="-106.8" font-family="Helvetica,sans-Serif" font-size="11.00" fill="#000000">DS_ID</text>
<polygon fill="none" stroke="#000000" points="8,-80.7 8,-99.7 160,-99.7 160,-80.7 8,-80.7"/>
<text text-anchor="start" x="11" y="-86.8" font-family="Helvetica,sans-Serif" font-size="11.00" fill="#000000">...</text>
<polygon fill="#ffffff" stroke="transparent" points="8,-61.7 8,-80.7 57,-80.7 57,-61.7 8,-61.7"/>
<polygon fill="none" stroke="#000000" points="8,-61.7 8,-80.7 57,-80.7 57,-61.7 8,-61.7"/>
<text text-anchor="start" x="11" y="-67.8" font-family="Helvetica,sans-Serif" font-size="11.00" fill="#000000"> &#160;</text>
<polygon fill="#ffffff" stroke="transparent" points="57,-61.7 57,-80.7 114,-80.7 114,-61.7 57,-61.7"/>
<polygon fill="none" stroke="#000000" points="57,-61.7 57,-80.7 114,-80.7 114,-61.7 57,-61.7"/>
<text text-anchor="start" x="78.6105" y="-67.8" font-family="Helvetica,sans-Serif" font-size="11.00" fill="#000000">0 rows</text>
<polygon fill="#ffffff" stroke="transparent" points="114,-61.7 114,-80.7 160,-80.7 160,-61.7 114,-61.7"/>
<polygon fill="none" stroke="#000000" points="114,-61.7 114,-80.7 160,-80.7 160,-61.7 114,-61.7"/>
<text text-anchor="start" x="135.2904" y="-67.8" font-family="Helvetica,sans-Serif" font-size="11.00" fill="#000000">43 &gt;</text>
</a>
</g>
</g>
<!-- PAIRING_RUPENDS_NOMRUP_temp&#45;&gt;METADATA_Datasets -->
<g id="edge2" class="edge">
<title>PAIRING_RUPENDS_NOMRUP_temp:w&#45;&gt;METADATA_Datasets:e</title>
<path fill="none" stroke="#000000" d="M351.9699,-190.0135C288.6099,-192.7356 259.7652,-211.4247 201,-175.7 171.8142,-157.9573 194.1558,-110.7 160,-110.7"/>
<polygon fill="#000000" stroke="#000000" points="358.5019,-189.8726 366.5777,-193.2992 362.5009,-189.7863 366.5,-189.7 366.5,-189.7 366.5,-189.7 362.5009,-189.7863 366.4223,-186.1008 358.5019,-189.8726 358.5019,-189.8726"/>
<ellipse fill="none" stroke="#000000" cx="355.3026" cy="-189.9417" rx="3.2" ry="3.2"/>
</g>
<!-- RUPOBS_ID -->
<g id="node4" class="node">
<title>RUPOBS_ID</title>
<g id="a_node4"><a xlink:href="../../tables/RUPOBS_ID.html" xlink:title="RUPOBS_ID" target="_top">
<polygon fill="#ffffff" stroke="transparent" points="209,-38.2 209,-165.2 315,-165.2 315,-38.2 209,-38.2"/>
<polygon fill="#f5f5f5" stroke="transparent" points="209,-141.7 209,-164.7 315,-164.7 315,-141.7 209,-141.7"/>
<polygon fill="none" stroke="#000000" points="209,-141.7 209,-164.7 315,-164.7 315,-141.7 209,-141.7"/>
<text text-anchor="start" x="213.7205" y="-150.8" font-family="Helvetica,sans-Serif" font-weight="bold" font-size="11.00" fill="#000000">RUPOBS_ID</text>
<text text-anchor="start" x="280.5219" y="-149.8" font-family="Helvetica,sans-Serif" font-size="11.00" fill="#000000">[table]</text>
<polygon fill="none" stroke="#000000" points="209,-119.7 209,-141.7 315,-141.7 315,-119.7 209,-119.7"/>
<image xlink:href="../../images/primaryKeys.png" width="11px" height="12px" preserveAspectRatio="xMinYMin meet" x="214" y="-136.7"/>
<text text-anchor="start" x="237" y="-126.8" font-family="Helvetica,sans-Serif" font-size="11.00" fill="#000000">EQ_ID</text>
<polygon fill="none" stroke="#000000" points="209,-97.7 209,-119.7 315,-119.7 315,-97.7 209,-97.7"/>
<image xlink:href="../../images/primaryKeys.png" width="11px" height="12px" preserveAspectRatio="xMinYMin meet" x="214" y="-114.7"/>
<text text-anchor="start" x="237" y="-104.8" font-family="Helvetica,sans-Serif" font-size="11.00" fill="#000000">DS_ID</text>
<polygon fill="none" stroke="#000000" points="209,-75.7 209,-97.7 315,-97.7 315,-75.7 209,-75.7"/>
<image xlink:href="../../images/primaryKeys.png" width="11px" height="12px" preserveAspectRatio="xMinYMin meet" x="214" y="-92.7"/>
<text text-anchor="start" x="237" y="-82.8" font-family="Helvetica,sans-Serif" font-size="11.00" fill="#000000">RUP_ID</text>
<polygon fill="none" stroke="#000000" points="209,-56.7 209,-75.7 315,-75.7 315,-56.7 209,-56.7"/>
<text text-anchor="start" x="212" y="-62.8" font-family="Helvetica,sans-Serif" font-size="11.00" fill="#000000">...</text>
<polygon fill="#ffffff" stroke="transparent" points="209,-37.7 209,-56.7 243,-56.7 243,-37.7 209,-37.7"/>
<polygon fill="none" stroke="#000000" points="209,-37.7 209,-56.7 243,-56.7 243,-37.7 209,-37.7"/>
<text text-anchor="start" x="212" y="-43.8" font-family="Helvetica,sans-Serif" font-size="11.00" fill="#000000">&lt; 2</text>
<polygon fill="#ffffff" stroke="transparent" points="243,-37.7 243,-56.7 287,-56.7 287,-37.7 243,-37.7"/>
<polygon fill="none" stroke="#000000" points="243,-37.7 243,-56.7 287,-56.7 287,-37.7 243,-37.7"/>
<text text-anchor="start" x="251.6105" y="-43.8" font-family="Helvetica,sans-Serif" font-size="11.00" fill="#000000">0 rows</text>
<polygon fill="#ffffff" stroke="transparent" points="287,-37.7 287,-56.7 315,-56.7 315,-37.7 287,-37.7"/>
<polygon fill="none" stroke="#000000" points="287,-37.7 287,-56.7 315,-56.7 315,-37.7 287,-37.7"/>
<text text-anchor="start" x="296.4053" y="-43.8" font-family="Helvetica,sans-Serif" font-size="11.00" fill="#000000">8 &gt;</text>
</a>
</g>
</g>
<!-- PAIRING_RUPENDS_NOMRUP_temp&#45;&gt;RUPOBS_ID -->
<g id="edge3" class="edge">
<title>PAIRING_RUPENDS_NOMRUP_temp:w&#45;&gt;RUPOBS_ID:e</title>
<path fill="none" stroke="#000000" d="M352.1328,-99.4867C339.6354,-95.3142 333.0663,-86.7 315,-86.7"/>
<polygon fill="#000000" stroke="#000000" points="358.5933,-100.4819 365.9519,-105.258 362.5466,-101.091 366.5,-101.7 366.5,-101.7 366.5,-101.7 362.5466,-101.091 367.0481,-98.142 358.5933,-100.4819 358.5933,-100.4819"/>
<ellipse fill="none" stroke="#000000" cx="355.4306" cy="-99.9947" rx="3.2" ry="3.2"/>
</g>
<!-- RUPOBS_ID&#45;&gt;METADATA_Events -->
<g id="edge5" class="edge">
<title>RUPOBS_ID:w&#45;&gt;METADATA_Events:e</title>
<path fill="none" stroke="#000000" d="M195.0389,-134.7997C172.2607,-151.7788 193.8124,-215.7 155,-215.7"/>
<polygon fill="#000000" stroke="#000000" points="201.3241,-132.9541 210.0143,-134.1542 205.1621,-131.827 209,-130.7 209,-130.7 209,-130.7 205.1621,-131.827 207.9857,-127.2458 201.3241,-132.9541 201.3241,-132.9541"/>
<ellipse fill="none" stroke="#000000" cx="198.2538" cy="-133.8557" rx="3.2" ry="3.2"/>
</g>
<!-- RUPOBS_ID&#45;&gt;METADATA_Datasets -->
<g id="edge4" class="edge">
<title>RUPOBS_ID:w&#45;&gt;METADATA_Datasets:e</title>
<path fill="none" stroke="#000000" d="M194.4859,-109.0484C183.1747,-109.6214 176.0064,-110.7 160,-110.7"/>
<polygon fill="#000000" stroke="#000000" points="201.0023,-108.892 209.0864,-112.299 205.0012,-108.796 209,-108.7 209,-108.7 209,-108.7 205.0012,-108.796 208.9136,-105.101 201.0023,-108.892 201.0023,-108.892"/>
<ellipse fill="none" stroke="#000000" cx="197.8032" cy="-108.9688" rx="3.2" ry="3.2"/>
</g>
</g>
</svg>
