<?xml version="1.0" encoding="UTF-8" standalone="no"?>
<!DOCTYPE svg PUBLIC "-//W3C//DTD SVG 1.1//EN"
 "http://www.w3.org/Graphics/SVG/1.1/DTD/svg11.dtd">
<!-- Generated by graphviz version 2.40.1 (20161225.0304)
 -->
<!-- Title: oneDegreeRelationshipsDiagram Pages: 1 -->
<svg width="639pt" height="408pt"
 viewBox="0.00 0.00 639.00 408.50" xmlns="http://www.w3.org/2000/svg" xmlns:xlink="http://www.w3.org/1999/xlink">
<g id="graph0" class="graph" transform="scale(1 1) rotate(0) translate(4 404.4976)">
<title>oneDegreeRelationshipsDiagram</title>
<polygon fill="#ffffff" stroke="transparent" points="-4,4 -4,-404.4976 635,-404.4976 635,4 -4,4"/>
<text text-anchor="middle" x="72.4936" y="-7.3" font-family="Helvetica,sans-Serif" font-size="11.00" fill="#000000">Generated by SchemaSpy</text>
<!-- PAIRING_PT_RUP -->
<g id="node1" class="node">
<title>PAIRING_PT_RUP</title>
<g id="a_node1"><a xlink:href="../../tables/PAIRING_PT_RUP.html" xlink:title="PAIRING_PT_RUP" target="_top">
<polygon fill="#ffffff" stroke="transparent" points="364,-97.9976 364,-319.9976 623,-319.9976 623,-97.9976 364,-97.9976"/>
<polygon fill="#f5f5f5" stroke="transparent" points="366.5,-294.9976 366.5,-317.9976 621.5,-317.9976 621.5,-294.9976 366.5,-294.9976"/>
<polygon fill="none" stroke="#000000" points="366.5,-294.9976 366.5,-317.9976 621.5,-317.9976 621.5,-294.9976 366.5,-294.9976"/>
<text text-anchor="start" x="371.5" y="-304.0976" font-family="Helvetica,sans-Serif" font-weight="bold" font-size="11.00" fill="#000000">PAIRING_PT_RUP</text>
<text text-anchor="start" x="586.5437" y="-303.0976" font-family="Helvetica,sans-Serif" font-size="11.00" fill="#000000">[table]</text>
<polygon fill="none" stroke="#000000" points="366.5,-272.9976 366.5,-294.9976 491.5,-294.9976 491.5,-272.9976 366.5,-272.9976"/>
<text text-anchor="start" x="386.5" y="-280.0976" font-family="Helvetica,sans-Serif" font-size="11.00" fill="#000000">Source_File</text>
<polygon fill="none" stroke="#000000" points="491.5,-272.9976 491.5,-294.9976 621.5,-294.9976 621.5,-272.9976 491.5,-272.9976"/>
<text text-anchor="start" x="494.5" y="-280.6976" font-family="Helvetica,sans-Serif" font-size="11.00" fill="#000000">text[2000000000,10]</text>
<polygon fill="none" stroke="#000000" points="366.5,-250.9976 366.5,-272.9976 491.5,-272.9976 491.5,-250.9976 366.5,-250.9976"/>
<image xlink:href="../../images/primaryKeys.png" width="11px" height="12px" preserveAspectRatio="xMinYMin meet" x="371.5" y="-267.998"/>
<text text-anchor="start" x="386.5" y="-258.0976" font-family="Helvetica,sans-Serif" font-size="11.00" fill="#000000">PT_ID</text>
<polygon fill="none" stroke="#000000" points="491.5,-250.9976 491.5,-272.9976 621.5,-272.9976 621.5,-250.9976 491.5,-250.9976"/>
<text text-anchor="start" x="494.5" y="-258.6976" font-family="Helvetica,sans-Serif" font-size="11.00" fill="#000000">integer[2000000000,10]</text>
<polygon fill="none" stroke="#000000" points="366.5,-228.9976 366.5,-250.9976 491.5,-250.9976 491.5,-228.9976 366.5,-228.9976"/>
<image xlink:href="../../images/primaryKeys.png" width="11px" height="12px" preserveAspectRatio="xMinYMin meet" x="371.5" y="-245.998"/>
<text text-anchor="start" x="386.5" y="-236.0976" font-family="Helvetica,sans-Serif" font-size="11.00" fill="#000000">EQ_ID</text>
<polygon fill="none" stroke="#000000" points="491.5,-228.9976 491.5,-250.9976 621.5,-250.9976 621.5,-228.9976 491.5,-228.9976"/>
<text text-anchor="start" x="494.5" y="-236.6976" font-family="Helvetica,sans-Serif" font-size="11.00" fill="#000000">integer[2000000000,10]</text>
<polygon fill="none" stroke="#000000" points="366.5,-206.9976 366.5,-228.9976 491.5,-228.9976 491.5,-206.9976 366.5,-206.9976"/>
<image xlink:href="../../images/primaryKeys.png" width="11px" height="12px" preserveAspectRatio="xMinYMin meet" x="371.5" y="-223.998"/>
<text text-anchor="start" x="386.5" y="-214.0976" font-family="Helvetica,sans-Serif" font-size="11.00" fill="#000000">RUP_DS_ID</text>
<polygon fill="none" stroke="#000000" points="491.5,-206.9976 491.5,-228.9976 621.5,-228.9976 621.5,-206.9976 491.5,-206.9976"/>
<text text-anchor="start" x="494.5" y="-214.6976" font-family="Helvetica,sans-Serif" font-size="11.00" fill="#000000">integer[2000000000,10]</text>
<polygon fill="none" stroke="#000000" points="366.5,-184.9976 366.5,-206.9976 491.5,-206.9976 491.5,-184.9976 366.5,-184.9976"/>
<text text-anchor="start" x="386.5" y="-192.0976" font-family="Helvetica,sans-Serif" font-size="11.00" fill="#000000">Date_Added</text>
<polygon fill="none" stroke="#000000" points="491.5,-184.9976 491.5,-206.9976 621.5,-206.9976 621.5,-184.9976 491.5,-184.9976"/>
<text text-anchor="start" x="494.1372" y="-192.6976" font-family="Helvetica,sans-Serif" font-size="11.00" fill="#000000">datetime[2000000000,10]</text>
<polygon fill="none" stroke="#000000" points="366.5,-162.9976 366.5,-184.9976 491.5,-184.9976 491.5,-162.9976 366.5,-162.9976"/>
<text text-anchor="start" x="386.5" y="-170.0976" font-family="Helvetica,sans-Serif" font-size="11.00" fill="#000000">Rup_Dist</text>
<polygon fill="none" stroke="#000000" points="491.5,-162.9976 491.5,-184.9976 621.5,-184.9976 621.5,-162.9976 491.5,-162.9976"/>
<text text-anchor="start" x="494.5" y="-170.6976" font-family="Helvetica,sans-Serif" font-size="11.00" fill="#000000">float[2000000000,10]</text>
<polygon fill="none" stroke="#000000" points="366.5,-140.9976 366.5,-162.9976 491.5,-162.9976 491.5,-140.9976 366.5,-140.9976"/>
<image xlink:href="../../images/primaryKeys.png" width="11px" height="12px" preserveAspectRatio="xMinYMin meet" x="371.5" y="-157.998"/>
<text text-anchor="start" x="386.5" y="-148.0976" font-family="Helvetica,sans-Serif" font-size="11.00" fill="#000000">PT_DS_ID</text>
<polygon fill="none" stroke="#000000" points="491.5,-140.9976 491.5,-162.9976 621.5,-162.9976 621.5,-140.9976 491.5,-140.9976"/>
<text text-anchor="start" x="494.5" y="-148.6976" font-family="Helvetica,sans-Serif" font-size="11.00" fill="#000000">integer[2000000000,10]</text>
<polygon fill="none" stroke="#000000" points="366.5,-118.9976 366.5,-140.9976 491.5,-140.9976 491.5,-118.9976 366.5,-118.9976"/>
<image xlink:href="../../images/foreignKeys.png" width="11px" height="12px" preserveAspectRatio="xMinYMin meet" x="371.5" y="-135.998"/>
<text text-anchor="start" x="386.5" y="-126.0976" font-family="Helvetica,sans-Serif" font-size="11.00" fill="#000000">RUP_ID</text>
<polygon fill="none" stroke="#000000" points="491.5,-118.9976 491.5,-140.9976 621.5,-140.9976 621.5,-118.9976 491.5,-118.9976"/>
<text text-anchor="start" x="494.5" y="-126.6976" font-family="Helvetica,sans-Serif" font-size="11.00" fill="#000000">integer[2000000000,10]</text>
<polygon fill="#ffffff" stroke="transparent" points="366.5,-99.9976 366.5,-118.9976 420.5,-118.9976 420.5,-99.9976 366.5,-99.9976"/>
<polygon fill="none" stroke="#000000" points="366.5,-99.9976 366.5,-118.9976 420.5,-118.9976 420.5,-99.9976 366.5,-99.9976"/>
<text text-anchor="start" x="369.5" y="-106.0976" font-family="Helvetica,sans-Serif" font-size="11.00" fill="#000000">&lt; 5</text>
<polygon fill="#ffffff" stroke="transparent" points="420.5,-99.9976 420.5,-118.9976 491.5,-118.9976 491.5,-99.9976 420.5,-99.9976"/>
<polygon fill="none" stroke="#000000" points="420.5,-99.9976 420.5,-118.9976 491.5,-118.9976 491.5,-99.9976 420.5,-99.9976"/>
<text text-anchor="start" x="456.1105" y="-106.0976" font-family="Helvetica,sans-Serif" font-size="11.00" fill="#000000">0 rows</text>
<polygon fill="#ffffff" stroke="transparent" points="491.5,-99.9976 491.5,-118.9976 621.5,-118.9976 621.5,-99.9976 491.5,-99.9976"/>
<polygon fill="none" stroke="#000000" points="491.5,-99.9976 491.5,-118.9976 621.5,-118.9976 621.5,-99.9976 491.5,-99.9976"/>
<text text-anchor="start" x="602.9053" y="-106.0976" font-family="Helvetica,sans-Serif" font-size="11.00" fill="#000000">0 &gt;</text>
<polygon fill="none" stroke="#000000" stroke-width="2" points="365,-98.9976 365,-318.9976 622,-318.9976 622,-98.9976 365,-98.9976"/>
</a>
</g>
</g>
<!-- METADATA_Events -->
<g id="node2" class="node">
<title>METADATA_Events</title>
<g id="a_node2"><a xlink:href="../../tables/METADATA_Events.html" xlink:title="METADATA_Events" target="_top">
<polygon fill="#ffffff" stroke="transparent" points="13,-196.4976 13,-279.4976 155,-279.4976 155,-196.4976 13,-196.4976"/>
<polygon fill="#f5f5f5" stroke="transparent" points="13,-255.9976 13,-278.9976 155,-278.9976 155,-255.9976 13,-255.9976"/>
<polygon fill="none" stroke="#000000" points="13,-255.9976 13,-278.9976 155,-278.9976 155,-255.9976 13,-255.9976"/>
<text text-anchor="start" x="17.6881" y="-265.0976" font-family="Helvetica,sans-Serif" font-weight="bold" font-size="11.00" fill="#000000">METADATA_Events</text>
<text text-anchor="start" x="120.5219" y="-264.0976" font-family="Helvetica,sans-Serif" font-size="11.00" fill="#000000">[table]</text>
<polygon fill="none" stroke="#000000" points="13,-233.9976 13,-255.9976 155,-255.9976 155,-233.9976 13,-233.9976"/>
<image xlink:href="../../images/primaryKeys.png" width="11px" height="12px" preserveAspectRatio="xMinYMin meet" x="18" y="-250.998"/>
<text text-anchor="start" x="37" y="-241.0976" font-family="Helvetica,sans-Serif" font-size="11.00" fill="#000000">EQ_ID</text>
<polygon fill="none" stroke="#000000" points="13,-214.9976 13,-233.9976 155,-233.9976 155,-214.9976 13,-214.9976"/>
<text text-anchor="start" x="16" y="-221.0976" font-family="Helvetica,sans-Serif" font-size="11.00" fill="#000000">...</text>
<polygon fill="#ffffff" stroke="transparent" points="13,-195.9976 13,-214.9976 57,-214.9976 57,-195.9976 13,-195.9976"/>
<polygon fill="none" stroke="#000000" points="13,-195.9976 13,-214.9976 57,-214.9976 57,-195.9976 13,-195.9976"/>
<text text-anchor="start" x="16" y="-202.0976" font-family="Helvetica,sans-Serif" font-size="11.00" fill="#000000"> &#160;</text>
<polygon fill="#ffffff" stroke="transparent" points="57,-195.9976 57,-214.9976 111,-214.9976 111,-195.9976 57,-195.9976"/>
<polygon fill="none" stroke="#000000" points="57,-195.9976 57,-214.9976 111,-214.9976 111,-195.9976 57,-195.9976"/>
<text text-anchor="start" x="75.6105" y="-202.0976" font-family="Helvetica,sans-Serif" font-size="11.00" fill="#000000">0 rows</text>
<polygon fill="#ffffff" stroke="transparent" points="111,-195.9976 111,-214.9976 155,-214.9976 155,-195.9976 111,-195.9976"/>
<polygon fill="none" stroke="#000000" points="111,-195.9976 111,-214.9976 155,-214.9976 155,-195.9976 111,-195.9976"/>
<text text-anchor="start" x="130.2904" y="-202.0976" font-family="Helvetica,sans-Serif" font-size="11.00" fill="#000000">40 &gt;</text>
</a>
</g>
</g>
<!-- PAIRING_PT_RUP&#45;&gt;METADATA_Events -->
<g id="edge1" class="edge">
<title>PAIRING_PT_RUP:w&#45;&gt;METADATA_Events:e</title>
<path fill="none" stroke="#000000" d="M351.9382,-240.0394C269.7514,-240.5203 243.976,-244.9976 155,-244.9976"/>
<polygon fill="#000000" stroke="#000000" points="358.5,-240.0206 366.5103,-243.5976 362.5,-240.0091 366.5,-239.9976 366.5,-239.9976 366.5,-239.9976 362.5,-240.0091 366.4897,-236.3976 358.5,-240.0206 358.5,-240.0206"/>
<ellipse fill="none" stroke="#000000" cx="355.3" cy="-240.0298" rx="3.2" ry="3.2"/>
</g>
<!-- METADATA_Datasets -->
<g id="node3" class="node">
<title>METADATA_Datasets</title>
<g id="a_node3"><a xlink:href="../../tables/METADATA_Datasets.html" xlink:title="METADATA_Datasets" target="_top">
<polygon fill="#ffffff" stroke="transparent" points="8,-90.4976 8,-173.4976 160,-173.4976 160,-90.4976 8,-90.4976"/>
<polygon fill="#f5f5f5" stroke="transparent" points="8,-149.9976 8,-172.9976 160,-172.9976 160,-149.9976 8,-149.9976"/>
<polygon fill="none" stroke="#000000" points="8,-149.9976 8,-172.9976 160,-172.9976 160,-149.9976 8,-149.9976"/>
<text text-anchor="start" x="12.7997" y="-159.0976" font-family="Helvetica,sans-Serif" font-weight="bold" font-size="11.00" fill="#000000">METADATA_Datasets</text>
<text text-anchor="start" x="125.5219" y="-158.0976" font-family="Helvetica,sans-Serif" font-size="11.00" fill="#000000">[table]</text>
<polygon fill="none" stroke="#000000" points="8,-127.9976 8,-149.9976 160,-149.9976 160,-127.9976 8,-127.9976"/>
<image xlink:href="../../images/primaryKeys.png" width="11px" height="12px" preserveAspectRatio="xMinYMin meet" x="13" y="-144.998"/>
<text text-anchor="start" x="32" y="-135.0976" font-family="Helvetica,sans-Serif" font-size="11.00" fill="#000000">DS_ID</text>
<polygon fill="none" stroke="#000000" points="8,-108.9976 8,-127.9976 160,-127.9976 160,-108.9976 8,-108.9976"/>
<text text-anchor="start" x="11" y="-115.0976" font-family="Helvetica,sans-Serif" font-size="11.00" fill="#000000">...</text>
<polygon fill="#ffffff" stroke="transparent" points="8,-89.9976 8,-108.9976 57,-108.9976 57,-89.9976 8,-89.9976"/>
<polygon fill="none" stroke="#000000" points="8,-89.9976 8,-108.9976 57,-108.9976 57,-89.9976 8,-89.9976"/>
<text text-anchor="start" x="11" y="-96.0976" font-family="Helvetica,sans-Serif" font-size="11.00" fill="#000000"> &#160;</text>
<polygon fill="#ffffff" stroke="transparent" points="57,-89.9976 57,-108.9976 114,-108.9976 114,-89.9976 57,-89.9976"/>
<polygon fill="none" stroke="#000000" points="57,-89.9976 57,-108.9976 114,-108.9976 114,-89.9976 57,-89.9976"/>
<text text-anchor="start" x="78.6105" y="-96.0976" font-family="Helvetica,sans-Serif" font-size="11.00" fill="#000000">0 rows</text>
<polygon fill="#ffffff" stroke="transparent" points="114,-89.9976 114,-108.9976 160,-108.9976 160,-89.9976 114,-89.9976"/>
<polygon fill="none" stroke="#000000" points="114,-89.9976 114,-108.9976 160,-108.9976 160,-89.9976 114,-89.9976"/>
<text text-anchor="start" x="135.2904" y="-96.0976" font-family="Helvetica,sans-Serif" font-size="11.00" fill="#000000">43 &gt;</text>
</a>
</g>
</g>
<!-- PAIRING_PT_RUP&#45;&gt;METADATA_Datasets -->
<g id="edge2" class="edge">
<title>PAIRING_PT_RUP:w&#45;&gt;METADATA_Datasets:e</title>
<path fill="none" stroke="#000000" d="M352.1731,-148.5322C329.5549,-134.0379 357.1403,-78.0095 323,-55.9976 277.4286,-26.6156 247.0552,-27.38 201,-55.9976 166.0531,-77.7129 201.1441,-138.9976 160,-138.9976"/>
<polygon fill="#000000" stroke="#000000" points="358.7242,-150.1167 365.6536,-155.4967 362.6121,-151.0572 366.5,-151.9976 366.5,-151.9976 366.5,-151.9976 362.6121,-151.0572 367.3464,-148.4985 358.7242,-150.1167 358.7242,-150.1167"/>
<ellipse fill="none" stroke="#000000" cx="355.6139" cy="-149.3644" rx="3.2" ry="3.2"/>
</g>
<!-- PAIRING_PT_RUP&#45;&gt;METADATA_Datasets -->
<g id="edge4" class="edge">
<title>PAIRING_PT_RUP:w&#45;&gt;METADATA_Datasets:e</title>
<path fill="none" stroke="#000000" d="M351.9699,-218.3111C288.6099,-221.0332 259.7652,-239.7223 201,-203.9976 171.8142,-186.2549 194.1558,-138.9976 160,-138.9976"/>
<polygon fill="#000000" stroke="#000000" points="358.5019,-218.1703 366.5777,-221.5968 362.5009,-218.0839 366.5,-217.9976 366.5,-217.9976 366.5,-217.9976 362.5009,-218.0839 366.4223,-214.3985 358.5019,-218.1703 358.5019,-218.1703"/>
<ellipse fill="none" stroke="#000000" cx="355.3026" cy="-218.2393" rx="3.2" ry="3.2"/>
</g>
<!-- PTOBS_ID -->
<g id="node4" class="node">
<title>PTOBS_ID</title>
<g id="a_node4"><a xlink:href="../../tables/PTOBS_ID.html" xlink:title="PTOBS_ID" target="_top">
<polygon fill="#ffffff" stroke="transparent" points="213.5,-269.4976 213.5,-396.4976 310.5,-396.4976 310.5,-269.4976 213.5,-269.4976"/>
<polygon fill="#f5f5f5" stroke="transparent" points="214,-372.9976 214,-395.9976 311,-395.9976 311,-372.9976 214,-372.9976"/>
<polygon fill="none" stroke="#000000" points="214,-372.9976 214,-395.9976 311,-395.9976 311,-372.9976 214,-372.9976"/>
<text text-anchor="start" x="218.8014" y="-382.0976" font-family="Helvetica,sans-Serif" font-weight="bold" font-size="11.00" fill="#000000">PTOBS_ID</text>
<text text-anchor="start" x="276.5219" y="-381.0976" font-family="Helvetica,sans-Serif" font-size="11.00" fill="#000000">[table]</text>
<polygon fill="none" stroke="#000000" points="214,-350.9976 214,-372.9976 311,-372.9976 311,-350.9976 214,-350.9976"/>
<image xlink:href="../../images/primaryKeys.png" width="11px" height="12px" preserveAspectRatio="xMinYMin meet" x="219" y="-367.998"/>
<text text-anchor="start" x="237" y="-358.0976" font-family="Helvetica,sans-Serif" font-size="11.00" fill="#000000">PT_ID</text>
<polygon fill="none" stroke="#000000" points="214,-328.9976 214,-350.9976 311,-350.9976 311,-328.9976 214,-328.9976"/>
<image xlink:href="../../images/primaryKeys.png" width="11px" height="12px" preserveAspectRatio="xMinYMin meet" x="219" y="-345.998"/>
<text text-anchor="start" x="237" y="-336.0976" font-family="Helvetica,sans-Serif" font-size="11.00" fill="#000000">EQ_ID</text>
<polygon fill="none" stroke="#000000" points="214,-306.9976 214,-328.9976 311,-328.9976 311,-306.9976 214,-306.9976"/>
<image xlink:href="../../images/primaryKeys.png" width="11px" height="12px" preserveAspectRatio="xMinYMin meet" x="219" y="-323.998"/>
<text text-anchor="start" x="237" y="-314.0976" font-family="Helvetica,sans-Serif" font-size="11.00" fill="#000000">DS_ID</text>
<polygon fill="none" stroke="#000000" points="214,-287.9976 214,-306.9976 311,-306.9976 311,-287.9976 214,-287.9976"/>
<text text-anchor="start" x="217" y="-294.0976" font-family="Helvetica,sans-Serif" font-size="11.00" fill="#000000">...</text>
<polygon fill="#ffffff" stroke="transparent" points="214,-268.9976 214,-287.9976 240,-287.9976 240,-268.9976 214,-268.9976"/>
<polygon fill="none" stroke="#000000" points="214,-268.9976 214,-287.9976 240,-287.9976 240,-268.9976 214,-268.9976"/>
<text text-anchor="start" x="217" y="-275.0976" font-family="Helvetica,sans-Serif" font-size="11.00" fill="#000000">&lt; 2</text>
<polygon fill="#ffffff" stroke="transparent" points="240,-268.9976 240,-287.9976 281,-287.9976 281,-268.9976 240,-268.9976"/>
<polygon fill="none" stroke="#000000" points="240,-268.9976 240,-287.9976 281,-287.9976 281,-268.9976 240,-268.9976"/>
<text text-anchor="start" x="245.6105" y="-275.0976" font-family="Helvetica,sans-Serif" font-size="11.00" fill="#000000">0 rows</text>
<polygon fill="#ffffff" stroke="transparent" points="281,-268.9976 281,-287.9976 311,-287.9976 311,-268.9976 281,-268.9976"/>
<polygon fill="none" stroke="#000000" points="281,-268.9976 281,-287.9976 311,-287.9976 311,-268.9976 281,-268.9976"/>
<text text-anchor="start" x="286.2904" y="-275.0976" font-family="Helvetica,sans-Serif" font-size="11.00" fill="#000000">27 &gt;</text>
</a>
</g>
</g>
<!-- PAIRING_PT_RUP&#45;&gt;PTOBS_ID -->
<g id="edge3" class="edge">
<title>PAIRING_PT_RUP:w&#45;&gt;PTOBS_ID:e</title>
<path fill="none" stroke="#000000" d="M352.3136,-265.7956C325.1564,-284.0618 355.8739,-361.9976 311,-361.9976"/>
<polygon fill="#000000" stroke="#000000" points="358.7722,-264.0666 367.431,-265.4752 362.6361,-263.0321 366.5,-261.9976 366.5,-261.9976 366.5,-261.9976 362.6361,-263.0321 365.569,-258.5201 358.7722,-264.0666 358.7722,-264.0666"/>
<ellipse fill="none" stroke="#000000" cx="355.681" cy="-264.8942" rx="3.2" ry="3.2"/>
</g>
<!-- RUPOBS_ID -->
<g id="node5" class="node">
<title>RUPOBS_ID</title>
<g id="a_node5"><a xlink:href="../../tables/RUPOBS_ID.html" xlink:title="RUPOBS_ID" target="_top">
<polygon fill="#ffffff" stroke="transparent" points="209,-66.4976 209,-193.4976 315,-193.4976 315,-66.4976 209,-66.4976"/>
<polygon fill="#f5f5f5" stroke="transparent" points="209,-169.9976 209,-192.9976 315,-192.9976 315,-169.9976 209,-169.9976"/>
<polygon fill="none" stroke="#000000" points="209,-169.9976 209,-192.9976 315,-192.9976 315,-169.9976 209,-169.9976"/>
<text text-anchor="start" x="213.7205" y="-179.0976" font-family="Helvetica,sans-Serif" font-weight="bold" font-size="11.00" fill="#000000">RUPOBS_ID</text>
<text text-anchor="start" x="280.5219" y="-178.0976" font-family="Helvetica,sans-Serif" font-size="11.00" fill="#000000">[table]</text>
<polygon fill="none" stroke="#000000" points="209,-147.9976 209,-169.9976 315,-169.9976 315,-147.9976 209,-147.9976"/>
<image xlink:href="../../images/primaryKeys.png" width="11px" height="12px" preserveAspectRatio="xMinYMin meet" x="214" y="-164.998"/>
<text text-anchor="start" x="237" y="-155.0976" font-family="Helvetica,sans-Serif" font-size="11.00" fill="#000000">EQ_ID</text>
<polygon fill="none" stroke="#000000" points="209,-125.9976 209,-147.9976 315,-147.9976 315,-125.9976 209,-125.9976"/>
<image xlink:href="../../images/primaryKeys.png" width="11px" height="12px" preserveAspectRatio="xMinYMin meet" x="214" y="-142.998"/>
<text text-anchor="start" x="237" y="-133.0976" font-family="Helvetica,sans-Serif" font-size="11.00" fill="#000000">DS_ID</text>
<polygon fill="none" stroke="#000000" points="209,-103.9976 209,-125.9976 315,-125.9976 315,-103.9976 209,-103.9976"/>
<image xlink:href="../../images/primaryKeys.png" width="11px" height="12px" preserveAspectRatio="xMinYMin meet" x="214" y="-120.998"/>
<text text-anchor="start" x="237" y="-111.0976" font-family="Helvetica,sans-Serif" font-size="11.00" fill="#000000">RUP_ID</text>
<polygon fill="none" stroke="#000000" points="209,-84.9976 209,-103.9976 315,-103.9976 315,-84.9976 209,-84.9976"/>
<text text-anchor="start" x="212" y="-91.0976" font-family="Helvetica,sans-Serif" font-size="11.00" fill="#000000">...</text>
<polygon fill="#ffffff" stroke="transparent" points="209,-65.9976 209,-84.9976 243,-84.9976 243,-65.9976 209,-65.9976"/>
<polygon fill="none" stroke="#000000" points="209,-65.9976 209,-84.9976 243,-84.9976 243,-65.9976 209,-65.9976"/>
<text text-anchor="start" x="212" y="-72.0976" font-family="Helvetica,sans-Serif" font-size="11.00" fill="#000000">&lt; 2</text>
<polygon fill="#ffffff" stroke="transparent" points="243,-65.9976 243,-84.9976 287,-84.9976 287,-65.9976 243,-65.9976"/>
<polygon fill="none" stroke="#000000" points="243,-65.9976 243,-84.9976 287,-84.9976 287,-65.9976 243,-65.9976"/>
<text text-anchor="start" x="251.6105" y="-72.0976" font-family="Helvetica,sans-Serif" font-size="11.00" fill="#000000">0 rows</text>
<polygon fill="#ffffff" stroke="transparent" points="287,-65.9976 287,-84.9976 315,-84.9976 315,-65.9976 287,-65.9976"/>
<polygon fill="none" stroke="#000000" points="287,-65.9976 287,-84.9976 315,-84.9976 315,-65.9976 287,-65.9976"/>
<text text-anchor="start" x="296.4053" y="-72.0976" font-family="Helvetica,sans-Serif" font-size="11.00" fill="#000000">8 &gt;</text>
</a>
</g>
</g>
<!-- PAIRING_PT_RUP&#45;&gt;RUPOBS_ID -->
<g id="edge5" class="edge">
<title>PAIRING_PT_RUP:w&#45;&gt;RUPOBS_ID:e</title>
<path fill="none" stroke="#000000" d="M352.1328,-127.7843C339.6354,-123.6118 333.0663,-114.9976 315,-114.9976"/>
<polygon fill="#000000" stroke="#000000" points="358.5933,-128.7795 365.9519,-133.5557 362.5466,-129.3886 366.5,-129.9976 366.5,-129.9976 366.5,-129.9976 362.5466,-129.3886 367.0481,-126.4396 358.5933,-128.7795 358.5933,-128.7795"/>
<ellipse fill="none" stroke="#000000" cx="355.4306" cy="-128.2923" rx="3.2" ry="3.2"/>
</g>
<!-- PTOBS_ID&#45;&gt;METADATA_Events -->
<g id="edge7" class="edge">
<title>PTOBS_ID:w&#45;&gt;METADATA_Events:e</title>
<path fill="none" stroke="#000000" d="M199.9488,-336.3895C172.5301,-319.0366 198.8778,-244.9976 155,-244.9976"/>
<polygon fill="#000000" stroke="#000000" points="206.2514,-338.0079 213.1046,-343.4845 210.1257,-339.0028 214,-339.9976 214,-339.9976 214,-339.9976 210.1257,-339.0028 214.8954,-336.5108 206.2514,-338.0079 206.2514,-338.0079"/>
<ellipse fill="none" stroke="#000000" cx="203.1519" cy="-337.212" rx="3.2" ry="3.2"/>
</g>
<!-- PTOBS_ID&#45;&gt;METADATA_Datasets -->
<g id="edge6" class="edge">
<title>PTOBS_ID:w&#45;&gt;METADATA_Datasets:e</title>
<path fill="none" stroke="#000000" d="M199.5717,-315.6026C145.3295,-294.3614 237.4164,-138.9976 160,-138.9976"/>
<polygon fill="#000000" stroke="#000000" points="206.108,-316.6875 213.4105,-321.549 210.054,-317.3426 214,-317.9976 214,-317.9976 214,-317.9976 210.054,-317.3426 214.5895,-314.4462 206.108,-316.6875 206.108,-316.6875"/>
<ellipse fill="none" stroke="#000000" cx="202.9512" cy="-316.1635" rx="3.2" ry="3.2"/>
</g>
<!-- RUPOBS_ID&#45;&gt;METADATA_Events -->
<g id="edge9" class="edge">
<title>RUPOBS_ID:w&#45;&gt;METADATA_Events:e</title>
<path fill="none" stroke="#000000" d="M194.9435,-163.1456C172.0646,-180.3244 194.1383,-244.9976 155,-244.9976"/>
<polygon fill="#000000" stroke="#000000" points="201.3271,-161.2619 210.0189,-162.4504 205.1636,-160.1298 209,-158.9976 209,-158.9976 209,-158.9976 205.1636,-160.1298 207.9811,-155.5448 201.3271,-161.2619 201.3271,-161.2619"/>
<ellipse fill="none" stroke="#000000" cx="198.2579" cy="-162.1676" rx="3.2" ry="3.2"/>
</g>
<!-- RUPOBS_ID&#45;&gt;METADATA_Datasets -->
<g id="edge8" class="edge">
<title>RUPOBS_ID:w&#45;&gt;METADATA_Datasets:e</title>
<path fill="none" stroke="#000000" d="M194.4859,-137.346C183.1747,-137.919 176.0064,-138.9976 160,-138.9976"/>
<polygon fill="#000000" stroke="#000000" points="201.0023,-137.1896 209.0864,-140.5966 205.0012,-137.0936 209,-136.9976 209,-136.9976 209,-136.9976 205.0012,-137.0936 208.9136,-133.3987 201.0023,-137.1896 201.0023,-137.1896"/>
<ellipse fill="none" stroke="#000000" cx="197.8032" cy="-137.2665" rx="3.2" ry="3.2"/>
</g>
</g>
</svg>
