<?xml version="1.0" encoding="UTF-8" standalone="no"?>
<!DOCTYPE svg PUBLIC "-//W3C//DTD SVG 1.1//EN"
 "http://www.w3.org/Graphics/SVG/1.1/DTD/svg11.dtd">
<!-- Generated by graphviz version 2.40.1 (20161225.0304)
 -->
<!-- Title: oneDegreeRelationshipsDiagram Pages: 1 -->
<svg width="693pt" height="335pt"
 viewBox="0.00 0.00 693.00 334.70" xmlns="http://www.w3.org/2000/svg" xmlns:xlink="http://www.w3.org/1999/xlink">
<g id="graph0" class="graph" transform="scale(1 1) rotate(0) translate(4 330.7)">
<title>oneDegreeRelationshipsDiagram</title>
<polygon fill="#ffffff" stroke="transparent" points="-4,4 -4,-330.7 689,-330.7 689,4 -4,4"/>
<text text-anchor="middle" x="72.4936" y="-7.3" font-family="Helvetica,sans-Serif" font-size="11.00" fill="#000000">Generated by SchemaSpy</text>
<!-- PAIRING_PT_NOMRUP_temp -->
<g id="node1" class="node">
<title>PAIRING_PT_NOMRUP_temp</title>
<g id="a_node1"><a xlink:href="../../tables/PAIRING_PT_NOMRUP_temp.html" xlink:title="PAIRING_PT_NOMRUP_temp" target="_top">
<polygon fill="#ffffff" stroke="transparent" points="355,-38.2 355,-260.2 677,-260.2 677,-38.2 355,-38.2"/>
<polygon fill="#f5f5f5" stroke="transparent" points="357,-235.2 357,-258.2 675,-258.2 675,-235.2 357,-235.2"/>
<polygon fill="none" stroke="#000000" points="357,-235.2 357,-258.2 675,-258.2 675,-235.2 357,-235.2"/>
<text text-anchor="start" x="362" y="-244.3" font-family="Helvetica,sans-Serif" font-weight="bold" font-size="11.00" fill="#000000">PAIRING_PT_NOMRUP_temp</text>
<text text-anchor="start" x="640.0437" y="-243.3" font-family="Helvetica,sans-Serif" font-size="11.00" fill="#000000">[table]</text>
<polygon fill="none" stroke="#000000" points="357,-213.2 357,-235.2 545,-235.2 545,-213.2 357,-213.2"/>
<text text-anchor="start" x="377" y="-220.3" font-family="Helvetica,sans-Serif" font-size="11.00" fill="#000000">Source_File</text>
<polygon fill="none" stroke="#000000" points="545,-213.2 545,-235.2 675,-235.2 675,-213.2 545,-213.2"/>
<text text-anchor="start" x="548" y="-220.9" font-family="Helvetica,sans-Serif" font-size="11.00" fill="#000000">text[2000000000,10]</text>
<polygon fill="none" stroke="#000000" points="357,-191.2 357,-213.2 545,-213.2 545,-191.2 357,-191.2"/>
<image xlink:href="../../images/primaryKeys.png" width="11px" height="12px" preserveAspectRatio="xMinYMin meet" x="362" y="-208.2"/>
<text text-anchor="start" x="377" y="-198.3" font-family="Helvetica,sans-Serif" font-size="11.00" fill="#000000">PT_ID</text>
<polygon fill="none" stroke="#000000" points="545,-191.2 545,-213.2 675,-213.2 675,-191.2 545,-191.2"/>
<text text-anchor="start" x="548" y="-198.9" font-family="Helvetica,sans-Serif" font-size="11.00" fill="#000000">integer[2000000000,10]</text>
<polygon fill="none" stroke="#000000" points="357,-169.2 357,-191.2 545,-191.2 545,-169.2 357,-169.2"/>
<image xlink:href="../../images/primaryKeys.png" width="11px" height="12px" preserveAspectRatio="xMinYMin meet" x="362" y="-186.2"/>
<text text-anchor="start" x="377" y="-176.3" font-family="Helvetica,sans-Serif" font-size="11.00" fill="#000000">EQ_ID</text>
<polygon fill="none" stroke="#000000" points="545,-169.2 545,-191.2 675,-191.2 675,-169.2 545,-169.2"/>
<text text-anchor="start" x="548" y="-176.9" font-family="Helvetica,sans-Serif" font-size="11.00" fill="#000000">integer[2000000000,10]</text>
<polygon fill="none" stroke="#000000" points="357,-147.2 357,-169.2 545,-169.2 545,-147.2 357,-147.2"/>
<image xlink:href="../../images/primaryKeys.png" width="11px" height="12px" preserveAspectRatio="xMinYMin meet" x="362" y="-164.2"/>
<text text-anchor="start" x="377" y="-154.3" font-family="Helvetica,sans-Serif" font-size="11.00" fill="#000000">RUP_DS_ID</text>
<polygon fill="none" stroke="#000000" points="545,-147.2 545,-169.2 675,-169.2 675,-147.2 545,-147.2"/>
<text text-anchor="start" x="548" y="-154.9" font-family="Helvetica,sans-Serif" font-size="11.00" fill="#000000">integer[2000000000,10]</text>
<polygon fill="none" stroke="#000000" points="357,-125.2 357,-147.2 545,-147.2 545,-125.2 357,-125.2"/>
<text text-anchor="start" x="377" y="-132.3" font-family="Helvetica,sans-Serif" font-size="11.00" fill="#000000">Date_Added</text>
<polygon fill="none" stroke="#000000" points="545,-125.2 545,-147.2 675,-147.2 675,-125.2 545,-125.2"/>
<text text-anchor="start" x="547.6372" y="-132.9" font-family="Helvetica,sans-Serif" font-size="11.00" fill="#000000">datetime[2000000000,10]</text>
<polygon fill="none" stroke="#000000" points="357,-103.2 357,-125.2 545,-125.2 545,-103.2 357,-103.2"/>
<text text-anchor="start" x="377" y="-110.3" font-family="Helvetica,sans-Serif" font-size="11.00" fill="#000000">Dist2Nomrup</text>
<polygon fill="none" stroke="#000000" points="545,-103.2 545,-125.2 675,-125.2 675,-103.2 545,-103.2"/>
<text text-anchor="start" x="548" y="-110.9" font-family="Helvetica,sans-Serif" font-size="11.00" fill="#000000">float[2000000000,10]</text>
<polygon fill="none" stroke="#000000" points="357,-81.2 357,-103.2 545,-103.2 545,-81.2 357,-81.2"/>
<image xlink:href="../../images/primaryKeys.png" width="11px" height="12px" preserveAspectRatio="xMinYMin meet" x="362" y="-98.2"/>
<text text-anchor="start" x="377" y="-88.3" font-family="Helvetica,sans-Serif" font-size="11.00" fill="#000000">PT_DS_ID</text>
<polygon fill="none" stroke="#000000" points="545,-81.2 545,-103.2 675,-103.2 675,-81.2 545,-81.2"/>
<text text-anchor="start" x="548" y="-88.9" font-family="Helvetica,sans-Serif" font-size="11.00" fill="#000000">integer[2000000000,10]</text>
<polygon fill="none" stroke="#000000" points="357,-59.2 357,-81.2 545,-81.2 545,-59.2 357,-59.2"/>
<text text-anchor="start" x="377" y="-66.3" font-family="Helvetica,sans-Serif" font-size="11.00" fill="#000000">Dist_Along_Nomrup</text>
<polygon fill="none" stroke="#000000" points="545,-59.2 545,-81.2 675,-81.2 675,-59.2 545,-59.2"/>
<text text-anchor="start" x="548" y="-66.9" font-family="Helvetica,sans-Serif" font-size="11.00" fill="#000000">float[2000000000,10]</text>
<polygon fill="#ffffff" stroke="transparent" points="357,-40.2 357,-59.2 442,-59.2 442,-40.2 357,-40.2"/>
<polygon fill="none" stroke="#000000" points="357,-40.2 357,-59.2 442,-59.2 442,-40.2 357,-40.2"/>
<text text-anchor="start" x="360" y="-46.3" font-family="Helvetica,sans-Serif" font-size="11.00" fill="#000000">&lt; 4</text>
<polygon fill="#ffffff" stroke="transparent" points="442,-40.2 442,-59.2 545,-59.2 545,-40.2 442,-40.2"/>
<polygon fill="none" stroke="#000000" points="442,-40.2 442,-59.2 545,-59.2 545,-40.2 442,-40.2"/>
<text text-anchor="start" x="509.6105" y="-46.3" font-family="Helvetica,sans-Serif" font-size="11.00" fill="#000000">0 rows</text>
<polygon fill="#ffffff" stroke="transparent" points="545,-40.2 545,-59.2 675,-59.2 675,-40.2 545,-40.2"/>
<polygon fill="none" stroke="#000000" points="545,-40.2 545,-59.2 675,-59.2 675,-40.2 545,-40.2"/>
<text text-anchor="start" x="656.4053" y="-46.3" font-family="Helvetica,sans-Serif" font-size="11.00" fill="#000000">0 &gt;</text>
<polygon fill="none" stroke="#000000" stroke-width="2" points="356,-39.2 356,-259.2 676,-259.2 676,-39.2 356,-39.2"/>
</a>
</g>
</g>
<!-- METADATA_Events -->
<g id="node2" class="node">
<title>METADATA_Events</title>
<g id="a_node2"><a xlink:href="../../tables/METADATA_Events.html" xlink:title="METADATA_Events" target="_top">
<polygon fill="#ffffff" stroke="transparent" points="13,-208.7 13,-291.7 155,-291.7 155,-208.7 13,-208.7"/>
<polygon fill="#f5f5f5" stroke="transparent" points="13,-268.2 13,-291.2 155,-291.2 155,-268.2 13,-268.2"/>
<polygon fill="none" stroke="#000000" points="13,-268.2 13,-291.2 155,-291.2 155,-268.2 13,-268.2"/>
<text text-anchor="start" x="17.6881" y="-277.3" font-family="Helvetica,sans-Serif" font-weight="bold" font-size="11.00" fill="#000000">METADATA_Events</text>
<text text-anchor="start" x="120.5219" y="-276.3" font-family="Helvetica,sans-Serif" font-size="11.00" fill="#000000">[table]</text>
<polygon fill="none" stroke="#000000" points="13,-246.2 13,-268.2 155,-268.2 155,-246.2 13,-246.2"/>
<image xlink:href="../../images/primaryKeys.png" width="11px" height="12px" preserveAspectRatio="xMinYMin meet" x="18" y="-263.2"/>
<text text-anchor="start" x="37" y="-253.3" font-family="Helvetica,sans-Serif" font-size="11.00" fill="#000000">EQ_ID</text>
<polygon fill="none" stroke="#000000" points="13,-227.2 13,-246.2 155,-246.2 155,-227.2 13,-227.2"/>
<text text-anchor="start" x="16" y="-233.3" font-family="Helvetica,sans-Serif" font-size="11.00" fill="#000000">...</text>
<polygon fill="#ffffff" stroke="transparent" points="13,-208.2 13,-227.2 57,-227.2 57,-208.2 13,-208.2"/>
<polygon fill="none" stroke="#000000" points="13,-208.2 13,-227.2 57,-227.2 57,-208.2 13,-208.2"/>
<text text-anchor="start" x="16" y="-214.3" font-family="Helvetica,sans-Serif" font-size="11.00" fill="#000000"> &#160;</text>
<polygon fill="#ffffff" stroke="transparent" points="57,-208.2 57,-227.2 111,-227.2 111,-208.2 57,-208.2"/>
<polygon fill="none" stroke="#000000" points="57,-208.2 57,-227.2 111,-227.2 111,-208.2 57,-208.2"/>
<text text-anchor="start" x="75.6105" y="-214.3" font-family="Helvetica,sans-Serif" font-size="11.00" fill="#000000">0 rows</text>
<polygon fill="#ffffff" stroke="transparent" points="111,-208.2 111,-227.2 155,-227.2 155,-208.2 111,-208.2"/>
<polygon fill="none" stroke="#000000" points="111,-208.2 111,-227.2 155,-227.2 155,-208.2 111,-208.2"/>
<text text-anchor="start" x="130.2904" y="-214.3" font-family="Helvetica,sans-Serif" font-size="11.00" fill="#000000">40 &gt;</text>
</a>
</g>
</g>
<!-- PAIRING_PT_NOMRUP_temp&#45;&gt;METADATA_Events -->
<g id="edge1" class="edge">
<title>PAIRING_PT_NOMRUP_temp:w&#45;&gt;METADATA_Events:e</title>
<path fill="none" stroke="#000000" d="M342.6062,-179.7761C283.6477,-176.2978 256.94,-153.3818 201,-185.2 167.9925,-203.9744 192.9733,-257.2 155,-257.2"/>
<polygon fill="#000000" stroke="#000000" points="349.0035,-179.9644 356.894,-183.7984 353.0017,-180.0822 357,-180.2 357,-180.2 357,-180.2 353.0017,-180.0822 357.106,-176.6016 349.0035,-179.9644 349.0035,-179.9644"/>
<ellipse fill="none" stroke="#000000" cx="345.8049" cy="-179.8702" rx="3.2" ry="3.2"/>
</g>
<!-- METADATA_Datasets -->
<g id="node3" class="node">
<title>METADATA_Datasets</title>
<g id="a_node3"><a xlink:href="../../tables/METADATA_Datasets.html" xlink:title="METADATA_Datasets" target="_top">
<polygon fill="#ffffff" stroke="transparent" points="8,-95.7 8,-178.7 160,-178.7 160,-95.7 8,-95.7"/>
<polygon fill="#f5f5f5" stroke="transparent" points="8,-155.2 8,-178.2 160,-178.2 160,-155.2 8,-155.2"/>
<polygon fill="none" stroke="#000000" points="8,-155.2 8,-178.2 160,-178.2 160,-155.2 8,-155.2"/>
<text text-anchor="start" x="12.7997" y="-164.3" font-family="Helvetica,sans-Serif" font-weight="bold" font-size="11.00" fill="#000000">METADATA_Datasets</text>
<text text-anchor="start" x="125.5219" y="-163.3" font-family="Helvetica,sans-Serif" font-size="11.00" fill="#000000">[table]</text>
<polygon fill="none" stroke="#000000" points="8,-133.2 8,-155.2 160,-155.2 160,-133.2 8,-133.2"/>
<image xlink:href="../../images/primaryKeys.png" width="11px" height="12px" preserveAspectRatio="xMinYMin meet" x="13" y="-150.2"/>
<text text-anchor="start" x="32" y="-140.3" font-family="Helvetica,sans-Serif" font-size="11.00" fill="#000000">DS_ID</text>
<polygon fill="none" stroke="#000000" points="8,-114.2 8,-133.2 160,-133.2 160,-114.2 8,-114.2"/>
<text text-anchor="start" x="11" y="-120.3" font-family="Helvetica,sans-Serif" font-size="11.00" fill="#000000">...</text>
<polygon fill="#ffffff" stroke="transparent" points="8,-95.2 8,-114.2 57,-114.2 57,-95.2 8,-95.2"/>
<polygon fill="none" stroke="#000000" points="8,-95.2 8,-114.2 57,-114.2 57,-95.2 8,-95.2"/>
<text text-anchor="start" x="11" y="-101.3" font-family="Helvetica,sans-Serif" font-size="11.00" fill="#000000"> &#160;</text>
<polygon fill="#ffffff" stroke="transparent" points="57,-95.2 57,-114.2 114,-114.2 114,-95.2 57,-95.2"/>
<polygon fill="none" stroke="#000000" points="57,-95.2 57,-114.2 114,-114.2 114,-95.2 57,-95.2"/>
<text text-anchor="start" x="78.6105" y="-101.3" font-family="Helvetica,sans-Serif" font-size="11.00" fill="#000000">0 rows</text>
<polygon fill="#ffffff" stroke="transparent" points="114,-95.2 114,-114.2 160,-114.2 160,-95.2 114,-95.2"/>
<polygon fill="none" stroke="#000000" points="114,-95.2 114,-114.2 160,-114.2 160,-95.2 114,-95.2"/>
<text text-anchor="start" x="135.2904" y="-101.3" font-family="Helvetica,sans-Serif" font-size="11.00" fill="#000000">43 &gt;</text>
</a>
</g>
</g>
<!-- PAIRING_PT_NOMRUP_temp&#45;&gt;METADATA_Datasets -->
<g id="edge2" class="edge">
<title>PAIRING_PT_NOMRUP_temp:w&#45;&gt;METADATA_Datasets:e</title>
<path fill="none" stroke="#000000" d="M342.859,-95.1447C298.6852,-106.145 169.6833,-144.2 160,-144.2"/>
<polygon fill="#000000" stroke="#000000" points="349.168,-93.831 357.7339,-95.7244 353.084,-93.0155 357,-92.2 357,-92.2 357,-92.2 353.084,-93.0155 356.2661,-88.6756 349.168,-93.831 349.168,-93.831"/>
<ellipse fill="none" stroke="#000000" cx="346.0352" cy="-94.4834" rx="3.2" ry="3.2"/>
</g>
<!-- PAIRING_PT_NOMRUP_temp&#45;&gt;METADATA_Datasets -->
<g id="edge4" class="edge">
<title>PAIRING_PT_NOMRUP_temp:w&#45;&gt;METADATA_Datasets:e</title>
<path fill="none" stroke="#000000" d="M342.227,-158.0614C266.4826,-156.6074 242.6332,-144.2 160,-144.2"/>
<polygon fill="#000000" stroke="#000000" points="349.0004,-158.1249 356.9662,-161.7998 353.0002,-158.1625 357,-158.2 357,-158.2 357,-158.2 353.0002,-158.1625 357.0338,-154.6002 349.0004,-158.1249 349.0004,-158.1249"/>
<ellipse fill="none" stroke="#000000" cx="345.8005" cy="-158.0949" rx="3.2" ry="3.2"/>
</g>
<!-- PTOBS_ID -->
<g id="node4" class="node">
<title>PTOBS_ID</title>
<g id="a_node4"><a xlink:href="../../tables/PTOBS_ID.html" xlink:title="PTOBS_ID" target="_top">
<polygon fill="#ffffff" stroke="transparent" points="209,-195.7 209,-322.7 306,-322.7 306,-195.7 209,-195.7"/>
<polygon fill="#f5f5f5" stroke="transparent" points="209.5,-299.2 209.5,-322.2 306.5,-322.2 306.5,-299.2 209.5,-299.2"/>
<polygon fill="none" stroke="#000000" points="209.5,-299.2 209.5,-322.2 306.5,-322.2 306.5,-299.2 209.5,-299.2"/>
<text text-anchor="start" x="214.3014" y="-308.3" font-family="Helvetica,sans-Serif" font-weight="bold" font-size="11.00" fill="#000000">PTOBS_ID</text>
<text text-anchor="start" x="272.0219" y="-307.3" font-family="Helvetica,sans-Serif" font-size="11.00" fill="#000000">[table]</text>
<polygon fill="none" stroke="#000000" points="209.5,-277.2 209.5,-299.2 306.5,-299.2 306.5,-277.2 209.5,-277.2"/>
<image xlink:href="../../images/primaryKeys.png" width="11px" height="12px" preserveAspectRatio="xMinYMin meet" x="214.5" y="-294.2"/>
<text text-anchor="start" x="232.5" y="-284.3" font-family="Helvetica,sans-Serif" font-size="11.00" fill="#000000">PT_ID</text>
<polygon fill="none" stroke="#000000" points="209.5,-255.2 209.5,-277.2 306.5,-277.2 306.5,-255.2 209.5,-255.2"/>
<image xlink:href="../../images/primaryKeys.png" width="11px" height="12px" preserveAspectRatio="xMinYMin meet" x="214.5" y="-272.2"/>
<text text-anchor="start" x="232.5" y="-262.3" font-family="Helvetica,sans-Serif" font-size="11.00" fill="#000000">EQ_ID</text>
<polygon fill="none" stroke="#000000" points="209.5,-233.2 209.5,-255.2 306.5,-255.2 306.5,-233.2 209.5,-233.2"/>
<image xlink:href="../../images/primaryKeys.png" width="11px" height="12px" preserveAspectRatio="xMinYMin meet" x="214.5" y="-250.2"/>
<text text-anchor="start" x="232.5" y="-240.3" font-family="Helvetica,sans-Serif" font-size="11.00" fill="#000000">DS_ID</text>
<polygon fill="none" stroke="#000000" points="209.5,-214.2 209.5,-233.2 306.5,-233.2 306.5,-214.2 209.5,-214.2"/>
<text text-anchor="start" x="212.5" y="-220.3" font-family="Helvetica,sans-Serif" font-size="11.00" fill="#000000">...</text>
<polygon fill="#ffffff" stroke="transparent" points="209.5,-195.2 209.5,-214.2 235.5,-214.2 235.5,-195.2 209.5,-195.2"/>
<polygon fill="none" stroke="#000000" points="209.5,-195.2 209.5,-214.2 235.5,-214.2 235.5,-195.2 209.5,-195.2"/>
<text text-anchor="start" x="212.5" y="-201.3" font-family="Helvetica,sans-Serif" font-size="11.00" fill="#000000">&lt; 2</text>
<polygon fill="#ffffff" stroke="transparent" points="235.5,-195.2 235.5,-214.2 276.5,-214.2 276.5,-195.2 235.5,-195.2"/>
<polygon fill="none" stroke="#000000" points="235.5,-195.2 235.5,-214.2 276.5,-214.2 276.5,-195.2 235.5,-195.2"/>
<text text-anchor="start" x="241.1105" y="-201.3" font-family="Helvetica,sans-Serif" font-size="11.00" fill="#000000">0 rows</text>
<polygon fill="#ffffff" stroke="transparent" points="276.5,-195.2 276.5,-214.2 306.5,-214.2 306.5,-195.2 276.5,-195.2"/>
<polygon fill="none" stroke="#000000" points="276.5,-195.2 276.5,-214.2 306.5,-214.2 306.5,-195.2 276.5,-195.2"/>
<text text-anchor="start" x="281.7904" y="-201.3" font-family="Helvetica,sans-Serif" font-size="11.00" fill="#000000">27 &gt;</text>
</a>
</g>
</g>
<!-- PAIRING_PT_NOMRUP_temp&#45;&gt;PTOBS_ID -->
<g id="edge3" class="edge">
<title>PAIRING_PT_NOMRUP_temp:w&#45;&gt;PTOBS_ID:e</title>
<path fill="none" stroke="#000000" d="M343.0232,-206.583C321.5651,-224.1081 344.7648,-288.2 306.5,-288.2"/>
<polygon fill="#000000" stroke="#000000" points="349.3665,-204.5938 358.0772,-205.6351 353.1833,-203.3969 357,-202.2 357,-202.2 357,-202.2 353.1833,-203.3969 355.9228,-198.7649 349.3665,-204.5938 349.3665,-204.5938"/>
<ellipse fill="none" stroke="#000000" cx="346.3131" cy="-205.5513" rx="3.2" ry="3.2"/>
</g>
<!-- PTOBS_ID&#45;&gt;METADATA_Events -->
<g id="edge6" class="edge">
<title>PTOBS_ID:w&#45;&gt;METADATA_Events:e</title>
<path fill="none" stroke="#000000" d="M194.9009,-264.9486C181.3667,-262.4756 173.7963,-257.2 155,-257.2"/>
<polygon fill="#000000" stroke="#000000" points="201.5292,-265.5167 209.1925,-269.7868 205.5146,-265.8584 209.5,-266.2 209.5,-266.2 209.5,-266.2 205.5146,-265.8584 209.8075,-262.6132 201.5292,-265.5167 201.5292,-265.5167"/>
<ellipse fill="none" stroke="#000000" cx="198.3409" cy="-265.2434" rx="3.2" ry="3.2"/>
</g>
<!-- PTOBS_ID&#45;&gt;METADATA_Datasets -->
<g id="edge5" class="edge">
<title>PTOBS_ID:w&#45;&gt;METADATA_Datasets:e</title>
<path fill="none" stroke="#000000" d="M195.499,-240.156C170.4854,-221.4476 203.5862,-144.2 160,-144.2"/>
<polygon fill="#000000" stroke="#000000" points="201.8142,-241.98 208.501,-247.6586 205.6571,-243.09 209.5,-244.2 209.5,-244.2 209.5,-244.2 205.6571,-243.09 210.499,-240.7414 201.8142,-241.98 201.8142,-241.98"/>
<ellipse fill="none" stroke="#000000" cx="198.7398" cy="-241.092" rx="3.2" ry="3.2"/>
</g>
</g>
</svg>
