<?xml version="1.0" encoding="UTF-8" standalone="no"?>
<!DOCTYPE svg PUBLIC "-//W3C//DTD SVG 1.1//EN"
 "http://www.w3.org/Graphics/SVG/1.1/DTD/svg11.dtd">
<!-- Generated by graphviz version 2.40.1 (20161225.0304)
 -->
<!-- Title: oneDegreeRelationshipsDiagram Pages: 1 -->
<svg width="614pt" height="316pt"
 viewBox="0.00 0.00 614.00 316.20" xmlns="http://www.w3.org/2000/svg" xmlns:xlink="http://www.w3.org/1999/xlink">
<g id="graph0" class="graph" transform="scale(1 1) rotate(0) translate(4 312.2)">
<title>oneDegreeRelationshipsDiagram</title>
<polygon fill="#ffffff" stroke="transparent" points="-4,4 -4,-312.2 610,-312.2 610,4 -4,4"/>
<text text-anchor="middle" x="72.4936" y="-7.3" font-family="Helvetica,sans-Serif" font-size="11.00" fill="#000000">Generated by SchemaSpy</text>
<!-- PTOBS_ID -->
<g id="node1" class="node">
<title>PTOBS_ID</title>
<g id="a_node1"><a xlink:href="../../tables/PTOBS_ID.html" xlink:title="PTOBS_ID" target="_top">
<polygon fill="#ffffff" stroke="transparent" points="209,-94.7 209,-221.7 306,-221.7 306,-94.7 209,-94.7"/>
<polygon fill="#f5f5f5" stroke="transparent" points="209.5,-198.2 209.5,-221.2 306.5,-221.2 306.5,-198.2 209.5,-198.2"/>
<polygon fill="none" stroke="#000000" points="209.5,-198.2 209.5,-221.2 306.5,-221.2 306.5,-198.2 209.5,-198.2"/>
<text text-anchor="start" x="214.3014" y="-207.3" font-family="Helvetica,sans-Serif" font-weight="bold" font-size="11.00" fill="#000000">PTOBS_ID</text>
<text text-anchor="start" x="272.0219" y="-206.3" font-family="Helvetica,sans-Serif" font-size="11.00" fill="#000000">[table]</text>
<polygon fill="none" stroke="#000000" points="209.5,-176.2 209.5,-198.2 306.5,-198.2 306.5,-176.2 209.5,-176.2"/>
<image xlink:href="../../images/primaryKeys.png" width="11px" height="12px" preserveAspectRatio="xMinYMin meet" x="214.5" y="-193.2"/>
<text text-anchor="start" x="232.5" y="-183.3" font-family="Helvetica,sans-Serif" font-size="11.00" fill="#000000">PT_ID</text>
<polygon fill="none" stroke="#000000" points="209.5,-154.2 209.5,-176.2 306.5,-176.2 306.5,-154.2 209.5,-154.2"/>
<image xlink:href="../../images/primaryKeys.png" width="11px" height="12px" preserveAspectRatio="xMinYMin meet" x="214.5" y="-171.2"/>
<text text-anchor="start" x="232.5" y="-161.3" font-family="Helvetica,sans-Serif" font-size="11.00" fill="#000000">EQ_ID</text>
<polygon fill="none" stroke="#000000" points="209.5,-132.2 209.5,-154.2 306.5,-154.2 306.5,-132.2 209.5,-132.2"/>
<image xlink:href="../../images/primaryKeys.png" width="11px" height="12px" preserveAspectRatio="xMinYMin meet" x="214.5" y="-149.2"/>
<text text-anchor="start" x="232.5" y="-139.3" font-family="Helvetica,sans-Serif" font-size="11.00" fill="#000000">DS_ID</text>
<polygon fill="none" stroke="#000000" points="209.5,-113.2 209.5,-132.2 306.5,-132.2 306.5,-113.2 209.5,-113.2"/>
<text text-anchor="start" x="212.5" y="-119.3" font-family="Helvetica,sans-Serif" font-size="11.00" fill="#000000">...</text>
<polygon fill="#ffffff" stroke="transparent" points="209.5,-94.2 209.5,-113.2 235.5,-113.2 235.5,-94.2 209.5,-94.2"/>
<polygon fill="none" stroke="#000000" points="209.5,-94.2 209.5,-113.2 235.5,-113.2 235.5,-94.2 209.5,-94.2"/>
<text text-anchor="start" x="212.5" y="-100.3" font-family="Helvetica,sans-Serif" font-size="11.00" fill="#000000">&lt; 2</text>
<polygon fill="#ffffff" stroke="transparent" points="235.5,-94.2 235.5,-113.2 276.5,-113.2 276.5,-94.2 235.5,-94.2"/>
<polygon fill="none" stroke="#000000" points="235.5,-94.2 235.5,-113.2 276.5,-113.2 276.5,-94.2 235.5,-94.2"/>
<text text-anchor="start" x="241.1105" y="-100.3" font-family="Helvetica,sans-Serif" font-size="11.00" fill="#000000">0 rows</text>
<polygon fill="#ffffff" stroke="transparent" points="276.5,-94.2 276.5,-113.2 306.5,-113.2 306.5,-94.2 276.5,-94.2"/>
<polygon fill="none" stroke="#000000" points="276.5,-94.2 276.5,-113.2 306.5,-113.2 306.5,-94.2 276.5,-94.2"/>
<text text-anchor="start" x="281.7904" y="-100.3" font-family="Helvetica,sans-Serif" font-size="11.00" fill="#000000">27 &gt;</text>
</a>
</g>
</g>
<!-- METADATA_Datasets -->
<g id="node2" class="node">
<title>METADATA_Datasets</title>
<g id="a_node2"><a xlink:href="../../tables/METADATA_Datasets.html" xlink:title="METADATA_Datasets" target="_top">
<polygon fill="#ffffff" stroke="transparent" points="8,-179.7 8,-262.7 160,-262.7 160,-179.7 8,-179.7"/>
<polygon fill="#f5f5f5" stroke="transparent" points="8,-239.2 8,-262.2 160,-262.2 160,-239.2 8,-239.2"/>
<polygon fill="none" stroke="#000000" points="8,-239.2 8,-262.2 160,-262.2 160,-239.2 8,-239.2"/>
<text text-anchor="start" x="12.7997" y="-248.3" font-family="Helvetica,sans-Serif" font-weight="bold" font-size="11.00" fill="#000000">METADATA_Datasets</text>
<text text-anchor="start" x="125.5219" y="-247.3" font-family="Helvetica,sans-Serif" font-size="11.00" fill="#000000">[table]</text>
<polygon fill="none" stroke="#000000" points="8,-217.2 8,-239.2 160,-239.2 160,-217.2 8,-217.2"/>
<image xlink:href="../../images/primaryKeys.png" width="11px" height="12px" preserveAspectRatio="xMinYMin meet" x="13" y="-234.2"/>
<text text-anchor="start" x="32" y="-224.3" font-family="Helvetica,sans-Serif" font-size="11.00" fill="#000000">DS_ID</text>
<polygon fill="none" stroke="#000000" points="8,-198.2 8,-217.2 160,-217.2 160,-198.2 8,-198.2"/>
<text text-anchor="start" x="11" y="-204.3" font-family="Helvetica,sans-Serif" font-size="11.00" fill="#000000">...</text>
<polygon fill="#ffffff" stroke="transparent" points="8,-179.2 8,-198.2 57,-198.2 57,-179.2 8,-179.2"/>
<polygon fill="none" stroke="#000000" points="8,-179.2 8,-198.2 57,-198.2 57,-179.2 8,-179.2"/>
<text text-anchor="start" x="11" y="-185.3" font-family="Helvetica,sans-Serif" font-size="11.00" fill="#000000"> &#160;</text>
<polygon fill="#ffffff" stroke="transparent" points="57,-179.2 57,-198.2 114,-198.2 114,-179.2 57,-179.2"/>
<polygon fill="none" stroke="#000000" points="57,-179.2 57,-198.2 114,-198.2 114,-179.2 57,-179.2"/>
<text text-anchor="start" x="78.6105" y="-185.3" font-family="Helvetica,sans-Serif" font-size="11.00" fill="#000000">0 rows</text>
<polygon fill="#ffffff" stroke="transparent" points="114,-179.2 114,-198.2 160,-198.2 160,-179.2 114,-179.2"/>
<polygon fill="none" stroke="#000000" points="114,-179.2 114,-198.2 160,-198.2 160,-179.2 114,-179.2"/>
<text text-anchor="start" x="135.2904" y="-185.3" font-family="Helvetica,sans-Serif" font-size="11.00" fill="#000000">43 &gt;</text>
</a>
</g>
</g>
<!-- PTOBS_ID&#45;&gt;METADATA_Datasets -->
<g id="edge1" class="edge">
<title>PTOBS_ID:w&#45;&gt;METADATA_Datasets:e</title>
<path fill="none" stroke="#000000" d="M195.7306,-147.532C174.6294,-164.8534 197.7399,-228.2 160,-228.2"/>
<polygon fill="#000000" stroke="#000000" points="201.8688,-145.6009 210.5804,-146.6341 205.6844,-144.4005 209.5,-143.2 209.5,-143.2 209.5,-143.2 205.6844,-144.4005 208.4196,-139.7659 201.8688,-145.6009 201.8688,-145.6009"/>
<ellipse fill="none" stroke="#000000" cx="198.8163" cy="-146.5613" rx="3.2" ry="3.2"/>
</g>
<!-- METADATA_Events -->
<g id="node3" class="node">
<title>METADATA_Events</title>
<g id="a_node3"><a xlink:href="../../tables/METADATA_Events.html" xlink:title="METADATA_Events" target="_top">
<polygon fill="#ffffff" stroke="transparent" points="13,-57.7 13,-140.7 155,-140.7 155,-57.7 13,-57.7"/>
<polygon fill="#f5f5f5" stroke="transparent" points="13,-117.2 13,-140.2 155,-140.2 155,-117.2 13,-117.2"/>
<polygon fill="none" stroke="#000000" points="13,-117.2 13,-140.2 155,-140.2 155,-117.2 13,-117.2"/>
<text text-anchor="start" x="17.6881" y="-126.3" font-family="Helvetica,sans-Serif" font-weight="bold" font-size="11.00" fill="#000000">METADATA_Events</text>
<text text-anchor="start" x="120.5219" y="-125.3" font-family="Helvetica,sans-Serif" font-size="11.00" fill="#000000">[table]</text>
<polygon fill="none" stroke="#000000" points="13,-95.2 13,-117.2 155,-117.2 155,-95.2 13,-95.2"/>
<image xlink:href="../../images/primaryKeys.png" width="11px" height="12px" preserveAspectRatio="xMinYMin meet" x="18" y="-112.2"/>
<text text-anchor="start" x="37" y="-102.3" font-family="Helvetica,sans-Serif" font-size="11.00" fill="#000000">EQ_ID</text>
<polygon fill="none" stroke="#000000" points="13,-76.2 13,-95.2 155,-95.2 155,-76.2 13,-76.2"/>
<text text-anchor="start" x="16" y="-82.3" font-family="Helvetica,sans-Serif" font-size="11.00" fill="#000000">...</text>
<polygon fill="#ffffff" stroke="transparent" points="13,-57.2 13,-76.2 57,-76.2 57,-57.2 13,-57.2"/>
<polygon fill="none" stroke="#000000" points="13,-57.2 13,-76.2 57,-76.2 57,-57.2 13,-57.2"/>
<text text-anchor="start" x="16" y="-63.3" font-family="Helvetica,sans-Serif" font-size="11.00" fill="#000000"> &#160;</text>
<polygon fill="#ffffff" stroke="transparent" points="57,-57.2 57,-76.2 111,-76.2 111,-57.2 57,-57.2"/>
<polygon fill="none" stroke="#000000" points="57,-57.2 57,-76.2 111,-76.2 111,-57.2 57,-57.2"/>
<text text-anchor="start" x="75.6105" y="-63.3" font-family="Helvetica,sans-Serif" font-size="11.00" fill="#000000">0 rows</text>
<polygon fill="#ffffff" stroke="transparent" points="111,-57.2 111,-76.2 155,-76.2 155,-57.2 111,-57.2"/>
<polygon fill="none" stroke="#000000" points="111,-57.2 111,-76.2 155,-76.2 155,-57.2 111,-57.2"/>
<text text-anchor="start" x="130.2904" y="-63.3" font-family="Helvetica,sans-Serif" font-size="11.00" fill="#000000">40 &gt;</text>
</a>
</g>
</g>
<!-- PTOBS_ID&#45;&gt;METADATA_Events -->
<g id="edge2" class="edge">
<title>PTOBS_ID:w&#45;&gt;METADATA_Events:e</title>
<path fill="none" stroke="#000000" d="M195.7124,-160.9569C177.9305,-147.4287 184.841,-106.2 155,-106.2"/>
<polygon fill="#000000" stroke="#000000" points="201.8539,-162.8469 208.4411,-168.6407 205.6769,-164.0234 209.5,-165.2 209.5,-165.2 209.5,-165.2 205.6769,-164.0234 210.5589,-161.7593 201.8539,-162.8469 201.8539,-162.8469"/>
<ellipse fill="none" stroke="#000000" cx="198.7954" cy="-161.9056" rx="3.2" ry="3.2"/>
</g>
<!-- PTOBS_Off_VS -->
<g id="node4" class="node">
<title>PTOBS_Off_VS</title>
<g id="a_node4"><a xlink:href="../../tables/PTOBS_Off_VS.html" xlink:title="PTOBS_Off_VS" target="_top">
<polygon fill="#ffffff" stroke="transparent" points="355,-38.2 355,-304.2 598,-304.2 598,-38.2 355,-38.2"/>
<polygon fill="#f5f5f5" stroke="transparent" points="357.5,-279.2 357.5,-302.2 596.5,-302.2 596.5,-279.2 357.5,-279.2"/>
<polygon fill="none" stroke="#000000" points="357.5,-279.2 357.5,-302.2 596.5,-302.2 596.5,-279.2 357.5,-279.2"/>
<text text-anchor="start" x="362.5" y="-288.3" font-family="Helvetica,sans-Serif" font-weight="bold" font-size="11.00" fill="#000000">PTOBS_Off_VS</text>
<text text-anchor="start" x="561.5437" y="-287.3" font-family="Helvetica,sans-Serif" font-size="11.00" fill="#000000">[table]</text>
<polygon fill="none" stroke="#000000" points="357.5,-257.2 357.5,-279.2 466.5,-279.2 466.5,-257.2 357.5,-257.2"/>
<text text-anchor="start" x="377.5" y="-264.3" font-family="Helvetica,sans-Serif" font-size="11.00" fill="#000000">Source_File</text>
<polygon fill="none" stroke="#000000" points="466.5,-257.2 466.5,-279.2 596.5,-279.2 596.5,-257.2 466.5,-257.2"/>
<text text-anchor="start" x="469.5" y="-264.9" font-family="Helvetica,sans-Serif" font-size="11.00" fill="#000000">text[2000000000,10]</text>
<polygon fill="none" stroke="#000000" points="357.5,-235.2 357.5,-257.2 466.5,-257.2 466.5,-235.2 357.5,-235.2"/>
<image xlink:href="../../images/primaryKeys.png" width="11px" height="12px" preserveAspectRatio="xMinYMin meet" x="362.5" y="-252.2"/>
<text text-anchor="start" x="377.5" y="-242.3" font-family="Helvetica,sans-Serif" font-size="11.00" fill="#000000">DS_ID</text>
<polygon fill="none" stroke="#000000" points="466.5,-235.2 466.5,-257.2 596.5,-257.2 596.5,-235.2 466.5,-235.2"/>
<text text-anchor="start" x="469.5" y="-242.9" font-family="Helvetica,sans-Serif" font-size="11.00" fill="#000000">integer[2000000000,10]</text>
<polygon fill="none" stroke="#000000" points="357.5,-213.2 357.5,-235.2 466.5,-235.2 466.5,-213.2 357.5,-213.2"/>
<text text-anchor="start" x="377.5" y="-220.3" font-family="Helvetica,sans-Serif" font-size="11.00" fill="#000000">Off_VS_High</text>
<polygon fill="none" stroke="#000000" points="466.5,-213.2 466.5,-235.2 596.5,-235.2 596.5,-213.2 466.5,-213.2"/>
<text text-anchor="start" x="469.5" y="-220.9" font-family="Helvetica,sans-Serif" font-size="11.00" fill="#000000">float[2000000000,10]</text>
<polygon fill="none" stroke="#000000" points="357.5,-191.2 357.5,-213.2 466.5,-213.2 466.5,-191.2 357.5,-191.2"/>
<text text-anchor="start" x="377.5" y="-198.3" font-family="Helvetica,sans-Serif" font-size="11.00" fill="#000000">Off_VS_Central</text>
<polygon fill="none" stroke="#000000" points="466.5,-191.2 466.5,-213.2 596.5,-213.2 596.5,-191.2 466.5,-191.2"/>
<text text-anchor="start" x="469.5" y="-198.9" font-family="Helvetica,sans-Serif" font-size="11.00" fill="#000000">float[2000000000,10]</text>
<polygon fill="none" stroke="#000000" points="357.5,-169.2 357.5,-191.2 466.5,-191.2 466.5,-169.2 357.5,-169.2"/>
<image xlink:href="../../images/primaryKeys.png" width="11px" height="12px" preserveAspectRatio="xMinYMin meet" x="362.5" y="-186.2"/>
<text text-anchor="start" x="377.5" y="-176.3" font-family="Helvetica,sans-Serif" font-size="11.00" fill="#000000">PT_ID</text>
<polygon fill="none" stroke="#000000" points="466.5,-169.2 466.5,-191.2 596.5,-191.2 596.5,-169.2 466.5,-169.2"/>
<text text-anchor="start" x="469.5" y="-176.9" font-family="Helvetica,sans-Serif" font-size="11.00" fill="#000000">integer[2000000000,10]</text>
<polygon fill="none" stroke="#000000" points="357.5,-147.2 357.5,-169.2 466.5,-169.2 466.5,-147.2 357.5,-147.2"/>
<image xlink:href="../../images/primaryKeys.png" width="11px" height="12px" preserveAspectRatio="xMinYMin meet" x="362.5" y="-164.2"/>
<text text-anchor="start" x="377.5" y="-154.3" font-family="Helvetica,sans-Serif" font-size="11.00" fill="#000000">EQ_ID</text>
<polygon fill="none" stroke="#000000" points="466.5,-147.2 466.5,-169.2 596.5,-169.2 596.5,-147.2 466.5,-147.2"/>
<text text-anchor="start" x="469.5" y="-154.9" font-family="Helvetica,sans-Serif" font-size="11.00" fill="#000000">integer[2000000000,10]</text>
<polygon fill="none" stroke="#000000" points="357.5,-125.2 357.5,-147.2 466.5,-147.2 466.5,-125.2 357.5,-125.2"/>
<text text-anchor="start" x="377.5" y="-132.3" font-family="Helvetica,sans-Serif" font-size="11.00" fill="#000000">Off_VS_flag</text>
<polygon fill="none" stroke="#000000" points="466.5,-125.2 466.5,-147.2 596.5,-147.2 596.5,-125.2 466.5,-125.2"/>
<text text-anchor="start" x="469.5" y="-132.9" font-family="Helvetica,sans-Serif" font-size="11.00" fill="#000000">float[2000000000,10]</text>
<polygon fill="none" stroke="#000000" points="357.5,-103.2 357.5,-125.2 466.5,-125.2 466.5,-103.2 357.5,-103.2"/>
<text text-anchor="start" x="377.5" y="-110.3" font-family="Helvetica,sans-Serif" font-size="11.00" fill="#000000">Date_Added</text>
<polygon fill="none" stroke="#000000" points="466.5,-103.2 466.5,-125.2 596.5,-125.2 596.5,-103.2 466.5,-103.2"/>
<text text-anchor="start" x="469.1372" y="-110.9" font-family="Helvetica,sans-Serif" font-size="11.00" fill="#000000">datetime[2000000000,10]</text>
<polygon fill="none" stroke="#000000" points="357.5,-81.2 357.5,-103.2 466.5,-103.2 466.5,-81.2 357.5,-81.2"/>
<text text-anchor="start" x="377.5" y="-88.3" font-family="Helvetica,sans-Serif" font-size="11.00" fill="#000000">Off_VS_Low</text>
<polygon fill="none" stroke="#000000" points="466.5,-81.2 466.5,-103.2 596.5,-103.2 596.5,-81.2 466.5,-81.2"/>
<text text-anchor="start" x="469.5" y="-88.9" font-family="Helvetica,sans-Serif" font-size="11.00" fill="#000000">float[2000000000,10]</text>
<polygon fill="none" stroke="#000000" points="357.5,-59.2 357.5,-81.2 466.5,-81.2 466.5,-59.2 357.5,-59.2"/>
<text text-anchor="start" x="377.5" y="-66.3" font-family="Helvetica,sans-Serif" font-size="11.00" fill="#000000">Downside</text>
<polygon fill="none" stroke="#000000" points="466.5,-59.2 466.5,-81.2 596.5,-81.2 596.5,-59.2 466.5,-59.2"/>
<text text-anchor="start" x="469.5" y="-66.9" font-family="Helvetica,sans-Serif" font-size="11.00" fill="#000000">text[2000000000,10]</text>
<polygon fill="#ffffff" stroke="transparent" points="357.5,-40.2 357.5,-59.2 403.5,-59.2 403.5,-40.2 357.5,-40.2"/>
<polygon fill="none" stroke="#000000" points="357.5,-40.2 357.5,-59.2 403.5,-59.2 403.5,-40.2 357.5,-40.2"/>
<text text-anchor="start" x="360.5" y="-46.3" font-family="Helvetica,sans-Serif" font-size="11.00" fill="#000000">&lt; 3</text>
<polygon fill="#ffffff" stroke="transparent" points="403.5,-40.2 403.5,-59.2 466.5,-59.2 466.5,-40.2 403.5,-40.2"/>
<polygon fill="none" stroke="#000000" points="403.5,-40.2 403.5,-59.2 466.5,-59.2 466.5,-40.2 403.5,-40.2"/>
<text text-anchor="start" x="431.1105" y="-46.3" font-family="Helvetica,sans-Serif" font-size="11.00" fill="#000000">0 rows</text>
<polygon fill="#ffffff" stroke="transparent" points="466.5,-40.2 466.5,-59.2 596.5,-59.2 596.5,-40.2 466.5,-40.2"/>
<polygon fill="none" stroke="#000000" points="466.5,-40.2 466.5,-59.2 596.5,-59.2 596.5,-40.2 466.5,-40.2"/>
<text text-anchor="start" x="577.9053" y="-46.3" font-family="Helvetica,sans-Serif" font-size="11.00" fill="#000000">0 &gt;</text>
<polygon fill="none" stroke="#000000" stroke-width="2" points="356,-39.2 356,-303.2 597,-303.2 597,-39.2 356,-39.2"/>
</a>
</g>
</g>
<!-- PTOBS_Off_VS&#45;&gt;PTOBS_ID -->
<g id="edge5" class="edge">
<title>PTOBS_Off_VS:w&#45;&gt;PTOBS_ID:e</title>
<path fill="none" stroke="#000000" d="M343.0965,-181.2938C330.8977,-183.2625 323.6594,-187.2 306.5,-187.2"/>
<polygon fill="#000000" stroke="#000000" points="349.523,-180.8058 357.7726,-183.7897 353.5115,-180.5029 357.5,-180.2 357.5,-180.2 357.5,-180.2 353.5115,-180.5029 357.2274,-176.6103 349.523,-180.8058 349.523,-180.8058"/>
<ellipse fill="none" stroke="#000000" cx="346.3322" cy="-181.0481" rx="3.2" ry="3.2"/>
</g>
<!-- PTOBS_Off_VS&#45;&gt;METADATA_Datasets -->
<g id="edge3" class="edge">
<title>PTOBS_Off_VS:w&#45;&gt;METADATA_Datasets:e</title>
<path fill="none" stroke="#000000" d="M342.779,-246.0796C284.8344,-245.0924 265.3696,-238.219 201,-232.2 182.7708,-230.4954 178.3087,-228.2 160,-228.2"/>
<polygon fill="#000000" stroke="#000000" points="349.5003,-246.1345 357.4705,-249.7999 353.5001,-246.1672 357.5,-246.2 357.5,-246.2 357.5,-246.2 353.5001,-246.1672 357.5295,-242.6001 349.5003,-246.1345 349.5003,-246.1345"/>
<ellipse fill="none" stroke="#000000" cx="346.3004" cy="-246.1083" rx="3.2" ry="3.2"/>
</g>
<!-- PTOBS_Off_VS&#45;&gt;METADATA_Events -->
<g id="edge4" class="edge">
<title>PTOBS_Off_VS:w&#45;&gt;METADATA_Events:e</title>
<path fill="none" stroke="#000000" d="M343.4855,-154.157C326.821,-141.1072 341.681,-100.0374 314,-84.2 270.4083,-59.2594 249.9781,-73.0905 201,-84.2 178.8991,-89.2131 177.6623,-106.2 155,-106.2"/>
<polygon fill="#000000" stroke="#000000" points="349.8135,-155.9825 356.5021,-161.6589 353.6567,-157.0912 357.5,-158.2 357.5,-158.2 357.5,-158.2 353.6567,-157.0912 358.4979,-154.7411 349.8135,-155.9825 349.8135,-155.9825"/>
<ellipse fill="none" stroke="#000000" cx="346.7389" cy="-155.0955" rx="3.2" ry="3.2"/>
</g>
</g>
</svg>
