<?xml version="1.0" encoding="UTF-8" standalone="no"?>
<!DOCTYPE svg PUBLIC "-//W3C//DTD SVG 1.1//EN"
 "http://www.w3.org/Graphics/SVG/1.1/DTD/svg11.dtd">
<!-- Generated by graphviz version 2.40.1 (20161225.0304)
 -->
<!-- Title: oneDegreeRelationshipsDiagram Pages: 1 -->
<svg width="621pt" height="316pt"
 viewBox="0.00 0.00 621.00 316.20" xmlns="http://www.w3.org/2000/svg" xmlns:xlink="http://www.w3.org/1999/xlink">
<g id="graph0" class="graph" transform="scale(1 1) rotate(0) translate(4 312.2)">
<title>oneDegreeRelationshipsDiagram</title>
<polygon fill="#ffffff" stroke="transparent" points="-4,4 -4,-312.2 617,-312.2 617,4 -4,4"/>
<text text-anchor="middle" x="72.4936" y="-7.3" font-family="Helvetica,sans-Serif" font-size="11.00" fill="#000000">Generated by SchemaSpy</text>
<!-- PTOBS_ID -->
<g id="node1" class="node">
<title>PTOBS_ID</title>
<g id="a_node1"><a xlink:href="../../tables/PTOBS_ID.html" xlink:title="PTOBS_ID" target="_top">
<polygon fill="#ffffff" stroke="transparent" points="209,-109.7 209,-236.7 306,-236.7 306,-109.7 209,-109.7"/>
<polygon fill="#f5f5f5" stroke="transparent" points="209.5,-213.2 209.5,-236.2 306.5,-236.2 306.5,-213.2 209.5,-213.2"/>
<polygon fill="none" stroke="#000000" points="209.5,-213.2 209.5,-236.2 306.5,-236.2 306.5,-213.2 209.5,-213.2"/>
<text text-anchor="start" x="214.3014" y="-222.3" font-family="Helvetica,sans-Serif" font-weight="bold" font-size="11.00" fill="#000000">PTOBS_ID</text>
<text text-anchor="start" x="272.0219" y="-221.3" font-family="Helvetica,sans-Serif" font-size="11.00" fill="#000000">[table]</text>
<polygon fill="none" stroke="#000000" points="209.5,-191.2 209.5,-213.2 306.5,-213.2 306.5,-191.2 209.5,-191.2"/>
<image xlink:href="../../images/primaryKeys.png" width="11px" height="12px" preserveAspectRatio="xMinYMin meet" x="214.5" y="-208.2"/>
<text text-anchor="start" x="232.5" y="-198.3" font-family="Helvetica,sans-Serif" font-size="11.00" fill="#000000">PT_ID</text>
<polygon fill="none" stroke="#000000" points="209.5,-169.2 209.5,-191.2 306.5,-191.2 306.5,-169.2 209.5,-169.2"/>
<image xlink:href="../../images/primaryKeys.png" width="11px" height="12px" preserveAspectRatio="xMinYMin meet" x="214.5" y="-186.2"/>
<text text-anchor="start" x="232.5" y="-176.3" font-family="Helvetica,sans-Serif" font-size="11.00" fill="#000000">EQ_ID</text>
<polygon fill="none" stroke="#000000" points="209.5,-147.2 209.5,-169.2 306.5,-169.2 306.5,-147.2 209.5,-147.2"/>
<image xlink:href="../../images/primaryKeys.png" width="11px" height="12px" preserveAspectRatio="xMinYMin meet" x="214.5" y="-164.2"/>
<text text-anchor="start" x="232.5" y="-154.3" font-family="Helvetica,sans-Serif" font-size="11.00" fill="#000000">DS_ID</text>
<polygon fill="none" stroke="#000000" points="209.5,-128.2 209.5,-147.2 306.5,-147.2 306.5,-128.2 209.5,-128.2"/>
<text text-anchor="start" x="212.5" y="-134.3" font-family="Helvetica,sans-Serif" font-size="11.00" fill="#000000">...</text>
<polygon fill="#ffffff" stroke="transparent" points="209.5,-109.2 209.5,-128.2 235.5,-128.2 235.5,-109.2 209.5,-109.2"/>
<polygon fill="none" stroke="#000000" points="209.5,-109.2 209.5,-128.2 235.5,-128.2 235.5,-109.2 209.5,-109.2"/>
<text text-anchor="start" x="212.5" y="-115.3" font-family="Helvetica,sans-Serif" font-size="11.00" fill="#000000">&lt; 2</text>
<polygon fill="#ffffff" stroke="transparent" points="235.5,-109.2 235.5,-128.2 276.5,-128.2 276.5,-109.2 235.5,-109.2"/>
<polygon fill="none" stroke="#000000" points="235.5,-109.2 235.5,-128.2 276.5,-128.2 276.5,-109.2 235.5,-109.2"/>
<text text-anchor="start" x="241.1105" y="-115.3" font-family="Helvetica,sans-Serif" font-size="11.00" fill="#000000">0 rows</text>
<polygon fill="#ffffff" stroke="transparent" points="276.5,-109.2 276.5,-128.2 306.5,-128.2 306.5,-109.2 276.5,-109.2"/>
<polygon fill="none" stroke="#000000" points="276.5,-109.2 276.5,-128.2 306.5,-128.2 306.5,-109.2 276.5,-109.2"/>
<text text-anchor="start" x="281.7904" y="-115.3" font-family="Helvetica,sans-Serif" font-size="11.00" fill="#000000">27 &gt;</text>
</a>
</g>
</g>
<!-- METADATA_Datasets -->
<g id="node2" class="node">
<title>METADATA_Datasets</title>
<g id="a_node2"><a xlink:href="../../tables/METADATA_Datasets.html" xlink:title="METADATA_Datasets" target="_top">
<polygon fill="#ffffff" stroke="transparent" points="8,-194.7 8,-277.7 160,-277.7 160,-194.7 8,-194.7"/>
<polygon fill="#f5f5f5" stroke="transparent" points="8,-254.2 8,-277.2 160,-277.2 160,-254.2 8,-254.2"/>
<polygon fill="none" stroke="#000000" points="8,-254.2 8,-277.2 160,-277.2 160,-254.2 8,-254.2"/>
<text text-anchor="start" x="12.7997" y="-263.3" font-family="Helvetica,sans-Serif" font-weight="bold" font-size="11.00" fill="#000000">METADATA_Datasets</text>
<text text-anchor="start" x="125.5219" y="-262.3" font-family="Helvetica,sans-Serif" font-size="11.00" fill="#000000">[table]</text>
<polygon fill="none" stroke="#000000" points="8,-232.2 8,-254.2 160,-254.2 160,-232.2 8,-232.2"/>
<image xlink:href="../../images/primaryKeys.png" width="11px" height="12px" preserveAspectRatio="xMinYMin meet" x="13" y="-249.2"/>
<text text-anchor="start" x="32" y="-239.3" font-family="Helvetica,sans-Serif" font-size="11.00" fill="#000000">DS_ID</text>
<polygon fill="none" stroke="#000000" points="8,-213.2 8,-232.2 160,-232.2 160,-213.2 8,-213.2"/>
<text text-anchor="start" x="11" y="-219.3" font-family="Helvetica,sans-Serif" font-size="11.00" fill="#000000">...</text>
<polygon fill="#ffffff" stroke="transparent" points="8,-194.2 8,-213.2 57,-213.2 57,-194.2 8,-194.2"/>
<polygon fill="none" stroke="#000000" points="8,-194.2 8,-213.2 57,-213.2 57,-194.2 8,-194.2"/>
<text text-anchor="start" x="11" y="-200.3" font-family="Helvetica,sans-Serif" font-size="11.00" fill="#000000"> &#160;</text>
<polygon fill="#ffffff" stroke="transparent" points="57,-194.2 57,-213.2 114,-213.2 114,-194.2 57,-194.2"/>
<polygon fill="none" stroke="#000000" points="57,-194.2 57,-213.2 114,-213.2 114,-194.2 57,-194.2"/>
<text text-anchor="start" x="78.6105" y="-200.3" font-family="Helvetica,sans-Serif" font-size="11.00" fill="#000000">0 rows</text>
<polygon fill="#ffffff" stroke="transparent" points="114,-194.2 114,-213.2 160,-213.2 160,-194.2 114,-194.2"/>
<polygon fill="none" stroke="#000000" points="114,-194.2 114,-213.2 160,-213.2 160,-194.2 114,-194.2"/>
<text text-anchor="start" x="135.2904" y="-200.3" font-family="Helvetica,sans-Serif" font-size="11.00" fill="#000000">43 &gt;</text>
</a>
</g>
</g>
<!-- PTOBS_ID&#45;&gt;METADATA_Datasets -->
<g id="edge1" class="edge">
<title>PTOBS_ID:w&#45;&gt;METADATA_Datasets:e</title>
<path fill="none" stroke="#000000" d="M195.7306,-162.532C174.6294,-179.8534 197.7399,-243.2 160,-243.2"/>
<polygon fill="#000000" stroke="#000000" points="201.8688,-160.6009 210.5804,-161.6341 205.6844,-159.4005 209.5,-158.2 209.5,-158.2 209.5,-158.2 205.6844,-159.4005 208.4196,-154.7659 201.8688,-160.6009 201.8688,-160.6009"/>
<ellipse fill="none" stroke="#000000" cx="198.8163" cy="-161.5613" rx="3.2" ry="3.2"/>
</g>
<!-- METADATA_Events -->
<g id="node3" class="node">
<title>METADATA_Events</title>
<g id="a_node3"><a xlink:href="../../tables/METADATA_Events.html" xlink:title="METADATA_Events" target="_top">
<polygon fill="#ffffff" stroke="transparent" points="13,-72.7 13,-155.7 155,-155.7 155,-72.7 13,-72.7"/>
<polygon fill="#f5f5f5" stroke="transparent" points="13,-132.2 13,-155.2 155,-155.2 155,-132.2 13,-132.2"/>
<polygon fill="none" stroke="#000000" points="13,-132.2 13,-155.2 155,-155.2 155,-132.2 13,-132.2"/>
<text text-anchor="start" x="17.6881" y="-141.3" font-family="Helvetica,sans-Serif" font-weight="bold" font-size="11.00" fill="#000000">METADATA_Events</text>
<text text-anchor="start" x="120.5219" y="-140.3" font-family="Helvetica,sans-Serif" font-size="11.00" fill="#000000">[table]</text>
<polygon fill="none" stroke="#000000" points="13,-110.2 13,-132.2 155,-132.2 155,-110.2 13,-110.2"/>
<image xlink:href="../../images/primaryKeys.png" width="11px" height="12px" preserveAspectRatio="xMinYMin meet" x="18" y="-127.2"/>
<text text-anchor="start" x="37" y="-117.3" font-family="Helvetica,sans-Serif" font-size="11.00" fill="#000000">EQ_ID</text>
<polygon fill="none" stroke="#000000" points="13,-91.2 13,-110.2 155,-110.2 155,-91.2 13,-91.2"/>
<text text-anchor="start" x="16" y="-97.3" font-family="Helvetica,sans-Serif" font-size="11.00" fill="#000000">...</text>
<polygon fill="#ffffff" stroke="transparent" points="13,-72.2 13,-91.2 57,-91.2 57,-72.2 13,-72.2"/>
<polygon fill="none" stroke="#000000" points="13,-72.2 13,-91.2 57,-91.2 57,-72.2 13,-72.2"/>
<text text-anchor="start" x="16" y="-78.3" font-family="Helvetica,sans-Serif" font-size="11.00" fill="#000000"> &#160;</text>
<polygon fill="#ffffff" stroke="transparent" points="57,-72.2 57,-91.2 111,-91.2 111,-72.2 57,-72.2"/>
<polygon fill="none" stroke="#000000" points="57,-72.2 57,-91.2 111,-91.2 111,-72.2 57,-72.2"/>
<text text-anchor="start" x="75.6105" y="-78.3" font-family="Helvetica,sans-Serif" font-size="11.00" fill="#000000">0 rows</text>
<polygon fill="#ffffff" stroke="transparent" points="111,-72.2 111,-91.2 155,-91.2 155,-72.2 111,-72.2"/>
<polygon fill="none" stroke="#000000" points="111,-72.2 111,-91.2 155,-91.2 155,-72.2 111,-72.2"/>
<text text-anchor="start" x="130.2904" y="-78.3" font-family="Helvetica,sans-Serif" font-size="11.00" fill="#000000">40 &gt;</text>
</a>
</g>
</g>
<!-- PTOBS_ID&#45;&gt;METADATA_Events -->
<g id="edge2" class="edge">
<title>PTOBS_ID:w&#45;&gt;METADATA_Events:e</title>
<path fill="none" stroke="#000000" d="M195.7124,-175.9569C177.9305,-162.4287 184.841,-121.2 155,-121.2"/>
<polygon fill="#000000" stroke="#000000" points="201.8539,-177.8469 208.4411,-183.6407 205.6769,-179.0234 209.5,-180.2 209.5,-180.2 209.5,-180.2 205.6769,-179.0234 210.5589,-176.7593 201.8539,-177.8469 201.8539,-177.8469"/>
<ellipse fill="none" stroke="#000000" cx="198.7954" cy="-176.9056" rx="3.2" ry="3.2"/>
</g>
<!-- PTOBS_On_FNS -->
<g id="node4" class="node">
<title>PTOBS_On_FNS</title>
<g id="a_node4"><a xlink:href="../../tables/PTOBS_On_FNS.html" xlink:title="PTOBS_On_FNS" target="_top">
<polygon fill="#ffffff" stroke="transparent" points="355,-38.2 355,-304.2 605,-304.2 605,-38.2 355,-38.2"/>
<polygon fill="#f5f5f5" stroke="transparent" points="357,-279.2 357,-302.2 603,-302.2 603,-279.2 357,-279.2"/>
<polygon fill="none" stroke="#000000" points="357,-279.2 357,-302.2 603,-302.2 603,-279.2 357,-279.2"/>
<text text-anchor="start" x="362" y="-288.3" font-family="Helvetica,sans-Serif" font-weight="bold" font-size="11.00" fill="#000000">PTOBS_On_FNS</text>
<text text-anchor="start" x="568.0437" y="-287.3" font-family="Helvetica,sans-Serif" font-size="11.00" fill="#000000">[table]</text>
<polygon fill="none" stroke="#000000" points="357,-257.2 357,-279.2 473,-279.2 473,-257.2 357,-257.2"/>
<text text-anchor="start" x="377" y="-264.3" font-family="Helvetica,sans-Serif" font-size="11.00" fill="#000000">Source_File</text>
<polygon fill="none" stroke="#000000" points="473,-257.2 473,-279.2 603,-279.2 603,-257.2 473,-257.2"/>
<text text-anchor="start" x="476" y="-264.9" font-family="Helvetica,sans-Serif" font-size="11.00" fill="#000000">text[2000000000,10]</text>
<polygon fill="none" stroke="#000000" points="357,-235.2 357,-257.2 473,-257.2 473,-235.2 357,-235.2"/>
<image xlink:href="../../images/primaryKeys.png" width="11px" height="12px" preserveAspectRatio="xMinYMin meet" x="362" y="-252.2"/>
<text text-anchor="start" x="377" y="-242.3" font-family="Helvetica,sans-Serif" font-size="11.00" fill="#000000">DS_ID</text>
<polygon fill="none" stroke="#000000" points="473,-235.2 473,-257.2 603,-257.2 603,-235.2 473,-235.2"/>
<text text-anchor="start" x="476" y="-242.9" font-family="Helvetica,sans-Serif" font-size="11.00" fill="#000000">integer[2000000000,10]</text>
<polygon fill="none" stroke="#000000" points="357,-213.2 357,-235.2 473,-235.2 473,-213.2 357,-213.2"/>
<text text-anchor="start" x="377" y="-220.3" font-family="Helvetica,sans-Serif" font-size="11.00" fill="#000000">On_FNS_Central</text>
<polygon fill="none" stroke="#000000" points="473,-213.2 473,-235.2 603,-235.2 603,-213.2 473,-213.2"/>
<text text-anchor="start" x="476" y="-220.9" font-family="Helvetica,sans-Serif" font-size="11.00" fill="#000000">float[2000000000,10]</text>
<polygon fill="none" stroke="#000000" points="357,-191.2 357,-213.2 473,-213.2 473,-191.2 357,-191.2"/>
<image xlink:href="../../images/primaryKeys.png" width="11px" height="12px" preserveAspectRatio="xMinYMin meet" x="362" y="-208.2"/>
<text text-anchor="start" x="377" y="-198.3" font-family="Helvetica,sans-Serif" font-size="11.00" fill="#000000">PT_ID</text>
<polygon fill="none" stroke="#000000" points="473,-191.2 473,-213.2 603,-213.2 603,-191.2 473,-191.2"/>
<text text-anchor="start" x="476" y="-198.9" font-family="Helvetica,sans-Serif" font-size="11.00" fill="#000000">integer[2000000000,10]</text>
<polygon fill="none" stroke="#000000" points="357,-169.2 357,-191.2 473,-191.2 473,-169.2 357,-169.2"/>
<image xlink:href="../../images/primaryKeys.png" width="11px" height="12px" preserveAspectRatio="xMinYMin meet" x="362" y="-186.2"/>
<text text-anchor="start" x="377" y="-176.3" font-family="Helvetica,sans-Serif" font-size="11.00" fill="#000000">EQ_ID</text>
<polygon fill="none" stroke="#000000" points="473,-169.2 473,-191.2 603,-191.2 603,-169.2 473,-169.2"/>
<text text-anchor="start" x="476" y="-176.9" font-family="Helvetica,sans-Serif" font-size="11.00" fill="#000000">integer[2000000000,10]</text>
<polygon fill="none" stroke="#000000" points="357,-147.2 357,-169.2 473,-169.2 473,-147.2 357,-147.2"/>
<text text-anchor="start" x="377" y="-154.3" font-family="Helvetica,sans-Serif" font-size="11.00" fill="#000000">Date_Added</text>
<polygon fill="none" stroke="#000000" points="473,-147.2 473,-169.2 603,-169.2 603,-147.2 473,-147.2"/>
<text text-anchor="start" x="475.6372" y="-154.9" font-family="Helvetica,sans-Serif" font-size="11.00" fill="#000000">datetime[2000000000,10]</text>
<polygon fill="none" stroke="#000000" points="357,-125.2 357,-147.2 473,-147.2 473,-125.2 357,-125.2"/>
<text text-anchor="start" x="377" y="-132.3" font-family="Helvetica,sans-Serif" font-size="11.00" fill="#000000">On_FNS_Low</text>
<polygon fill="none" stroke="#000000" points="473,-125.2 473,-147.2 603,-147.2 603,-125.2 473,-125.2"/>
<text text-anchor="start" x="476" y="-132.9" font-family="Helvetica,sans-Serif" font-size="11.00" fill="#000000">float[2000000000,10]</text>
<polygon fill="none" stroke="#000000" points="357,-103.2 357,-125.2 473,-125.2 473,-103.2 357,-103.2"/>
<text text-anchor="start" x="377" y="-110.3" font-family="Helvetica,sans-Serif" font-size="11.00" fill="#000000">On_FNS_flag</text>
<polygon fill="none" stroke="#000000" points="473,-103.2 473,-125.2 603,-125.2 603,-103.2 473,-103.2"/>
<text text-anchor="start" x="476" y="-110.9" font-family="Helvetica,sans-Serif" font-size="11.00" fill="#000000">float[2000000000,10]</text>
<polygon fill="none" stroke="#000000" points="357,-81.2 357,-103.2 473,-103.2 473,-81.2 357,-81.2"/>
<text text-anchor="start" x="377" y="-88.3" font-family="Helvetica,sans-Serif" font-size="11.00" fill="#000000">On_FNS_High</text>
<polygon fill="none" stroke="#000000" points="473,-81.2 473,-103.2 603,-103.2 603,-81.2 473,-81.2"/>
<text text-anchor="start" x="476" y="-88.9" font-family="Helvetica,sans-Serif" font-size="11.00" fill="#000000">float[2000000000,10]</text>
<polygon fill="none" stroke="#000000" points="357,-59.2 357,-81.2 473,-81.2 473,-59.2 357,-59.2"/>
<text text-anchor="start" x="377" y="-66.3" font-family="Helvetica,sans-Serif" font-size="11.00" fill="#000000">Polarity</text>
<polygon fill="none" stroke="#000000" points="473,-59.2 473,-81.2 603,-81.2 603,-59.2 473,-59.2"/>
<text text-anchor="start" x="476" y="-66.9" font-family="Helvetica,sans-Serif" font-size="11.00" fill="#000000">text[2000000000,10]</text>
<polygon fill="#ffffff" stroke="transparent" points="357,-40.2 357,-59.2 406,-59.2 406,-40.2 357,-40.2"/>
<polygon fill="none" stroke="#000000" points="357,-40.2 357,-59.2 406,-59.2 406,-40.2 357,-40.2"/>
<text text-anchor="start" x="360" y="-46.3" font-family="Helvetica,sans-Serif" font-size="11.00" fill="#000000">&lt; 3</text>
<polygon fill="#ffffff" stroke="transparent" points="406,-40.2 406,-59.2 473,-59.2 473,-40.2 406,-40.2"/>
<polygon fill="none" stroke="#000000" points="406,-40.2 406,-59.2 473,-59.2 473,-40.2 406,-40.2"/>
<text text-anchor="start" x="437.6105" y="-46.3" font-family="Helvetica,sans-Serif" font-size="11.00" fill="#000000">0 rows</text>
<polygon fill="#ffffff" stroke="transparent" points="473,-40.2 473,-59.2 603,-59.2 603,-40.2 473,-40.2"/>
<polygon fill="none" stroke="#000000" points="473,-40.2 473,-59.2 603,-59.2 603,-40.2 473,-40.2"/>
<text text-anchor="start" x="584.4053" y="-46.3" font-family="Helvetica,sans-Serif" font-size="11.00" fill="#000000">0 &gt;</text>
<polygon fill="none" stroke="#000000" stroke-width="2" points="356,-39.2 356,-303.2 604,-303.2 604,-39.2 356,-39.2"/>
</a>
</g>
</g>
<!-- PTOBS_On_FNS&#45;&gt;PTOBS_ID -->
<g id="edge5" class="edge">
<title>PTOBS_On_FNS:w&#45;&gt;PTOBS_ID:e</title>
<path fill="none" stroke="#000000" d="M342.4203,-202.2C330.5435,-202.2 323.158,-202.2 306.5,-202.2"/>
<polygon fill="#000000" stroke="#000000" points="349,-202.2001 357,-205.8 353,-202.2 357,-202.2 357,-202.2 357,-202.2 353,-202.2 357,-198.6 349,-202.2001 349,-202.2001"/>
<ellipse fill="none" stroke="#000000" cx="345.8" cy="-202.2001" rx="3.2" ry="3.2"/>
</g>
<!-- PTOBS_On_FNS&#45;&gt;METADATA_Datasets -->
<g id="edge3" class="edge">
<title>PTOBS_On_FNS:w&#45;&gt;METADATA_Datasets:e</title>
<path fill="none" stroke="#000000" d="M342.4062,-246.3872C333.5023,-246.6319 327.1416,-247.0472 314,-247.2 263.7812,-247.7839 251.1629,-249.6412 201,-247.2 182.7129,-246.3101 178.3087,-243.2 160,-243.2"/>
<polygon fill="#000000" stroke="#000000" points="349.0007,-246.3026 357.0462,-249.7997 353.0003,-246.2513 357,-246.2 357,-246.2 357,-246.2 353.0003,-246.2513 356.9538,-242.6003 349.0007,-246.3026 349.0007,-246.3026"/>
<ellipse fill="none" stroke="#000000" cx="345.8009" cy="-246.3437" rx="3.2" ry="3.2"/>
</g>
<!-- PTOBS_On_FNS&#45;&gt;METADATA_Events -->
<g id="edge4" class="edge">
<title>PTOBS_On_FNS:w&#45;&gt;METADATA_Events:e</title>
<path fill="none" stroke="#000000" d="M342.9872,-176.3727C324.6321,-162.8248 343.6084,-117.0038 314,-99.2 270.9597,-73.3195 249.9781,-88.0905 201,-99.2 178.8991,-104.2131 177.6623,-121.2 155,-121.2"/>
<polygon fill="#000000" stroke="#000000" points="349.2827,-178.0921 356.0515,-183.6728 353.1413,-179.1461 357,-180.2 357,-180.2 357,-180.2 353.1413,-179.1461 357.9485,-176.7272 349.2827,-178.0921 349.2827,-178.0921"/>
<ellipse fill="none" stroke="#000000" cx="346.1957" cy="-177.249" rx="3.2" ry="3.2"/>
</g>
</g>
</svg>
