<?xml version="1.0" encoding="UTF-8" standalone="no"?>
<!DOCTYPE svg PUBLIC "-//W3C//DTD SVG 1.1//EN"
 "http://www.w3.org/Graphics/SVG/1.1/DTD/svg11.dtd">
<!-- Generated by graphviz version 2.40.1 (20161225.0304)
 -->
<!-- Title: oneDegreeRelationshipsDiagram Pages: 1 -->
<svg width="614pt" height="282pt"
 viewBox="0.00 0.00 614.00 281.70" xmlns="http://www.w3.org/2000/svg" xmlns:xlink="http://www.w3.org/1999/xlink">
<g id="graph0" class="graph" transform="scale(1 1) rotate(0) translate(4 277.7)">
<title>oneDegreeRelationshipsDiagram</title>
<polygon fill="#ffffff" stroke="transparent" points="-4,4 -4,-277.7 610,-277.7 610,4 -4,4"/>
<text text-anchor="middle" x="72.4936" y="-7.3" font-family="Helvetica,sans-Serif" font-size="11.00" fill="#000000">Generated by SchemaSpy</text>
<!-- PTOBS_ID -->
<g id="node1" class="node">
<title>PTOBS_ID</title>
<g id="a_node1"><a xlink:href="../../tables/PTOBS_ID.html" xlink:title="PTOBS_ID" target="_top">
<polygon fill="#ffffff" stroke="transparent" points="209,-38.2 209,-165.2 306,-165.2 306,-38.2 209,-38.2"/>
<polygon fill="#f5f5f5" stroke="transparent" points="209.5,-141.7 209.5,-164.7 306.5,-164.7 306.5,-141.7 209.5,-141.7"/>
<polygon fill="none" stroke="#000000" points="209.5,-141.7 209.5,-164.7 306.5,-164.7 306.5,-141.7 209.5,-141.7"/>
<text text-anchor="start" x="214.3014" y="-150.8" font-family="Helvetica,sans-Serif" font-weight="bold" font-size="11.00" fill="#000000">PTOBS_ID</text>
<text text-anchor="start" x="272.0219" y="-149.8" font-family="Helvetica,sans-Serif" font-size="11.00" fill="#000000">[table]</text>
<polygon fill="none" stroke="#000000" points="209.5,-119.7 209.5,-141.7 306.5,-141.7 306.5,-119.7 209.5,-119.7"/>
<image xlink:href="../../images/primaryKeys.png" width="11px" height="12px" preserveAspectRatio="xMinYMin meet" x="214.5" y="-136.7"/>
<text text-anchor="start" x="232.5" y="-126.8" font-family="Helvetica,sans-Serif" font-size="11.00" fill="#000000">PT_ID</text>
<polygon fill="none" stroke="#000000" points="209.5,-97.7 209.5,-119.7 306.5,-119.7 306.5,-97.7 209.5,-97.7"/>
<image xlink:href="../../images/primaryKeys.png" width="11px" height="12px" preserveAspectRatio="xMinYMin meet" x="214.5" y="-114.7"/>
<text text-anchor="start" x="232.5" y="-104.8" font-family="Helvetica,sans-Serif" font-size="11.00" fill="#000000">EQ_ID</text>
<polygon fill="none" stroke="#000000" points="209.5,-75.7 209.5,-97.7 306.5,-97.7 306.5,-75.7 209.5,-75.7"/>
<image xlink:href="../../images/primaryKeys.png" width="11px" height="12px" preserveAspectRatio="xMinYMin meet" x="214.5" y="-92.7"/>
<text text-anchor="start" x="232.5" y="-82.8" font-family="Helvetica,sans-Serif" font-size="11.00" fill="#000000">DS_ID</text>
<polygon fill="none" stroke="#000000" points="209.5,-56.7 209.5,-75.7 306.5,-75.7 306.5,-56.7 209.5,-56.7"/>
<text text-anchor="start" x="212.5" y="-62.8" font-family="Helvetica,sans-Serif" font-size="11.00" fill="#000000">...</text>
<polygon fill="#ffffff" stroke="transparent" points="209.5,-37.7 209.5,-56.7 235.5,-56.7 235.5,-37.7 209.5,-37.7"/>
<polygon fill="none" stroke="#000000" points="209.5,-37.7 209.5,-56.7 235.5,-56.7 235.5,-37.7 209.5,-37.7"/>
<text text-anchor="start" x="212.5" y="-43.8" font-family="Helvetica,sans-Serif" font-size="11.00" fill="#000000">&lt; 2</text>
<polygon fill="#ffffff" stroke="transparent" points="235.5,-37.7 235.5,-56.7 276.5,-56.7 276.5,-37.7 235.5,-37.7"/>
<polygon fill="none" stroke="#000000" points="235.5,-37.7 235.5,-56.7 276.5,-56.7 276.5,-37.7 235.5,-37.7"/>
<text text-anchor="start" x="241.1105" y="-43.8" font-family="Helvetica,sans-Serif" font-size="11.00" fill="#000000">0 rows</text>
<polygon fill="#ffffff" stroke="transparent" points="276.5,-37.7 276.5,-56.7 306.5,-56.7 306.5,-37.7 276.5,-37.7"/>
<polygon fill="none" stroke="#000000" points="276.5,-37.7 276.5,-56.7 306.5,-56.7 306.5,-37.7 276.5,-37.7"/>
<text text-anchor="start" x="281.7904" y="-43.8" font-family="Helvetica,sans-Serif" font-size="11.00" fill="#000000">27 &gt;</text>
</a>
</g>
</g>
<!-- METADATA_Datasets -->
<g id="node2" class="node">
<title>METADATA_Datasets</title>
<g id="a_node2"><a xlink:href="../../tables/METADATA_Datasets.html" xlink:title="METADATA_Datasets" target="_top">
<polygon fill="#ffffff" stroke="transparent" points="8,-38.2 8,-121.2 160,-121.2 160,-38.2 8,-38.2"/>
<polygon fill="#f5f5f5" stroke="transparent" points="8,-97.7 8,-120.7 160,-120.7 160,-97.7 8,-97.7"/>
<polygon fill="none" stroke="#000000" points="8,-97.7 8,-120.7 160,-120.7 160,-97.7 8,-97.7"/>
<text text-anchor="start" x="12.7997" y="-106.8" font-family="Helvetica,sans-Serif" font-weight="bold" font-size="11.00" fill="#000000">METADATA_Datasets</text>
<text text-anchor="start" x="125.5219" y="-105.8" font-family="Helvetica,sans-Serif" font-size="11.00" fill="#000000">[table]</text>
<polygon fill="none" stroke="#000000" points="8,-75.7 8,-97.7 160,-97.7 160,-75.7 8,-75.7"/>
<image xlink:href="../../images/primaryKeys.png" width="11px" height="12px" preserveAspectRatio="xMinYMin meet" x="13" y="-92.7"/>
<text text-anchor="start" x="32" y="-82.8" font-family="Helvetica,sans-Serif" font-size="11.00" fill="#000000">DS_ID</text>
<polygon fill="none" stroke="#000000" points="8,-56.7 8,-75.7 160,-75.7 160,-56.7 8,-56.7"/>
<text text-anchor="start" x="11" y="-62.8" font-family="Helvetica,sans-Serif" font-size="11.00" fill="#000000">...</text>
<polygon fill="#ffffff" stroke="transparent" points="8,-37.7 8,-56.7 57,-56.7 57,-37.7 8,-37.7"/>
<polygon fill="none" stroke="#000000" points="8,-37.7 8,-56.7 57,-56.7 57,-37.7 8,-37.7"/>
<text text-anchor="start" x="11" y="-43.8" font-family="Helvetica,sans-Serif" font-size="11.00" fill="#000000"> &#160;</text>
<polygon fill="#ffffff" stroke="transparent" points="57,-37.7 57,-56.7 114,-56.7 114,-37.7 57,-37.7"/>
<polygon fill="none" stroke="#000000" points="57,-37.7 57,-56.7 114,-56.7 114,-37.7 57,-37.7"/>
<text text-anchor="start" x="78.6105" y="-43.8" font-family="Helvetica,sans-Serif" font-size="11.00" fill="#000000">0 rows</text>
<polygon fill="#ffffff" stroke="transparent" points="114,-37.7 114,-56.7 160,-56.7 160,-37.7 114,-37.7"/>
<polygon fill="none" stroke="#000000" points="114,-37.7 114,-56.7 160,-56.7 160,-37.7 114,-37.7"/>
<text text-anchor="start" x="135.2904" y="-43.8" font-family="Helvetica,sans-Serif" font-size="11.00" fill="#000000">43 &gt;</text>
</a>
</g>
</g>
<!-- PTOBS_ID&#45;&gt;METADATA_Datasets -->
<g id="edge1" class="edge">
<title>PTOBS_ID:w&#45;&gt;METADATA_Datasets:e</title>
<path fill="none" stroke="#000000" d="M194.8428,-86.7C183.4139,-86.7 176.1563,-86.7 160,-86.7"/>
<polygon fill="#000000" stroke="#000000" points="201.5,-86.7001 209.5,-90.3 205.5,-86.7 209.5,-86.7 209.5,-86.7 209.5,-86.7 205.5,-86.7 209.5,-83.1 201.5,-86.7001 201.5,-86.7001"/>
<ellipse fill="none" stroke="#000000" cx="198.3" cy="-86.7001" rx="3.2" ry="3.2"/>
</g>
<!-- METADATA_Events -->
<g id="node3" class="node">
<title>METADATA_Events</title>
<g id="a_node3"><a xlink:href="../../tables/METADATA_Events.html" xlink:title="METADATA_Events" target="_top">
<polygon fill="#ffffff" stroke="transparent" points="13,-142.2 13,-225.2 155,-225.2 155,-142.2 13,-142.2"/>
<polygon fill="#f5f5f5" stroke="transparent" points="13,-201.7 13,-224.7 155,-224.7 155,-201.7 13,-201.7"/>
<polygon fill="none" stroke="#000000" points="13,-201.7 13,-224.7 155,-224.7 155,-201.7 13,-201.7"/>
<text text-anchor="start" x="17.6881" y="-210.8" font-family="Helvetica,sans-Serif" font-weight="bold" font-size="11.00" fill="#000000">METADATA_Events</text>
<text text-anchor="start" x="120.5219" y="-209.8" font-family="Helvetica,sans-Serif" font-size="11.00" fill="#000000">[table]</text>
<polygon fill="none" stroke="#000000" points="13,-179.7 13,-201.7 155,-201.7 155,-179.7 13,-179.7"/>
<image xlink:href="../../images/primaryKeys.png" width="11px" height="12px" preserveAspectRatio="xMinYMin meet" x="18" y="-196.7"/>
<text text-anchor="start" x="37" y="-186.8" font-family="Helvetica,sans-Serif" font-size="11.00" fill="#000000">EQ_ID</text>
<polygon fill="none" stroke="#000000" points="13,-160.7 13,-179.7 155,-179.7 155,-160.7 13,-160.7"/>
<text text-anchor="start" x="16" y="-166.8" font-family="Helvetica,sans-Serif" font-size="11.00" fill="#000000">...</text>
<polygon fill="#ffffff" stroke="transparent" points="13,-141.7 13,-160.7 57,-160.7 57,-141.7 13,-141.7"/>
<polygon fill="none" stroke="#000000" points="13,-141.7 13,-160.7 57,-160.7 57,-141.7 13,-141.7"/>
<text text-anchor="start" x="16" y="-147.8" font-family="Helvetica,sans-Serif" font-size="11.00" fill="#000000"> &#160;</text>
<polygon fill="#ffffff" stroke="transparent" points="57,-141.7 57,-160.7 111,-160.7 111,-141.7 57,-141.7"/>
<polygon fill="none" stroke="#000000" points="57,-141.7 57,-160.7 111,-160.7 111,-141.7 57,-141.7"/>
<text text-anchor="start" x="75.6105" y="-147.8" font-family="Helvetica,sans-Serif" font-size="11.00" fill="#000000">0 rows</text>
<polygon fill="#ffffff" stroke="transparent" points="111,-141.7 111,-160.7 155,-160.7 155,-141.7 111,-141.7"/>
<polygon fill="none" stroke="#000000" points="111,-141.7 111,-160.7 155,-160.7 155,-141.7 111,-141.7"/>
<text text-anchor="start" x="130.2904" y="-147.8" font-family="Helvetica,sans-Serif" font-size="11.00" fill="#000000">40 &gt;</text>
</a>
</g>
</g>
<!-- PTOBS_ID&#45;&gt;METADATA_Events -->
<g id="edge2" class="edge">
<title>PTOBS_ID:w&#45;&gt;METADATA_Events:e</title>
<path fill="none" stroke="#000000" d="M195.4647,-112.8791C173.3339,-129.5891 192.777,-190.7 155,-190.7"/>
<polygon fill="#000000" stroke="#000000" points="201.8327,-110.9831 210.5274,-112.1503 205.6663,-109.8415 209.5,-108.7 209.5,-108.7 209.5,-108.7 205.6663,-109.8415 208.4726,-105.2497 201.8327,-110.9831 201.8327,-110.9831"/>
<ellipse fill="none" stroke="#000000" cx="198.7657" cy="-111.8963" rx="3.2" ry="3.2"/>
</g>
<!-- PTOBS_Nfaults -->
<g id="node4" class="node">
<title>PTOBS_Nfaults</title>
<g id="a_node4"><a xlink:href="../../tables/PTOBS_Nfaults.html" xlink:title="PTOBS_Nfaults" target="_top">
<polygon fill="#ffffff" stroke="transparent" points="355,-91.7 355,-269.7 598,-269.7 598,-91.7 355,-91.7"/>
<polygon fill="#f5f5f5" stroke="transparent" points="357.5,-244.7 357.5,-267.7 596.5,-267.7 596.5,-244.7 357.5,-244.7"/>
<polygon fill="none" stroke="#000000" points="357.5,-244.7 357.5,-267.7 596.5,-267.7 596.5,-244.7 357.5,-244.7"/>
<text text-anchor="start" x="362.5" y="-253.8" font-family="Helvetica,sans-Serif" font-weight="bold" font-size="11.00" fill="#000000">PTOBS_Nfaults</text>
<text text-anchor="start" x="561.5437" y="-252.8" font-family="Helvetica,sans-Serif" font-size="11.00" fill="#000000">[table]</text>
<polygon fill="none" stroke="#000000" points="357.5,-222.7 357.5,-244.7 466.5,-244.7 466.5,-222.7 357.5,-222.7"/>
<text text-anchor="start" x="377.5" y="-229.8" font-family="Helvetica,sans-Serif" font-size="11.00" fill="#000000">Nfaults</text>
<polygon fill="none" stroke="#000000" points="466.5,-222.7 466.5,-244.7 596.5,-244.7 596.5,-222.7 466.5,-222.7"/>
<text text-anchor="start" x="469.5" y="-230.4" font-family="Helvetica,sans-Serif" font-size="11.00" fill="#000000">text[2000000000,10]</text>
<polygon fill="none" stroke="#000000" points="357.5,-200.7 357.5,-222.7 466.5,-222.7 466.5,-200.7 357.5,-200.7"/>
<image xlink:href="../../images/primaryKeys.png" width="11px" height="12px" preserveAspectRatio="xMinYMin meet" x="362.5" y="-217.7"/>
<text text-anchor="start" x="377.5" y="-207.8" font-family="Helvetica,sans-Serif" font-size="11.00" fill="#000000">DS_ID</text>
<polygon fill="none" stroke="#000000" points="466.5,-200.7 466.5,-222.7 596.5,-222.7 596.5,-200.7 466.5,-200.7"/>
<text text-anchor="start" x="469.5" y="-208.4" font-family="Helvetica,sans-Serif" font-size="11.00" fill="#000000">integer[2000000000,10]</text>
<polygon fill="none" stroke="#000000" points="357.5,-178.7 357.5,-200.7 466.5,-200.7 466.5,-178.7 357.5,-178.7"/>
<image xlink:href="../../images/primaryKeys.png" width="11px" height="12px" preserveAspectRatio="xMinYMin meet" x="362.5" y="-195.7"/>
<text text-anchor="start" x="377.5" y="-185.8" font-family="Helvetica,sans-Serif" font-size="11.00" fill="#000000">EQ_ID</text>
<polygon fill="none" stroke="#000000" points="466.5,-178.7 466.5,-200.7 596.5,-200.7 596.5,-178.7 466.5,-178.7"/>
<text text-anchor="start" x="469.5" y="-186.4" font-family="Helvetica,sans-Serif" font-size="11.00" fill="#000000">integer[2000000000,10]</text>
<polygon fill="none" stroke="#000000" points="357.5,-156.7 357.5,-178.7 466.5,-178.7 466.5,-156.7 357.5,-156.7"/>
<image xlink:href="../../images/primaryKeys.png" width="11px" height="12px" preserveAspectRatio="xMinYMin meet" x="362.5" y="-173.7"/>
<text text-anchor="start" x="377.5" y="-163.8" font-family="Helvetica,sans-Serif" font-size="11.00" fill="#000000">PT_ID</text>
<polygon fill="none" stroke="#000000" points="466.5,-156.7 466.5,-178.7 596.5,-178.7 596.5,-156.7 466.5,-156.7"/>
<text text-anchor="start" x="469.5" y="-164.4" font-family="Helvetica,sans-Serif" font-size="11.00" fill="#000000">integer[2000000000,10]</text>
<polygon fill="none" stroke="#000000" points="357.5,-134.7 357.5,-156.7 466.5,-156.7 466.5,-134.7 357.5,-134.7"/>
<text text-anchor="start" x="377.5" y="-141.8" font-family="Helvetica,sans-Serif" font-size="11.00" fill="#000000">Source_File</text>
<polygon fill="none" stroke="#000000" points="466.5,-134.7 466.5,-156.7 596.5,-156.7 596.5,-134.7 466.5,-134.7"/>
<text text-anchor="start" x="469.5" y="-142.4" font-family="Helvetica,sans-Serif" font-size="11.00" fill="#000000">text[2000000000,10]</text>
<polygon fill="none" stroke="#000000" points="357.5,-112.7 357.5,-134.7 466.5,-134.7 466.5,-112.7 357.5,-112.7"/>
<text text-anchor="start" x="377.5" y="-119.8" font-family="Helvetica,sans-Serif" font-size="11.00" fill="#000000">Date_Added</text>
<polygon fill="none" stroke="#000000" points="466.5,-112.7 466.5,-134.7 596.5,-134.7 596.5,-112.7 466.5,-112.7"/>
<text text-anchor="start" x="469.1372" y="-120.4" font-family="Helvetica,sans-Serif" font-size="11.00" fill="#000000">datetime[2000000000,10]</text>
<polygon fill="#ffffff" stroke="transparent" points="357.5,-93.7 357.5,-112.7 403.5,-112.7 403.5,-93.7 357.5,-93.7"/>
<polygon fill="none" stroke="#000000" points="357.5,-93.7 357.5,-112.7 403.5,-112.7 403.5,-93.7 357.5,-93.7"/>
<text text-anchor="start" x="360.5" y="-99.8" font-family="Helvetica,sans-Serif" font-size="11.00" fill="#000000">&lt; 3</text>
<polygon fill="#ffffff" stroke="transparent" points="403.5,-93.7 403.5,-112.7 466.5,-112.7 466.5,-93.7 403.5,-93.7"/>
<polygon fill="none" stroke="#000000" points="403.5,-93.7 403.5,-112.7 466.5,-112.7 466.5,-93.7 403.5,-93.7"/>
<text text-anchor="start" x="431.1105" y="-99.8" font-family="Helvetica,sans-Serif" font-size="11.00" fill="#000000">0 rows</text>
<polygon fill="#ffffff" stroke="transparent" points="466.5,-93.7 466.5,-112.7 596.5,-112.7 596.5,-93.7 466.5,-93.7"/>
<polygon fill="none" stroke="#000000" points="466.5,-93.7 466.5,-112.7 596.5,-112.7 596.5,-93.7 466.5,-93.7"/>
<text text-anchor="start" x="577.9053" y="-99.8" font-family="Helvetica,sans-Serif" font-size="11.00" fill="#000000">0 &gt;</text>
<polygon fill="none" stroke="#000000" stroke-width="2" points="356,-92.7 356,-268.7 597,-268.7 597,-92.7 356,-92.7"/>
</a>
</g>
</g>
<!-- PTOBS_Nfaults&#45;&gt;PTOBS_ID -->
<g id="edge5" class="edge">
<title>PTOBS_Nfaults:w&#45;&gt;PTOBS_ID:e</title>
<path fill="none" stroke="#000000" d="M343.5658,-163.4556C330.14,-153.7369 328.5965,-130.7 306.5,-130.7"/>
<polygon fill="#000000" stroke="#000000" points="349.8471,-165.3689 356.451,-171.1438 353.6736,-166.5345 357.5,-167.7 357.5,-167.7 357.5,-167.7 353.6736,-166.5345 358.549,-164.2562 349.8471,-165.3689 349.8471,-165.3689"/>
<ellipse fill="none" stroke="#000000" cx="346.786" cy="-164.4365" rx="3.2" ry="3.2"/>
</g>
<!-- PTOBS_Nfaults&#45;&gt;METADATA_Datasets -->
<g id="edge3" class="edge">
<title>PTOBS_Nfaults:w&#45;&gt;METADATA_Datasets:e</title>
<path fill="none" stroke="#000000" d="M343.0389,-211.8119C281.8179,-212.7016 252.4862,-217.5568 201,-175.7 167.2072,-148.2275 203.551,-86.7 160,-86.7"/>
<polygon fill="#000000" stroke="#000000" points="349.5002,-211.762 357.5279,-215.2999 353.5001,-211.731 357.5,-211.7 357.5,-211.7 357.5,-211.7 353.5001,-211.731 357.4721,-208.1001 349.5002,-211.762 349.5002,-211.762"/>
<ellipse fill="none" stroke="#000000" cx="346.3003" cy="-211.7867" rx="3.2" ry="3.2"/>
</g>
<!-- PTOBS_Nfaults&#45;&gt;METADATA_Events -->
<g id="edge4" class="edge">
<title>PTOBS_Nfaults:w&#45;&gt;METADATA_Events:e</title>
<path fill="none" stroke="#000000" d="M342.832,-189.7093C264.7338,-189.8101 239.9034,-190.7 155,-190.7"/>
<polygon fill="#000000" stroke="#000000" points="349.5,-189.7051 357.5023,-193.3 353.5,-189.7026 357.5,-189.7 357.5,-189.7 357.5,-189.7 353.5,-189.7026 357.4977,-186.1 349.5,-189.7051 349.5,-189.7051"/>
<ellipse fill="none" stroke="#000000" cx="346.3" cy="-189.7071" rx="3.2" ry="3.2"/>
</g>
</g>
</svg>
