<?xml version="1.0" encoding="UTF-8" standalone="no"?>
<!DOCTYPE svg PUBLIC "-//W3C//DTD SVG 1.1//EN"
 "http://www.w3.org/Graphics/SVG/1.1/DTD/svg11.dtd">
<!-- Generated by graphviz version 2.40.1 (20161225.0304)
 -->
<!-- Title: oneDegreeRelationshipsDiagram Pages: 1 -->
<svg width="624pt" height="265pt"
 viewBox="0.00 0.00 624.00 264.70" xmlns="http://www.w3.org/2000/svg" xmlns:xlink="http://www.w3.org/1999/xlink">
<g id="graph0" class="graph" transform="scale(1 1) rotate(0) translate(4 260.7)">
<title>oneDegreeRelationshipsDiagram</title>
<polygon fill="#ffffff" stroke="transparent" points="-4,4 -4,-260.7 620,-260.7 620,4 -4,4"/>
<text text-anchor="middle" x="72.4936" y="-7.3" font-family="Helvetica,sans-Serif" font-size="11.00" fill="#000000">Generated by SchemaSpy</text>
<!-- PTOBS_ID -->
<g id="node1" class="node">
<title>PTOBS_ID</title>
<g id="a_node1"><a xlink:href="../../tables/PTOBS_ID.html" xlink:title="PTOBS_ID" target="_top">
<polygon fill="#ffffff" stroke="transparent" points="209,-38.2 209,-165.2 306,-165.2 306,-38.2 209,-38.2"/>
<polygon fill="#f5f5f5" stroke="transparent" points="209.5,-141.7 209.5,-164.7 306.5,-164.7 306.5,-141.7 209.5,-141.7"/>
<polygon fill="none" stroke="#000000" points="209.5,-141.7 209.5,-164.7 306.5,-164.7 306.5,-141.7 209.5,-141.7"/>
<text text-anchor="start" x="214.3014" y="-150.8" font-family="Helvetica,sans-Serif" font-weight="bold" font-size="11.00" fill="#000000">PTOBS_ID</text>
<text text-anchor="start" x="272.0219" y="-149.8" font-family="Helvetica,sans-Serif" font-size="11.00" fill="#000000">[table]</text>
<polygon fill="none" stroke="#000000" points="209.5,-119.7 209.5,-141.7 306.5,-141.7 306.5,-119.7 209.5,-119.7"/>
<image xlink:href="../../images/primaryKeys.png" width="11px" height="12px" preserveAspectRatio="xMinYMin meet" x="214.5" y="-136.7"/>
<text text-anchor="start" x="232.5" y="-126.8" font-family="Helvetica,sans-Serif" font-size="11.00" fill="#000000">PT_ID</text>
<polygon fill="none" stroke="#000000" points="209.5,-97.7 209.5,-119.7 306.5,-119.7 306.5,-97.7 209.5,-97.7"/>
<image xlink:href="../../images/primaryKeys.png" width="11px" height="12px" preserveAspectRatio="xMinYMin meet" x="214.5" y="-114.7"/>
<text text-anchor="start" x="232.5" y="-104.8" font-family="Helvetica,sans-Serif" font-size="11.00" fill="#000000">EQ_ID</text>
<polygon fill="none" stroke="#000000" points="209.5,-75.7 209.5,-97.7 306.5,-97.7 306.5,-75.7 209.5,-75.7"/>
<image xlink:href="../../images/primaryKeys.png" width="11px" height="12px" preserveAspectRatio="xMinYMin meet" x="214.5" y="-92.7"/>
<text text-anchor="start" x="232.5" y="-82.8" font-family="Helvetica,sans-Serif" font-size="11.00" fill="#000000">DS_ID</text>
<polygon fill="none" stroke="#000000" points="209.5,-56.7 209.5,-75.7 306.5,-75.7 306.5,-56.7 209.5,-56.7"/>
<text text-anchor="start" x="212.5" y="-62.8" font-family="Helvetica,sans-Serif" font-size="11.00" fill="#000000">...</text>
<polygon fill="#ffffff" stroke="transparent" points="209.5,-37.7 209.5,-56.7 235.5,-56.7 235.5,-37.7 209.5,-37.7"/>
<polygon fill="none" stroke="#000000" points="209.5,-37.7 209.5,-56.7 235.5,-56.7 235.5,-37.7 209.5,-37.7"/>
<text text-anchor="start" x="212.5" y="-43.8" font-family="Helvetica,sans-Serif" font-size="11.00" fill="#000000">&lt; 2</text>
<polygon fill="#ffffff" stroke="transparent" points="235.5,-37.7 235.5,-56.7 276.5,-56.7 276.5,-37.7 235.5,-37.7"/>
<polygon fill="none" stroke="#000000" points="235.5,-37.7 235.5,-56.7 276.5,-56.7 276.5,-37.7 235.5,-37.7"/>
<text text-anchor="start" x="241.1105" y="-43.8" font-family="Helvetica,sans-Serif" font-size="11.00" fill="#000000">0 rows</text>
<polygon fill="#ffffff" stroke="transparent" points="276.5,-37.7 276.5,-56.7 306.5,-56.7 306.5,-37.7 276.5,-37.7"/>
<polygon fill="none" stroke="#000000" points="276.5,-37.7 276.5,-56.7 306.5,-56.7 306.5,-37.7 276.5,-37.7"/>
<text text-anchor="start" x="281.7904" y="-43.8" font-family="Helvetica,sans-Serif" font-size="11.00" fill="#000000">27 &gt;</text>
</a>
</g>
</g>
<!-- METADATA_Datasets -->
<g id="node2" class="node">
<title>METADATA_Datasets</title>
<g id="a_node2"><a xlink:href="../../tables/METADATA_Datasets.html" xlink:title="METADATA_Datasets" target="_top">
<polygon fill="#ffffff" stroke="transparent" points="8,-38.2 8,-121.2 160,-121.2 160,-38.2 8,-38.2"/>
<polygon fill="#f5f5f5" stroke="transparent" points="8,-97.7 8,-120.7 160,-120.7 160,-97.7 8,-97.7"/>
<polygon fill="none" stroke="#000000" points="8,-97.7 8,-120.7 160,-120.7 160,-97.7 8,-97.7"/>
<text text-anchor="start" x="12.7997" y="-106.8" font-family="Helvetica,sans-Serif" font-weight="bold" font-size="11.00" fill="#000000">METADATA_Datasets</text>
<text text-anchor="start" x="125.5219" y="-105.8" font-family="Helvetica,sans-Serif" font-size="11.00" fill="#000000">[table]</text>
<polygon fill="none" stroke="#000000" points="8,-75.7 8,-97.7 160,-97.7 160,-75.7 8,-75.7"/>
<image xlink:href="../../images/primaryKeys.png" width="11px" height="12px" preserveAspectRatio="xMinYMin meet" x="13" y="-92.7"/>
<text text-anchor="start" x="32" y="-82.8" font-family="Helvetica,sans-Serif" font-size="11.00" fill="#000000">DS_ID</text>
<polygon fill="none" stroke="#000000" points="8,-56.7 8,-75.7 160,-75.7 160,-56.7 8,-56.7"/>
<text text-anchor="start" x="11" y="-62.8" font-family="Helvetica,sans-Serif" font-size="11.00" fill="#000000">...</text>
<polygon fill="#ffffff" stroke="transparent" points="8,-37.7 8,-56.7 57,-56.7 57,-37.7 8,-37.7"/>
<polygon fill="none" stroke="#000000" points="8,-37.7 8,-56.7 57,-56.7 57,-37.7 8,-37.7"/>
<text text-anchor="start" x="11" y="-43.8" font-family="Helvetica,sans-Serif" font-size="11.00" fill="#000000"> &#160;</text>
<polygon fill="#ffffff" stroke="transparent" points="57,-37.7 57,-56.7 114,-56.7 114,-37.7 57,-37.7"/>
<polygon fill="none" stroke="#000000" points="57,-37.7 57,-56.7 114,-56.7 114,-37.7 57,-37.7"/>
<text text-anchor="start" x="78.6105" y="-43.8" font-family="Helvetica,sans-Serif" font-size="11.00" fill="#000000">0 rows</text>
<polygon fill="#ffffff" stroke="transparent" points="114,-37.7 114,-56.7 160,-56.7 160,-37.7 114,-37.7"/>
<polygon fill="none" stroke="#000000" points="114,-37.7 114,-56.7 160,-56.7 160,-37.7 114,-37.7"/>
<text text-anchor="start" x="135.2904" y="-43.8" font-family="Helvetica,sans-Serif" font-size="11.00" fill="#000000">43 &gt;</text>
</a>
</g>
</g>
<!-- PTOBS_ID&#45;&gt;METADATA_Datasets -->
<g id="edge1" class="edge">
<title>PTOBS_ID:w&#45;&gt;METADATA_Datasets:e</title>
<path fill="none" stroke="#000000" d="M194.8428,-86.7C183.4139,-86.7 176.1563,-86.7 160,-86.7"/>
<polygon fill="#000000" stroke="#000000" points="201.5,-86.7001 209.5,-90.3 205.5,-86.7 209.5,-86.7 209.5,-86.7 209.5,-86.7 205.5,-86.7 209.5,-83.1 201.5,-86.7001 201.5,-86.7001"/>
<ellipse fill="none" stroke="#000000" cx="198.3" cy="-86.7001" rx="3.2" ry="3.2"/>
</g>
<!-- METADATA_Events -->
<g id="node3" class="node">
<title>METADATA_Events</title>
<g id="a_node3"><a xlink:href="../../tables/METADATA_Events.html" xlink:title="METADATA_Events" target="_top">
<polygon fill="#ffffff" stroke="transparent" points="13,-142.2 13,-225.2 155,-225.2 155,-142.2 13,-142.2"/>
<polygon fill="#f5f5f5" stroke="transparent" points="13,-201.7 13,-224.7 155,-224.7 155,-201.7 13,-201.7"/>
<polygon fill="none" stroke="#000000" points="13,-201.7 13,-224.7 155,-224.7 155,-201.7 13,-201.7"/>
<text text-anchor="start" x="17.6881" y="-210.8" font-family="Helvetica,sans-Serif" font-weight="bold" font-size="11.00" fill="#000000">METADATA_Events</text>
<text text-anchor="start" x="120.5219" y="-209.8" font-family="Helvetica,sans-Serif" font-size="11.00" fill="#000000">[table]</text>
<polygon fill="none" stroke="#000000" points="13,-179.7 13,-201.7 155,-201.7 155,-179.7 13,-179.7"/>
<image xlink:href="../../images/primaryKeys.png" width="11px" height="12px" preserveAspectRatio="xMinYMin meet" x="18" y="-196.7"/>
<text text-anchor="start" x="37" y="-186.8" font-family="Helvetica,sans-Serif" font-size="11.00" fill="#000000">EQ_ID</text>
<polygon fill="none" stroke="#000000" points="13,-160.7 13,-179.7 155,-179.7 155,-160.7 13,-160.7"/>
<text text-anchor="start" x="16" y="-166.8" font-family="Helvetica,sans-Serif" font-size="11.00" fill="#000000">...</text>
<polygon fill="#ffffff" stroke="transparent" points="13,-141.7 13,-160.7 57,-160.7 57,-141.7 13,-141.7"/>
<polygon fill="none" stroke="#000000" points="13,-141.7 13,-160.7 57,-160.7 57,-141.7 13,-141.7"/>
<text text-anchor="start" x="16" y="-147.8" font-family="Helvetica,sans-Serif" font-size="11.00" fill="#000000"> &#160;</text>
<polygon fill="#ffffff" stroke="transparent" points="57,-141.7 57,-160.7 111,-160.7 111,-141.7 57,-141.7"/>
<polygon fill="none" stroke="#000000" points="57,-141.7 57,-160.7 111,-160.7 111,-141.7 57,-141.7"/>
<text text-anchor="start" x="75.6105" y="-147.8" font-family="Helvetica,sans-Serif" font-size="11.00" fill="#000000">0 rows</text>
<polygon fill="#ffffff" stroke="transparent" points="111,-141.7 111,-160.7 155,-160.7 155,-141.7 111,-141.7"/>
<polygon fill="none" stroke="#000000" points="111,-141.7 111,-160.7 155,-160.7 155,-141.7 111,-141.7"/>
<text text-anchor="start" x="130.2904" y="-147.8" font-family="Helvetica,sans-Serif" font-size="11.00" fill="#000000">40 &gt;</text>
</a>
</g>
</g>
<!-- PTOBS_ID&#45;&gt;METADATA_Events -->
<g id="edge2" class="edge">
<title>PTOBS_ID:w&#45;&gt;METADATA_Events:e</title>
<path fill="none" stroke="#000000" d="M195.4647,-112.8791C173.3339,-129.5891 192.777,-190.7 155,-190.7"/>
<polygon fill="#000000" stroke="#000000" points="201.8327,-110.9831 210.5274,-112.1503 205.6663,-109.8415 209.5,-108.7 209.5,-108.7 209.5,-108.7 205.6663,-109.8415 208.4726,-105.2497 201.8327,-110.9831 201.8327,-110.9831"/>
<ellipse fill="none" stroke="#000000" cx="198.7657" cy="-111.8963" rx="3.2" ry="3.2"/>
</g>
<!-- PTOBS_Location -->
<g id="node4" class="node">
<title>PTOBS_Location</title>
<g id="a_node4"><a xlink:href="../../tables/PTOBS_Location.html" xlink:title="PTOBS_Location" target="_top">
<polygon fill="#ffffff" stroke="transparent" points="355,-52.7 355,-252.7 608,-252.7 608,-52.7 355,-52.7"/>
<polygon fill="#f5f5f5" stroke="transparent" points="357.5,-227.7 357.5,-250.7 606.5,-250.7 606.5,-227.7 357.5,-227.7"/>
<polygon fill="none" stroke="#000000" points="357.5,-227.7 357.5,-250.7 606.5,-250.7 606.5,-227.7 357.5,-227.7"/>
<text text-anchor="start" x="362.5" y="-236.8" font-family="Helvetica,sans-Serif" font-weight="bold" font-size="11.00" fill="#000000">PTOBS_Location</text>
<text text-anchor="start" x="571.5437" y="-235.8" font-family="Helvetica,sans-Serif" font-size="11.00" fill="#000000">[table]</text>
<polygon fill="none" stroke="#000000" points="357.5,-205.7 357.5,-227.7 476.5,-227.7 476.5,-205.7 357.5,-205.7"/>
<image xlink:href="../../images/primaryKeys.png" width="11px" height="12px" preserveAspectRatio="xMinYMin meet" x="362.5" y="-222.7"/>
<text text-anchor="start" x="377.5" y="-212.8" font-family="Helvetica,sans-Serif" font-size="11.00" fill="#000000">DS_ID</text>
<polygon fill="none" stroke="#000000" points="476.5,-205.7 476.5,-227.7 606.5,-227.7 606.5,-205.7 476.5,-205.7"/>
<text text-anchor="start" x="479.5" y="-213.4" font-family="Helvetica,sans-Serif" font-size="11.00" fill="#000000">integer[2000000000,10]</text>
<polygon fill="none" stroke="#000000" points="357.5,-183.7 357.5,-205.7 476.5,-205.7 476.5,-183.7 357.5,-183.7"/>
<text text-anchor="start" x="377.5" y="-190.8" font-family="Helvetica,sans-Serif" font-size="11.00" fill="#000000">Longitude</text>
<polygon fill="none" stroke="#000000" points="476.5,-183.7 476.5,-205.7 606.5,-205.7 606.5,-183.7 476.5,-183.7"/>
<text text-anchor="start" x="479.5" y="-191.4" font-family="Helvetica,sans-Serif" font-size="11.00" fill="#000000">float[2000000000,10]</text>
<polygon fill="none" stroke="#000000" points="357.5,-161.7 357.5,-183.7 476.5,-183.7 476.5,-161.7 357.5,-161.7"/>
<image xlink:href="../../images/primaryKeys.png" width="11px" height="12px" preserveAspectRatio="xMinYMin meet" x="362.5" y="-178.7"/>
<text text-anchor="start" x="377.5" y="-168.8" font-family="Helvetica,sans-Serif" font-size="11.00" fill="#000000">EQ_ID</text>
<polygon fill="none" stroke="#000000" points="476.5,-161.7 476.5,-183.7 606.5,-183.7 606.5,-161.7 476.5,-161.7"/>
<text text-anchor="start" x="479.5" y="-169.4" font-family="Helvetica,sans-Serif" font-size="11.00" fill="#000000">integer[2000000000,10]</text>
<polygon fill="none" stroke="#000000" points="357.5,-139.7 357.5,-161.7 476.5,-161.7 476.5,-139.7 357.5,-139.7"/>
<image xlink:href="../../images/primaryKeys.png" width="11px" height="12px" preserveAspectRatio="xMinYMin meet" x="362.5" y="-156.7"/>
<text text-anchor="start" x="377.5" y="-146.8" font-family="Helvetica,sans-Serif" font-size="11.00" fill="#000000">PT_ID</text>
<polygon fill="none" stroke="#000000" points="476.5,-139.7 476.5,-161.7 606.5,-161.7 606.5,-139.7 476.5,-139.7"/>
<text text-anchor="start" x="479.5" y="-147.4" font-family="Helvetica,sans-Serif" font-size="11.00" fill="#000000">integer[2000000000,10]</text>
<polygon fill="none" stroke="#000000" points="357.5,-117.7 357.5,-139.7 476.5,-139.7 476.5,-117.7 357.5,-117.7"/>
<text text-anchor="start" x="377.5" y="-124.8" font-family="Helvetica,sans-Serif" font-size="11.00" fill="#000000">Source_File</text>
<polygon fill="none" stroke="#000000" points="476.5,-117.7 476.5,-139.7 606.5,-139.7 606.5,-117.7 476.5,-117.7"/>
<text text-anchor="start" x="479.5" y="-125.4" font-family="Helvetica,sans-Serif" font-size="11.00" fill="#000000">text[2000000000,10]</text>
<polygon fill="none" stroke="#000000" points="357.5,-95.7 357.5,-117.7 476.5,-117.7 476.5,-95.7 357.5,-95.7"/>
<text text-anchor="start" x="377.5" y="-102.8" font-family="Helvetica,sans-Serif" font-size="11.00" fill="#000000">Latitude</text>
<polygon fill="none" stroke="#000000" points="476.5,-95.7 476.5,-117.7 606.5,-117.7 606.5,-95.7 476.5,-95.7"/>
<text text-anchor="start" x="479.5" y="-103.4" font-family="Helvetica,sans-Serif" font-size="11.00" fill="#000000">float[2000000000,10]</text>
<polygon fill="none" stroke="#000000" points="357.5,-73.7 357.5,-95.7 476.5,-95.7 476.5,-73.7 357.5,-73.7"/>
<text text-anchor="start" x="377.5" y="-80.8" font-family="Helvetica,sans-Serif" font-size="11.00" fill="#000000">Date_Added</text>
<polygon fill="none" stroke="#000000" points="476.5,-73.7 476.5,-95.7 606.5,-95.7 606.5,-73.7 476.5,-73.7"/>
<text text-anchor="start" x="479.1372" y="-81.4" font-family="Helvetica,sans-Serif" font-size="11.00" fill="#000000">datetime[2000000000,10]</text>
<polygon fill="#ffffff" stroke="transparent" points="357.5,-54.7 357.5,-73.7 408.5,-73.7 408.5,-54.7 357.5,-54.7"/>
<polygon fill="none" stroke="#000000" points="357.5,-54.7 357.5,-73.7 408.5,-73.7 408.5,-54.7 357.5,-54.7"/>
<text text-anchor="start" x="360.5" y="-60.8" font-family="Helvetica,sans-Serif" font-size="11.00" fill="#000000">&lt; 3</text>
<polygon fill="#ffffff" stroke="transparent" points="408.5,-54.7 408.5,-73.7 476.5,-73.7 476.5,-54.7 408.5,-54.7"/>
<polygon fill="none" stroke="#000000" points="408.5,-54.7 408.5,-73.7 476.5,-73.7 476.5,-54.7 408.5,-54.7"/>
<text text-anchor="start" x="441.1105" y="-60.8" font-family="Helvetica,sans-Serif" font-size="11.00" fill="#000000">0 rows</text>
<polygon fill="#ffffff" stroke="transparent" points="476.5,-54.7 476.5,-73.7 606.5,-73.7 606.5,-54.7 476.5,-54.7"/>
<polygon fill="none" stroke="#000000" points="476.5,-54.7 476.5,-73.7 606.5,-73.7 606.5,-54.7 476.5,-54.7"/>
<text text-anchor="start" x="587.9053" y="-60.8" font-family="Helvetica,sans-Serif" font-size="11.00" fill="#000000">0 &gt;</text>
<polygon fill="none" stroke="#000000" stroke-width="2" points="356,-53.7 356,-251.7 607,-251.7 607,-53.7 356,-53.7"/>
</a>
</g>
</g>
<!-- PTOBS_Location&#45;&gt;PTOBS_ID -->
<g id="edge5" class="edge">
<title>PTOBS_Location:w&#45;&gt;PTOBS_ID:e</title>
<path fill="none" stroke="#000000" d="M343.0625,-147.7489C330.7432,-142.1856 324.9507,-130.7 306.5,-130.7"/>
<polygon fill="#000000" stroke="#000000" points="349.6621,-149.0979 356.779,-154.2271 353.581,-149.8989 357.5,-150.7 357.5,-150.7 357.5,-150.7 353.581,-149.8989 358.221,-147.1729 349.6621,-149.0979 349.6621,-149.0979"/>
<ellipse fill="none" stroke="#000000" cx="346.5269" cy="-148.457" rx="3.2" ry="3.2"/>
</g>
<!-- PTOBS_Location&#45;&gt;METADATA_Datasets -->
<g id="edge3" class="edge">
<title>PTOBS_Location:w&#45;&gt;METADATA_Datasets:e</title>
<path fill="none" stroke="#000000" d="M342.9383,-216.7573C281.3228,-217.1761 252.2281,-218.6445 201,-175.7 167.6248,-147.7216 203.551,-86.7 160,-86.7"/>
<polygon fill="#000000" stroke="#000000" points="349.5001,-216.7316 357.5142,-220.3 353.5,-216.7158 357.5,-216.7 357.5,-216.7 357.5,-216.7 353.5,-216.7158 357.4858,-213.1 349.5001,-216.7316 349.5001,-216.7316"/>
<ellipse fill="none" stroke="#000000" cx="346.3001" cy="-216.7442" rx="3.2" ry="3.2"/>
</g>
<!-- PTOBS_Location&#45;&gt;METADATA_Events -->
<g id="edge4" class="edge">
<title>PTOBS_Location:w&#45;&gt;METADATA_Events:e</title>
<path fill="none" stroke="#000000" d="M342.9337,-173.4967C297.1376,-176.9802 174.721,-190.7 155,-190.7"/>
<polygon fill="#000000" stroke="#000000" points="349.5119,-173.1369 357.6966,-176.2946 353.506,-172.9185 357.5,-172.7 357.5,-172.7 357.5,-172.7 353.506,-172.9185 357.3034,-169.1054 349.5119,-173.1369 349.5119,-173.1369"/>
<ellipse fill="none" stroke="#000000" cx="346.3167" cy="-173.3117" rx="3.2" ry="3.2"/>
</g>
</g>
</svg>
