<?xml version="1.0" encoding="UTF-8" standalone="no"?>
<!DOCTYPE svg PUBLIC "-//W3C//DTD SVG 1.1//EN"
 "http://www.w3.org/Graphics/SVG/1.1/DTD/svg11.dtd">
<!-- Generated by graphviz version 2.40.1 (20161225.0304)
 -->
<!-- Title: oneDegreeRelationshipsDiagram Pages: 1 -->
<svg width="674pt" height="377pt"
 viewBox="0.00 0.00 674.00 376.70" xmlns="http://www.w3.org/2000/svg" xmlns:xlink="http://www.w3.org/1999/xlink">
<g id="graph0" class="graph" transform="scale(1 1) rotate(0) translate(4 372.7)">
<title>oneDegreeRelationshipsDiagram</title>
<polygon fill="#ffffff" stroke="transparent" points="-4,4 -4,-372.7 670,-372.7 670,4 -4,4"/>
<text text-anchor="middle" x="72.4936" y="-7.3" font-family="Helvetica,sans-Serif" font-size="11.00" fill="#000000">Generated by SchemaSpy</text>
<!-- METADATA_Geology -->
<g id="node1" class="node">
<title>METADATA_Geology</title>
<g id="a_node1"><a xlink:href="../../tables/METADATA_Geology.html" xlink:title="METADATA_Geology" target="_top">
<polygon fill="#ffffff" stroke="transparent" points="209,-105.7 209,-188.7 358,-188.7 358,-105.7 209,-105.7"/>
<polygon fill="#f5f5f5" stroke="transparent" points="209.5,-165.2 209.5,-188.2 358.5,-188.2 358.5,-165.2 209.5,-165.2"/>
<polygon fill="none" stroke="#000000" points="209.5,-165.2 209.5,-188.2 358.5,-188.2 358.5,-165.2 209.5,-165.2"/>
<text text-anchor="start" x="214.0208" y="-174.3" font-family="Helvetica,sans-Serif" font-weight="bold" font-size="11.00" fill="#000000">METADATA_Geology</text>
<text text-anchor="start" x="324.0219" y="-173.3" font-family="Helvetica,sans-Serif" font-size="11.00" fill="#000000">[table]</text>
<polygon fill="none" stroke="#000000" points="209.5,-143.2 209.5,-165.2 358.5,-165.2 358.5,-143.2 209.5,-143.2"/>
<image xlink:href="../../images/primaryKeys.png" width="11px" height="12px" preserveAspectRatio="xMinYMin meet" x="214.5" y="-160.2"/>
<text text-anchor="start" x="232.5" y="-150.3" font-family="Helvetica,sans-Serif" font-size="11.00" fill="#000000">DS_ID</text>
<polygon fill="none" stroke="#000000" points="209.5,-124.2 209.5,-143.2 358.5,-143.2 358.5,-124.2 209.5,-124.2"/>
<text text-anchor="start" x="212.5" y="-130.3" font-family="Helvetica,sans-Serif" font-size="11.00" fill="#000000">...</text>
<polygon fill="#ffffff" stroke="transparent" points="209.5,-105.2 209.5,-124.2 264.5,-124.2 264.5,-105.2 209.5,-105.2"/>
<polygon fill="none" stroke="#000000" points="209.5,-105.2 209.5,-124.2 264.5,-124.2 264.5,-105.2 209.5,-105.2"/>
<text text-anchor="start" x="212.5" y="-111.3" font-family="Helvetica,sans-Serif" font-size="11.00" fill="#000000">&lt; 1</text>
<polygon fill="#ffffff" stroke="transparent" points="264.5,-105.2 264.5,-124.2 319.5,-124.2 319.5,-105.2 264.5,-105.2"/>
<polygon fill="none" stroke="#000000" points="264.5,-105.2 264.5,-124.2 319.5,-124.2 319.5,-105.2 264.5,-105.2"/>
<text text-anchor="start" x="284.1105" y="-111.3" font-family="Helvetica,sans-Serif" font-size="11.00" fill="#000000">0 rows</text>
<polygon fill="#ffffff" stroke="transparent" points="319.5,-105.2 319.5,-124.2 358.5,-124.2 358.5,-105.2 319.5,-105.2"/>
<polygon fill="none" stroke="#000000" points="319.5,-105.2 319.5,-124.2 358.5,-124.2 358.5,-105.2 319.5,-105.2"/>
<text text-anchor="start" x="339.9053" y="-111.3" font-family="Helvetica,sans-Serif" font-size="11.00" fill="#000000">2 &gt;</text>
</a>
</g>
</g>
<!-- METADATA_Datasets -->
<g id="node2" class="node">
<title>METADATA_Datasets</title>
<g id="a_node2"><a xlink:href="../../tables/METADATA_Datasets.html" xlink:title="METADATA_Datasets" target="_top">
<polygon fill="#ffffff" stroke="transparent" points="8,-105.7 8,-188.7 160,-188.7 160,-105.7 8,-105.7"/>
<polygon fill="#f5f5f5" stroke="transparent" points="8,-165.2 8,-188.2 160,-188.2 160,-165.2 8,-165.2"/>
<polygon fill="none" stroke="#000000" points="8,-165.2 8,-188.2 160,-188.2 160,-165.2 8,-165.2"/>
<text text-anchor="start" x="12.7997" y="-174.3" font-family="Helvetica,sans-Serif" font-weight="bold" font-size="11.00" fill="#000000">METADATA_Datasets</text>
<text text-anchor="start" x="125.5219" y="-173.3" font-family="Helvetica,sans-Serif" font-size="11.00" fill="#000000">[table]</text>
<polygon fill="none" stroke="#000000" points="8,-143.2 8,-165.2 160,-165.2 160,-143.2 8,-143.2"/>
<image xlink:href="../../images/primaryKeys.png" width="11px" height="12px" preserveAspectRatio="xMinYMin meet" x="13" y="-160.2"/>
<text text-anchor="start" x="32" y="-150.3" font-family="Helvetica,sans-Serif" font-size="11.00" fill="#000000">DS_ID</text>
<polygon fill="none" stroke="#000000" points="8,-124.2 8,-143.2 160,-143.2 160,-124.2 8,-124.2"/>
<text text-anchor="start" x="11" y="-130.3" font-family="Helvetica,sans-Serif" font-size="11.00" fill="#000000">...</text>
<polygon fill="#ffffff" stroke="transparent" points="8,-105.2 8,-124.2 57,-124.2 57,-105.2 8,-105.2"/>
<polygon fill="none" stroke="#000000" points="8,-105.2 8,-124.2 57,-124.2 57,-105.2 8,-105.2"/>
<text text-anchor="start" x="11" y="-111.3" font-family="Helvetica,sans-Serif" font-size="11.00" fill="#000000"> &#160;</text>
<polygon fill="#ffffff" stroke="transparent" points="57,-105.2 57,-124.2 114,-124.2 114,-105.2 57,-105.2"/>
<polygon fill="none" stroke="#000000" points="57,-105.2 57,-124.2 114,-124.2 114,-105.2 57,-105.2"/>
<text text-anchor="start" x="78.6105" y="-111.3" font-family="Helvetica,sans-Serif" font-size="11.00" fill="#000000">0 rows</text>
<polygon fill="#ffffff" stroke="transparent" points="114,-105.2 114,-124.2 160,-124.2 160,-105.2 114,-105.2"/>
<polygon fill="none" stroke="#000000" points="114,-105.2 114,-124.2 160,-124.2 160,-105.2 114,-105.2"/>
<text text-anchor="start" x="135.2904" y="-111.3" font-family="Helvetica,sans-Serif" font-size="11.00" fill="#000000">43 &gt;</text>
</a>
</g>
</g>
<!-- METADATA_Geology&#45;&gt;METADATA_Datasets -->
<g id="edge1" class="edge">
<title>METADATA_Geology:w&#45;&gt;METADATA_Datasets:e</title>
<path fill="none" stroke="#000000" d="M199.0474,-154.2C184.9907,-154.2 178.0469,-154.2 160,-154.2"/>
<polygon fill="#000000" stroke="#000000" points="208.7,-150.2 208.7,-158.2 207.1,-158.2 207.1,-150.2 208.7,-150.2"/>
<polyline fill="none" stroke="#000000" points="209.5,-154.2 205.5,-154.2 "/>
<ellipse fill="none" stroke="#000000" cx="202.3" cy="-154.2001" rx="3.2" ry="3.2"/>
</g>
<!-- PTOBS_Geology -->
<g id="node3" class="node">
<title>PTOBS_Geology</title>
<g id="a_node3"><a xlink:href="../../tables/PTOBS_Geology.html" xlink:title="PTOBS_Geology" target="_top">
<polygon fill="#ffffff" stroke="transparent" points="407,-38.2 407,-304.2 658,-304.2 658,-38.2 407,-38.2"/>
<polygon fill="#f5f5f5" stroke="transparent" points="409.5,-279.2 409.5,-302.2 656.5,-302.2 656.5,-279.2 409.5,-279.2"/>
<polygon fill="none" stroke="#000000" points="409.5,-279.2 409.5,-302.2 656.5,-302.2 656.5,-279.2 409.5,-279.2"/>
<text text-anchor="start" x="414.5" y="-288.3" font-family="Helvetica,sans-Serif" font-weight="bold" font-size="11.00" fill="#000000">PTOBS_Geology</text>
<text text-anchor="start" x="621.5437" y="-287.3" font-family="Helvetica,sans-Serif" font-size="11.00" fill="#000000">[table]</text>
<polygon fill="none" stroke="#000000" points="409.5,-257.2 409.5,-279.2 526.5,-279.2 526.5,-257.2 409.5,-257.2"/>
<text text-anchor="start" x="429.5" y="-264.3" font-family="Helvetica,sans-Serif" font-size="11.00" fill="#000000">Source_File</text>
<polygon fill="none" stroke="#000000" points="526.5,-257.2 526.5,-279.2 656.5,-279.2 656.5,-257.2 526.5,-257.2"/>
<text text-anchor="start" x="529.5" y="-264.9" font-family="Helvetica,sans-Serif" font-size="11.00" fill="#000000">text[2000000000,10]</text>
<polygon fill="none" stroke="#000000" points="409.5,-235.2 409.5,-257.2 526.5,-257.2 526.5,-235.2 409.5,-235.2"/>
<image xlink:href="../../images/primaryKeys.png" width="11px" height="12px" preserveAspectRatio="xMinYMin meet" x="414.5" y="-252.2"/>
<text text-anchor="start" x="429.5" y="-242.3" font-family="Helvetica,sans-Serif" font-size="11.00" fill="#000000">PT_ID</text>
<polygon fill="none" stroke="#000000" points="526.5,-235.2 526.5,-257.2 656.5,-257.2 656.5,-235.2 526.5,-235.2"/>
<text text-anchor="start" x="529.5" y="-242.9" font-family="Helvetica,sans-Serif" font-size="11.00" fill="#000000">integer[2000000000,10]</text>
<polygon fill="none" stroke="#000000" points="409.5,-213.2 409.5,-235.2 526.5,-235.2 526.5,-213.2 409.5,-213.2"/>
<image xlink:href="../../images/primaryKeys.png" width="11px" height="12px" preserveAspectRatio="xMinYMin meet" x="414.5" y="-230.2"/>
<text text-anchor="start" x="429.5" y="-220.3" font-family="Helvetica,sans-Serif" font-size="11.00" fill="#000000">EQ_ID</text>
<polygon fill="none" stroke="#000000" points="526.5,-213.2 526.5,-235.2 656.5,-235.2 656.5,-213.2 526.5,-213.2"/>
<text text-anchor="start" x="529.5" y="-220.9" font-family="Helvetica,sans-Serif" font-size="11.00" fill="#000000">integer[2000000000,10]</text>
<polygon fill="none" stroke="#000000" points="409.5,-191.2 409.5,-213.2 526.5,-213.2 526.5,-191.2 409.5,-191.2"/>
<text text-anchor="start" x="429.5" y="-198.3" font-family="Helvetica,sans-Serif" font-size="11.00" fill="#000000">Geo_Age</text>
<polygon fill="none" stroke="#000000" points="526.5,-191.2 526.5,-213.2 656.5,-213.2 656.5,-191.2 526.5,-191.2"/>
<text text-anchor="start" x="529.5" y="-198.9" font-family="Helvetica,sans-Serif" font-size="11.00" fill="#000000">text[2000000000,10]</text>
<polygon fill="none" stroke="#000000" points="409.5,-169.2 409.5,-191.2 526.5,-191.2 526.5,-169.2 409.5,-169.2"/>
<text text-anchor="start" x="429.5" y="-176.3" font-family="Helvetica,sans-Serif" font-size="11.00" fill="#000000">Lithology</text>
<polygon fill="none" stroke="#000000" points="526.5,-169.2 526.5,-191.2 656.5,-191.2 656.5,-169.2 526.5,-169.2"/>
<text text-anchor="start" x="529.5" y="-176.9" font-family="Helvetica,sans-Serif" font-size="11.00" fill="#000000">text[2000000000,10]</text>
<polygon fill="none" stroke="#000000" points="409.5,-147.2 409.5,-169.2 526.5,-169.2 526.5,-147.2 409.5,-147.2"/>
<image xlink:href="../../images/primaryKeys.png" width="11px" height="12px" preserveAspectRatio="xMinYMin meet" x="414.5" y="-164.2"/>
<text text-anchor="start" x="429.5" y="-154.3" font-family="Helvetica,sans-Serif" font-size="11.00" fill="#000000">GEO_DS_ID</text>
<polygon fill="none" stroke="#000000" points="526.5,-147.2 526.5,-169.2 656.5,-169.2 656.5,-147.2 526.5,-147.2"/>
<text text-anchor="start" x="529.5" y="-154.9" font-family="Helvetica,sans-Serif" font-size="11.00" fill="#000000">integer[2000000000,10]</text>
<polygon fill="none" stroke="#000000" points="409.5,-125.2 409.5,-147.2 526.5,-147.2 526.5,-125.2 409.5,-125.2"/>
<text text-anchor="start" x="429.5" y="-132.3" font-family="Helvetica,sans-Serif" font-size="11.00" fill="#000000">Geology</text>
<polygon fill="none" stroke="#000000" points="526.5,-125.2 526.5,-147.2 656.5,-147.2 656.5,-125.2 526.5,-125.2"/>
<text text-anchor="start" x="529.5" y="-132.9" font-family="Helvetica,sans-Serif" font-size="11.00" fill="#000000">text[2000000000,10]</text>
<polygon fill="none" stroke="#000000" points="409.5,-103.2 409.5,-125.2 526.5,-125.2 526.5,-103.2 409.5,-103.2"/>
<text text-anchor="start" x="429.5" y="-110.3" font-family="Helvetica,sans-Serif" font-size="11.00" fill="#000000">Dist2Rock</text>
<polygon fill="none" stroke="#000000" points="526.5,-103.2 526.5,-125.2 656.5,-125.2 656.5,-103.2 526.5,-103.2"/>
<text text-anchor="start" x="529.5" y="-110.9" font-family="Helvetica,sans-Serif" font-size="11.00" fill="#000000">float[2000000000,10]</text>
<polygon fill="none" stroke="#000000" points="409.5,-81.2 409.5,-103.2 526.5,-103.2 526.5,-81.2 409.5,-81.2"/>
<text text-anchor="start" x="429.5" y="-88.3" font-family="Helvetica,sans-Serif" font-size="11.00" fill="#000000">Date_Added</text>
<polygon fill="none" stroke="#000000" points="526.5,-81.2 526.5,-103.2 656.5,-103.2 656.5,-81.2 526.5,-81.2"/>
<text text-anchor="start" x="529.1372" y="-88.9" font-family="Helvetica,sans-Serif" font-size="11.00" fill="#000000">datetime[2000000000,10]</text>
<polygon fill="none" stroke="#000000" points="409.5,-59.2 409.5,-81.2 526.5,-81.2 526.5,-59.2 409.5,-59.2"/>
<image xlink:href="../../images/primaryKeys.png" width="11px" height="12px" preserveAspectRatio="xMinYMin meet" x="414.5" y="-76.2"/>
<text text-anchor="start" x="429.5" y="-66.3" font-family="Helvetica,sans-Serif" font-size="11.00" fill="#000000">PT_DS_ID</text>
<polygon fill="none" stroke="#000000" points="526.5,-59.2 526.5,-81.2 656.5,-81.2 656.5,-59.2 526.5,-59.2"/>
<text text-anchor="start" x="529.5" y="-66.9" font-family="Helvetica,sans-Serif" font-size="11.00" fill="#000000">integer[2000000000,10]</text>
<polygon fill="#ffffff" stroke="transparent" points="409.5,-40.2 409.5,-59.2 459.5,-59.2 459.5,-40.2 409.5,-40.2"/>
<polygon fill="none" stroke="#000000" points="409.5,-40.2 409.5,-59.2 459.5,-59.2 459.5,-40.2 409.5,-40.2"/>
<text text-anchor="start" x="412.5" y="-46.3" font-family="Helvetica,sans-Serif" font-size="11.00" fill="#000000">&lt; 4</text>
<polygon fill="#ffffff" stroke="transparent" points="459.5,-40.2 459.5,-59.2 526.5,-59.2 526.5,-40.2 459.5,-40.2"/>
<polygon fill="none" stroke="#000000" points="459.5,-40.2 459.5,-59.2 526.5,-59.2 526.5,-40.2 459.5,-40.2"/>
<text text-anchor="start" x="491.1105" y="-46.3" font-family="Helvetica,sans-Serif" font-size="11.00" fill="#000000">0 rows</text>
<polygon fill="#ffffff" stroke="transparent" points="526.5,-40.2 526.5,-59.2 656.5,-59.2 656.5,-40.2 526.5,-40.2"/>
<polygon fill="none" stroke="#000000" points="526.5,-40.2 526.5,-59.2 656.5,-59.2 656.5,-40.2 526.5,-40.2"/>
<text text-anchor="start" x="637.9053" y="-46.3" font-family="Helvetica,sans-Serif" font-size="11.00" fill="#000000">0 &gt;</text>
<polygon fill="none" stroke="#000000" stroke-width="2" points="408,-39.2 408,-303.2 657,-303.2 657,-39.2 408,-39.2"/>
</a>
</g>
</g>
<!-- PTOBS_Geology&#45;&gt;METADATA_Geology -->
<g id="edge3" class="edge">
<title>PTOBS_Geology:w&#45;&gt;METADATA_Geology:e</title>
<path fill="none" stroke="#000000" d="M394.7566,-157.5395C382.7698,-156.4034 375.3746,-154.2 358.5,-154.2"/>
<polygon fill="#000000" stroke="#000000" points="401.508,-157.8419 409.3389,-161.7964 405.504,-158.0209 409.5,-158.2 409.5,-158.2 409.5,-158.2 405.504,-158.0209 409.6611,-154.6036 401.508,-157.8419 401.508,-157.8419"/>
<ellipse fill="none" stroke="#000000" cx="398.3112" cy="-157.6987" rx="3.2" ry="3.2"/>
</g>
<!-- PTOBS_Geology&#45;&gt;METADATA_Datasets -->
<g id="edge4" class="edge">
<title>PTOBS_Geology:w&#45;&gt;METADATA_Datasets:e</title>
<path fill="none" stroke="#000000" d="M394.9487,-70.0147C312.2605,-67.9242 276.6865,-49.6858 201,-95.2 173.6348,-111.6561 191.932,-154.2 160,-154.2"/>
<polygon fill="#000000" stroke="#000000" points="401.5006,-70.0981 409.4541,-73.7997 405.5003,-70.149 409.5,-70.2 409.5,-70.2 409.5,-70.2 405.5003,-70.149 409.5459,-66.6003 401.5006,-70.0981 401.5006,-70.0981"/>
<ellipse fill="none" stroke="#000000" cx="398.3009" cy="-70.0573" rx="3.2" ry="3.2"/>
</g>
<!-- METADATA_Events -->
<g id="node4" class="node">
<title>METADATA_Events</title>
<g id="a_node4"><a xlink:href="../../tables/METADATA_Events.html" xlink:title="METADATA_Events" target="_top">
<polygon fill="#ffffff" stroke="transparent" points="13,-234.7 13,-317.7 155,-317.7 155,-234.7 13,-234.7"/>
<polygon fill="#f5f5f5" stroke="transparent" points="13,-294.2 13,-317.2 155,-317.2 155,-294.2 13,-294.2"/>
<polygon fill="none" stroke="#000000" points="13,-294.2 13,-317.2 155,-317.2 155,-294.2 13,-294.2"/>
<text text-anchor="start" x="17.6881" y="-303.3" font-family="Helvetica,sans-Serif" font-weight="bold" font-size="11.00" fill="#000000">METADATA_Events</text>
<text text-anchor="start" x="120.5219" y="-302.3" font-family="Helvetica,sans-Serif" font-size="11.00" fill="#000000">[table]</text>
<polygon fill="none" stroke="#000000" points="13,-272.2 13,-294.2 155,-294.2 155,-272.2 13,-272.2"/>
<image xlink:href="../../images/primaryKeys.png" width="11px" height="12px" preserveAspectRatio="xMinYMin meet" x="18" y="-289.2"/>
<text text-anchor="start" x="37" y="-279.3" font-family="Helvetica,sans-Serif" font-size="11.00" fill="#000000">EQ_ID</text>
<polygon fill="none" stroke="#000000" points="13,-253.2 13,-272.2 155,-272.2 155,-253.2 13,-253.2"/>
<text text-anchor="start" x="16" y="-259.3" font-family="Helvetica,sans-Serif" font-size="11.00" fill="#000000">...</text>
<polygon fill="#ffffff" stroke="transparent" points="13,-234.2 13,-253.2 57,-253.2 57,-234.2 13,-234.2"/>
<polygon fill="none" stroke="#000000" points="13,-234.2 13,-253.2 57,-253.2 57,-234.2 13,-234.2"/>
<text text-anchor="start" x="16" y="-240.3" font-family="Helvetica,sans-Serif" font-size="11.00" fill="#000000"> &#160;</text>
<polygon fill="#ffffff" stroke="transparent" points="57,-234.2 57,-253.2 111,-253.2 111,-234.2 57,-234.2"/>
<polygon fill="none" stroke="#000000" points="57,-234.2 57,-253.2 111,-253.2 111,-234.2 57,-234.2"/>
<text text-anchor="start" x="75.6105" y="-240.3" font-family="Helvetica,sans-Serif" font-size="11.00" fill="#000000">0 rows</text>
<polygon fill="#ffffff" stroke="transparent" points="111,-234.2 111,-253.2 155,-253.2 155,-234.2 111,-234.2"/>
<polygon fill="none" stroke="#000000" points="111,-234.2 111,-253.2 155,-253.2 155,-234.2 111,-234.2"/>
<text text-anchor="start" x="130.2904" y="-240.3" font-family="Helvetica,sans-Serif" font-size="11.00" fill="#000000">40 &gt;</text>
</a>
</g>
</g>
<!-- PTOBS_Geology&#45;&gt;METADATA_Events -->
<g id="edge2" class="edge">
<title>PTOBS_Geology:w&#45;&gt;METADATA_Events:e</title>
<path fill="none" stroke="#000000" d="M395.0719,-223.8957C313.2038,-220.4265 280.0153,-189.1524 201,-227.2 171.9799,-241.1738 187.2092,-283.2 155,-283.2"/>
<polygon fill="#000000" stroke="#000000" points="401.5018,-224.0313 409.4241,-227.7992 405.5009,-224.1156 409.5,-224.2 409.5,-224.2 409.5,-224.2 405.5009,-224.1156 409.5759,-220.6008 401.5018,-224.0313 401.5018,-224.0313"/>
<ellipse fill="none" stroke="#000000" cx="398.3025" cy="-223.9638" rx="3.2" ry="3.2"/>
</g>
<!-- PTOBS_ID -->
<g id="node5" class="node">
<title>PTOBS_ID</title>
<g id="a_node5"><a xlink:href="../../tables/PTOBS_ID.html" xlink:title="PTOBS_ID" target="_top">
<polygon fill="#ffffff" stroke="transparent" points="235,-237.7 235,-364.7 332,-364.7 332,-237.7 235,-237.7"/>
<polygon fill="#f5f5f5" stroke="transparent" points="235.5,-341.2 235.5,-364.2 332.5,-364.2 332.5,-341.2 235.5,-341.2"/>
<polygon fill="none" stroke="#000000" points="235.5,-341.2 235.5,-364.2 332.5,-364.2 332.5,-341.2 235.5,-341.2"/>
<text text-anchor="start" x="240.3014" y="-350.3" font-family="Helvetica,sans-Serif" font-weight="bold" font-size="11.00" fill="#000000">PTOBS_ID</text>
<text text-anchor="start" x="298.0219" y="-349.3" font-family="Helvetica,sans-Serif" font-size="11.00" fill="#000000">[table]</text>
<polygon fill="none" stroke="#000000" points="235.5,-319.2 235.5,-341.2 332.5,-341.2 332.5,-319.2 235.5,-319.2"/>
<image xlink:href="../../images/primaryKeys.png" width="11px" height="12px" preserveAspectRatio="xMinYMin meet" x="240.5" y="-336.2"/>
<text text-anchor="start" x="258.5" y="-326.3" font-family="Helvetica,sans-Serif" font-size="11.00" fill="#000000">PT_ID</text>
<polygon fill="none" stroke="#000000" points="235.5,-297.2 235.5,-319.2 332.5,-319.2 332.5,-297.2 235.5,-297.2"/>
<image xlink:href="../../images/primaryKeys.png" width="11px" height="12px" preserveAspectRatio="xMinYMin meet" x="240.5" y="-314.2"/>
<text text-anchor="start" x="258.5" y="-304.3" font-family="Helvetica,sans-Serif" font-size="11.00" fill="#000000">EQ_ID</text>
<polygon fill="none" stroke="#000000" points="235.5,-275.2 235.5,-297.2 332.5,-297.2 332.5,-275.2 235.5,-275.2"/>
<image xlink:href="../../images/primaryKeys.png" width="11px" height="12px" preserveAspectRatio="xMinYMin meet" x="240.5" y="-292.2"/>
<text text-anchor="start" x="258.5" y="-282.3" font-family="Helvetica,sans-Serif" font-size="11.00" fill="#000000">DS_ID</text>
<polygon fill="none" stroke="#000000" points="235.5,-256.2 235.5,-275.2 332.5,-275.2 332.5,-256.2 235.5,-256.2"/>
<text text-anchor="start" x="238.5" y="-262.3" font-family="Helvetica,sans-Serif" font-size="11.00" fill="#000000">...</text>
<polygon fill="#ffffff" stroke="transparent" points="235.5,-237.2 235.5,-256.2 261.5,-256.2 261.5,-237.2 235.5,-237.2"/>
<polygon fill="none" stroke="#000000" points="235.5,-237.2 235.5,-256.2 261.5,-256.2 261.5,-237.2 235.5,-237.2"/>
<text text-anchor="start" x="238.5" y="-243.3" font-family="Helvetica,sans-Serif" font-size="11.00" fill="#000000">&lt; 2</text>
<polygon fill="#ffffff" stroke="transparent" points="261.5,-237.2 261.5,-256.2 302.5,-256.2 302.5,-237.2 261.5,-237.2"/>
<polygon fill="none" stroke="#000000" points="261.5,-237.2 261.5,-256.2 302.5,-256.2 302.5,-237.2 261.5,-237.2"/>
<text text-anchor="start" x="267.1105" y="-243.3" font-family="Helvetica,sans-Serif" font-size="11.00" fill="#000000">0 rows</text>
<polygon fill="#ffffff" stroke="transparent" points="302.5,-237.2 302.5,-256.2 332.5,-256.2 332.5,-237.2 302.5,-237.2"/>
<polygon fill="none" stroke="#000000" points="302.5,-237.2 302.5,-256.2 332.5,-256.2 332.5,-237.2 302.5,-237.2"/>
<text text-anchor="start" x="307.7904" y="-243.3" font-family="Helvetica,sans-Serif" font-size="11.00" fill="#000000">27 &gt;</text>
</a>
</g>
</g>
<!-- PTOBS_Geology&#45;&gt;PTOBS_ID -->
<g id="edge5" class="edge">
<title>PTOBS_Geology:w&#45;&gt;PTOBS_ID:e</title>
<path fill="none" stroke="#000000" d="M394.9555,-249.1896C363.3965,-264.1533 377.4081,-330.2 332.5,-330.2"/>
<polygon fill="#000000" stroke="#000000" points="401.6638,-247.8108 410.2248,-249.7263 405.5819,-247.0054 409.5,-246.2 409.5,-246.2 409.5,-246.2 405.5819,-247.0054 408.7752,-242.6737 401.6638,-247.8108 401.6638,-247.8108"/>
<ellipse fill="none" stroke="#000000" cx="398.5294" cy="-248.4551" rx="3.2" ry="3.2"/>
</g>
<!-- PTOBS_ID&#45;&gt;METADATA_Datasets -->
<g id="edge6" class="edge">
<title>PTOBS_ID:w&#45;&gt;METADATA_Datasets:e</title>
<path fill="none" stroke="#000000" d="M221.2962,-283.681C176.8482,-265.432 222.0411,-154.2 160,-154.2"/>
<polygon fill="#000000" stroke="#000000" points="227.6229,-284.803 234.8713,-289.7447 231.5615,-285.5015 235.5,-286.2 235.5,-286.2 235.5,-286.2 231.5615,-285.5015 236.1287,-282.6553 227.6229,-284.803 227.6229,-284.803"/>
<ellipse fill="none" stroke="#000000" cx="224.4721" cy="-284.2442" rx="3.2" ry="3.2"/>
</g>
<!-- PTOBS_ID&#45;&gt;METADATA_Events -->
<g id="edge7" class="edge">
<title>PTOBS_ID:w&#45;&gt;METADATA_Events:e</title>
<path fill="none" stroke="#000000" d="M221.062,-306.7843C195.7594,-301.4957 187.0488,-283.2 155,-283.2"/>
<polygon fill="#000000" stroke="#000000" points="227.5382,-307.4192 235.1487,-311.7828 231.5191,-307.8096 235.5,-308.2 235.5,-308.2 235.5,-308.2 231.5191,-307.8096 235.8513,-304.6172 227.5382,-307.4192 227.5382,-307.4192"/>
<ellipse fill="none" stroke="#000000" cx="224.3535" cy="-307.1069" rx="3.2" ry="3.2"/>
</g>
</g>
</svg>
