<?xml version="1.0" encoding="UTF-8" standalone="no"?>
<!DOCTYPE svg PUBLIC "-//W3C//DTD SVG 1.1//EN"
 "http://www.w3.org/Graphics/SVG/1.1/DTD/svg11.dtd">
<!-- Generated by graphviz version 2.40.1 (20161225.0304)
 -->
<!-- Title: oneDegreeRelationshipsDiagram Pages: 1 -->
<svg width="623pt" height="348pt"
 viewBox="0.00 0.00 623.00 347.70" xmlns="http://www.w3.org/2000/svg" xmlns:xlink="http://www.w3.org/1999/xlink">
<g id="graph0" class="graph" transform="scale(1 1) rotate(0) translate(4 343.7)">
<title>oneDegreeRelationshipsDiagram</title>
<polygon fill="#ffffff" stroke="transparent" points="-4,4 -4,-343.7 619,-343.7 619,4 -4,4"/>
<text text-anchor="middle" x="72.4936" y="-7.3" font-family="Helvetica,sans-Serif" font-size="11.00" fill="#000000">Generated by SchemaSpy</text>
<!-- PTOBS_ID -->
<g id="node1" class="node">
<title>PTOBS_ID</title>
<g id="a_node1"><a xlink:href="../../tables/PTOBS_ID.html" xlink:title="PTOBS_ID" target="_top">
<polygon fill="#ffffff" stroke="transparent" points="209,-75.2 209,-202.2 306,-202.2 306,-75.2 209,-75.2"/>
<polygon fill="#f5f5f5" stroke="transparent" points="209.5,-178.7 209.5,-201.7 306.5,-201.7 306.5,-178.7 209.5,-178.7"/>
<polygon fill="none" stroke="#000000" points="209.5,-178.7 209.5,-201.7 306.5,-201.7 306.5,-178.7 209.5,-178.7"/>
<text text-anchor="start" x="214.3014" y="-187.8" font-family="Helvetica,sans-Serif" font-weight="bold" font-size="11.00" fill="#000000">PTOBS_ID</text>
<text text-anchor="start" x="272.0219" y="-186.8" font-family="Helvetica,sans-Serif" font-size="11.00" fill="#000000">[table]</text>
<polygon fill="none" stroke="#000000" points="209.5,-156.7 209.5,-178.7 306.5,-178.7 306.5,-156.7 209.5,-156.7"/>
<image xlink:href="../../images/primaryKeys.png" width="11px" height="12px" preserveAspectRatio="xMinYMin meet" x="214.5" y="-173.7"/>
<text text-anchor="start" x="232.5" y="-163.8" font-family="Helvetica,sans-Serif" font-size="11.00" fill="#000000">PT_ID</text>
<polygon fill="none" stroke="#000000" points="209.5,-134.7 209.5,-156.7 306.5,-156.7 306.5,-134.7 209.5,-134.7"/>
<image xlink:href="../../images/primaryKeys.png" width="11px" height="12px" preserveAspectRatio="xMinYMin meet" x="214.5" y="-151.7"/>
<text text-anchor="start" x="232.5" y="-141.8" font-family="Helvetica,sans-Serif" font-size="11.00" fill="#000000">EQ_ID</text>
<polygon fill="none" stroke="#000000" points="209.5,-112.7 209.5,-134.7 306.5,-134.7 306.5,-112.7 209.5,-112.7"/>
<image xlink:href="../../images/primaryKeys.png" width="11px" height="12px" preserveAspectRatio="xMinYMin meet" x="214.5" y="-129.7"/>
<text text-anchor="start" x="232.5" y="-119.8" font-family="Helvetica,sans-Serif" font-size="11.00" fill="#000000">DS_ID</text>
<polygon fill="none" stroke="#000000" points="209.5,-93.7 209.5,-112.7 306.5,-112.7 306.5,-93.7 209.5,-93.7"/>
<text text-anchor="start" x="212.5" y="-99.8" font-family="Helvetica,sans-Serif" font-size="11.00" fill="#000000">...</text>
<polygon fill="#ffffff" stroke="transparent" points="209.5,-74.7 209.5,-93.7 235.5,-93.7 235.5,-74.7 209.5,-74.7"/>
<polygon fill="none" stroke="#000000" points="209.5,-74.7 209.5,-93.7 235.5,-93.7 235.5,-74.7 209.5,-74.7"/>
<text text-anchor="start" x="212.5" y="-80.8" font-family="Helvetica,sans-Serif" font-size="11.00" fill="#000000">&lt; 2</text>
<polygon fill="#ffffff" stroke="transparent" points="235.5,-74.7 235.5,-93.7 276.5,-93.7 276.5,-74.7 235.5,-74.7"/>
<polygon fill="none" stroke="#000000" points="235.5,-74.7 235.5,-93.7 276.5,-93.7 276.5,-74.7 235.5,-74.7"/>
<text text-anchor="start" x="241.1105" y="-80.8" font-family="Helvetica,sans-Serif" font-size="11.00" fill="#000000">0 rows</text>
<polygon fill="#ffffff" stroke="transparent" points="276.5,-74.7 276.5,-93.7 306.5,-93.7 306.5,-74.7 276.5,-74.7"/>
<polygon fill="none" stroke="#000000" points="276.5,-74.7 276.5,-93.7 306.5,-93.7 306.5,-74.7 276.5,-74.7"/>
<text text-anchor="start" x="281.7904" y="-80.8" font-family="Helvetica,sans-Serif" font-size="11.00" fill="#000000">27 &gt;</text>
</a>
</g>
</g>
<!-- METADATA_Datasets -->
<g id="node2" class="node">
<title>METADATA_Datasets</title>
<g id="a_node2"><a xlink:href="../../tables/METADATA_Datasets.html" xlink:title="METADATA_Datasets" target="_top">
<polygon fill="#ffffff" stroke="transparent" points="8,-160.2 8,-243.2 160,-243.2 160,-160.2 8,-160.2"/>
<polygon fill="#f5f5f5" stroke="transparent" points="8,-219.7 8,-242.7 160,-242.7 160,-219.7 8,-219.7"/>
<polygon fill="none" stroke="#000000" points="8,-219.7 8,-242.7 160,-242.7 160,-219.7 8,-219.7"/>
<text text-anchor="start" x="12.7997" y="-228.8" font-family="Helvetica,sans-Serif" font-weight="bold" font-size="11.00" fill="#000000">METADATA_Datasets</text>
<text text-anchor="start" x="125.5219" y="-227.8" font-family="Helvetica,sans-Serif" font-size="11.00" fill="#000000">[table]</text>
<polygon fill="none" stroke="#000000" points="8,-197.7 8,-219.7 160,-219.7 160,-197.7 8,-197.7"/>
<image xlink:href="../../images/primaryKeys.png" width="11px" height="12px" preserveAspectRatio="xMinYMin meet" x="13" y="-214.7"/>
<text text-anchor="start" x="32" y="-204.8" font-family="Helvetica,sans-Serif" font-size="11.00" fill="#000000">DS_ID</text>
<polygon fill="none" stroke="#000000" points="8,-178.7 8,-197.7 160,-197.7 160,-178.7 8,-178.7"/>
<text text-anchor="start" x="11" y="-184.8" font-family="Helvetica,sans-Serif" font-size="11.00" fill="#000000">...</text>
<polygon fill="#ffffff" stroke="transparent" points="8,-159.7 8,-178.7 57,-178.7 57,-159.7 8,-159.7"/>
<polygon fill="none" stroke="#000000" points="8,-159.7 8,-178.7 57,-178.7 57,-159.7 8,-159.7"/>
<text text-anchor="start" x="11" y="-165.8" font-family="Helvetica,sans-Serif" font-size="11.00" fill="#000000"> &#160;</text>
<polygon fill="#ffffff" stroke="transparent" points="57,-159.7 57,-178.7 114,-178.7 114,-159.7 57,-159.7"/>
<polygon fill="none" stroke="#000000" points="57,-159.7 57,-178.7 114,-178.7 114,-159.7 57,-159.7"/>
<text text-anchor="start" x="78.6105" y="-165.8" font-family="Helvetica,sans-Serif" font-size="11.00" fill="#000000">0 rows</text>
<polygon fill="#ffffff" stroke="transparent" points="114,-159.7 114,-178.7 160,-178.7 160,-159.7 114,-159.7"/>
<polygon fill="none" stroke="#000000" points="114,-159.7 114,-178.7 160,-178.7 160,-159.7 114,-159.7"/>
<text text-anchor="start" x="135.2904" y="-165.8" font-family="Helvetica,sans-Serif" font-size="11.00" fill="#000000">43 &gt;</text>
</a>
</g>
</g>
<!-- PTOBS_ID&#45;&gt;METADATA_Datasets -->
<g id="edge1" class="edge">
<title>PTOBS_ID:w&#45;&gt;METADATA_Datasets:e</title>
<path fill="none" stroke="#000000" d="M195.7306,-128.032C174.6294,-145.3534 197.7399,-208.7 160,-208.7"/>
<polygon fill="#000000" stroke="#000000" points="201.8688,-126.1009 210.5804,-127.1341 205.6844,-124.9005 209.5,-123.7 209.5,-123.7 209.5,-123.7 205.6844,-124.9005 208.4196,-120.2659 201.8688,-126.1009 201.8688,-126.1009"/>
<ellipse fill="none" stroke="#000000" cx="198.8163" cy="-127.0613" rx="3.2" ry="3.2"/>
</g>
<!-- METADATA_Events -->
<g id="node3" class="node">
<title>METADATA_Events</title>
<g id="a_node3"><a xlink:href="../../tables/METADATA_Events.html" xlink:title="METADATA_Events" target="_top">
<polygon fill="#ffffff" stroke="transparent" points="13,-38.2 13,-121.2 155,-121.2 155,-38.2 13,-38.2"/>
<polygon fill="#f5f5f5" stroke="transparent" points="13,-97.7 13,-120.7 155,-120.7 155,-97.7 13,-97.7"/>
<polygon fill="none" stroke="#000000" points="13,-97.7 13,-120.7 155,-120.7 155,-97.7 13,-97.7"/>
<text text-anchor="start" x="17.6881" y="-106.8" font-family="Helvetica,sans-Serif" font-weight="bold" font-size="11.00" fill="#000000">METADATA_Events</text>
<text text-anchor="start" x="120.5219" y="-105.8" font-family="Helvetica,sans-Serif" font-size="11.00" fill="#000000">[table]</text>
<polygon fill="none" stroke="#000000" points="13,-75.7 13,-97.7 155,-97.7 155,-75.7 13,-75.7"/>
<image xlink:href="../../images/primaryKeys.png" width="11px" height="12px" preserveAspectRatio="xMinYMin meet" x="18" y="-92.7"/>
<text text-anchor="start" x="37" y="-82.8" font-family="Helvetica,sans-Serif" font-size="11.00" fill="#000000">EQ_ID</text>
<polygon fill="none" stroke="#000000" points="13,-56.7 13,-75.7 155,-75.7 155,-56.7 13,-56.7"/>
<text text-anchor="start" x="16" y="-62.8" font-family="Helvetica,sans-Serif" font-size="11.00" fill="#000000">...</text>
<polygon fill="#ffffff" stroke="transparent" points="13,-37.7 13,-56.7 57,-56.7 57,-37.7 13,-37.7"/>
<polygon fill="none" stroke="#000000" points="13,-37.7 13,-56.7 57,-56.7 57,-37.7 13,-37.7"/>
<text text-anchor="start" x="16" y="-43.8" font-family="Helvetica,sans-Serif" font-size="11.00" fill="#000000"> &#160;</text>
<polygon fill="#ffffff" stroke="transparent" points="57,-37.7 57,-56.7 111,-56.7 111,-37.7 57,-37.7"/>
<polygon fill="none" stroke="#000000" points="57,-37.7 57,-56.7 111,-56.7 111,-37.7 57,-37.7"/>
<text text-anchor="start" x="75.6105" y="-43.8" font-family="Helvetica,sans-Serif" font-size="11.00" fill="#000000">0 rows</text>
<polygon fill="#ffffff" stroke="transparent" points="111,-37.7 111,-56.7 155,-56.7 155,-37.7 111,-37.7"/>
<polygon fill="none" stroke="#000000" points="111,-37.7 111,-56.7 155,-56.7 155,-37.7 111,-37.7"/>
<text text-anchor="start" x="130.2904" y="-43.8" font-family="Helvetica,sans-Serif" font-size="11.00" fill="#000000">40 &gt;</text>
</a>
</g>
</g>
<!-- PTOBS_ID&#45;&gt;METADATA_Events -->
<g id="edge2" class="edge">
<title>PTOBS_ID:w&#45;&gt;METADATA_Events:e</title>
<path fill="none" stroke="#000000" d="M195.7124,-141.4569C177.9305,-127.9287 184.841,-86.7 155,-86.7"/>
<polygon fill="#000000" stroke="#000000" points="201.8539,-143.3469 208.4411,-149.1407 205.6769,-144.5234 209.5,-145.7 209.5,-145.7 209.5,-145.7 205.6769,-144.5234 210.5589,-142.2593 201.8539,-143.3469 201.8539,-143.3469"/>
<ellipse fill="none" stroke="#000000" cx="198.7954" cy="-142.4056" rx="3.2" ry="3.2"/>
</g>
<!-- PTOBS_Off_ADS -->
<g id="node4" class="node">
<title>PTOBS_Off_ADS</title>
<g id="a_node4"><a xlink:href="../../tables/PTOBS_Off_ADS.html" xlink:title="PTOBS_Off_ADS" target="_top">
<polygon fill="#ffffff" stroke="transparent" points="355,-69.7 355,-335.7 607,-335.7 607,-69.7 355,-69.7"/>
<polygon fill="#f5f5f5" stroke="transparent" points="357,-310.7 357,-333.7 605,-333.7 605,-310.7 357,-310.7"/>
<polygon fill="none" stroke="#000000" points="357,-310.7 357,-333.7 605,-333.7 605,-310.7 357,-310.7"/>
<text text-anchor="start" x="362" y="-319.8" font-family="Helvetica,sans-Serif" font-weight="bold" font-size="11.00" fill="#000000">PTOBS_Off_ADS</text>
<text text-anchor="start" x="570.0437" y="-318.8" font-family="Helvetica,sans-Serif" font-size="11.00" fill="#000000">[table]</text>
<polygon fill="none" stroke="#000000" points="357,-288.7 357,-310.7 475,-310.7 475,-288.7 357,-288.7"/>
<text text-anchor="start" x="377" y="-295.8" font-family="Helvetica,sans-Serif" font-size="11.00" fill="#000000">Source_File</text>
<polygon fill="none" stroke="#000000" points="475,-288.7 475,-310.7 605,-310.7 605,-288.7 475,-288.7"/>
<text text-anchor="start" x="478" y="-296.4" font-family="Helvetica,sans-Serif" font-size="11.00" fill="#000000">text[2000000000,10]</text>
<polygon fill="none" stroke="#000000" points="357,-266.7 357,-288.7 475,-288.7 475,-266.7 357,-266.7"/>
<text text-anchor="start" x="377" y="-273.8" font-family="Helvetica,sans-Serif" font-size="11.00" fill="#000000">Off_ADS_Low</text>
<polygon fill="none" stroke="#000000" points="475,-266.7 475,-288.7 605,-288.7 605,-266.7 475,-266.7"/>
<text text-anchor="start" x="478" y="-274.4" font-family="Helvetica,sans-Serif" font-size="11.00" fill="#000000">float[2000000000,10]</text>
<polygon fill="none" stroke="#000000" points="357,-244.7 357,-266.7 475,-266.7 475,-244.7 357,-244.7"/>
<text text-anchor="start" x="377" y="-251.8" font-family="Helvetica,sans-Serif" font-size="11.00" fill="#000000">Off_ADS_High</text>
<polygon fill="none" stroke="#000000" points="475,-244.7 475,-266.7 605,-266.7 605,-244.7 475,-244.7"/>
<text text-anchor="start" x="478" y="-252.4" font-family="Helvetica,sans-Serif" font-size="11.00" fill="#000000">float[2000000000,10]</text>
<polygon fill="none" stroke="#000000" points="357,-222.7 357,-244.7 475,-244.7 475,-222.7 357,-222.7"/>
<text text-anchor="start" x="377" y="-229.8" font-family="Helvetica,sans-Serif" font-size="11.00" fill="#000000">Off_ADS_Central</text>
<polygon fill="none" stroke="#000000" points="475,-222.7 475,-244.7 605,-244.7 605,-222.7 475,-222.7"/>
<text text-anchor="start" x="478" y="-230.4" font-family="Helvetica,sans-Serif" font-size="11.00" fill="#000000">float[2000000000,10]</text>
<polygon fill="none" stroke="#000000" points="357,-200.7 357,-222.7 475,-222.7 475,-200.7 357,-200.7"/>
<image xlink:href="../../images/primaryKeys.png" width="11px" height="12px" preserveAspectRatio="xMinYMin meet" x="362" y="-217.7"/>
<text text-anchor="start" x="377" y="-207.8" font-family="Helvetica,sans-Serif" font-size="11.00" fill="#000000">DS_ID</text>
<polygon fill="none" stroke="#000000" points="475,-200.7 475,-222.7 605,-222.7 605,-200.7 475,-200.7"/>
<text text-anchor="start" x="478" y="-208.4" font-family="Helvetica,sans-Serif" font-size="11.00" fill="#000000">integer[2000000000,10]</text>
<polygon fill="none" stroke="#000000" points="357,-178.7 357,-200.7 475,-200.7 475,-178.7 357,-178.7"/>
<text text-anchor="start" x="377" y="-185.8" font-family="Helvetica,sans-Serif" font-size="11.00" fill="#000000">Off_ADS_flag</text>
<polygon fill="none" stroke="#000000" points="475,-178.7 475,-200.7 605,-200.7 605,-178.7 475,-178.7"/>
<text text-anchor="start" x="478" y="-186.4" font-family="Helvetica,sans-Serif" font-size="11.00" fill="#000000">float[2000000000,10]</text>
<polygon fill="none" stroke="#000000" points="357,-156.7 357,-178.7 475,-178.7 475,-156.7 357,-156.7"/>
<image xlink:href="../../images/primaryKeys.png" width="11px" height="12px" preserveAspectRatio="xMinYMin meet" x="362" y="-173.7"/>
<text text-anchor="start" x="377" y="-163.8" font-family="Helvetica,sans-Serif" font-size="11.00" fill="#000000">PT_ID</text>
<polygon fill="none" stroke="#000000" points="475,-156.7 475,-178.7 605,-178.7 605,-156.7 475,-156.7"/>
<text text-anchor="start" x="478" y="-164.4" font-family="Helvetica,sans-Serif" font-size="11.00" fill="#000000">integer[2000000000,10]</text>
<polygon fill="none" stroke="#000000" points="357,-134.7 357,-156.7 475,-156.7 475,-134.7 357,-134.7"/>
<image xlink:href="../../images/primaryKeys.png" width="11px" height="12px" preserveAspectRatio="xMinYMin meet" x="362" y="-151.7"/>
<text text-anchor="start" x="377" y="-141.8" font-family="Helvetica,sans-Serif" font-size="11.00" fill="#000000">EQ_ID</text>
<polygon fill="none" stroke="#000000" points="475,-134.7 475,-156.7 605,-156.7 605,-134.7 475,-134.7"/>
<text text-anchor="start" x="478" y="-142.4" font-family="Helvetica,sans-Serif" font-size="11.00" fill="#000000">integer[2000000000,10]</text>
<polygon fill="none" stroke="#000000" points="357,-112.7 357,-134.7 475,-134.7 475,-112.7 357,-112.7"/>
<text text-anchor="start" x="377" y="-119.8" font-family="Helvetica,sans-Serif" font-size="11.00" fill="#000000">Date_Added</text>
<polygon fill="none" stroke="#000000" points="475,-112.7 475,-134.7 605,-134.7 605,-112.7 475,-112.7"/>
<text text-anchor="start" x="477.6372" y="-120.4" font-family="Helvetica,sans-Serif" font-size="11.00" fill="#000000">datetime[2000000000,10]</text>
<polygon fill="none" stroke="#000000" points="357,-90.7 357,-112.7 475,-112.7 475,-90.7 357,-90.7"/>
<text text-anchor="start" x="377" y="-97.8" font-family="Helvetica,sans-Serif" font-size="11.00" fill="#000000">Downside</text>
<polygon fill="none" stroke="#000000" points="475,-90.7 475,-112.7 605,-112.7 605,-90.7 475,-90.7"/>
<text text-anchor="start" x="478" y="-98.4" font-family="Helvetica,sans-Serif" font-size="11.00" fill="#000000">text[2000000000,10]</text>
<polygon fill="#ffffff" stroke="transparent" points="357,-71.7 357,-90.7 407,-90.7 407,-71.7 357,-71.7"/>
<polygon fill="none" stroke="#000000" points="357,-71.7 357,-90.7 407,-90.7 407,-71.7 357,-71.7"/>
<text text-anchor="start" x="360" y="-77.8" font-family="Helvetica,sans-Serif" font-size="11.00" fill="#000000">&lt; 3</text>
<polygon fill="#ffffff" stroke="transparent" points="407,-71.7 407,-90.7 475,-90.7 475,-71.7 407,-71.7"/>
<polygon fill="none" stroke="#000000" points="407,-71.7 407,-90.7 475,-90.7 475,-71.7 407,-71.7"/>
<text text-anchor="start" x="439.6105" y="-77.8" font-family="Helvetica,sans-Serif" font-size="11.00" fill="#000000">0 rows</text>
<polygon fill="#ffffff" stroke="transparent" points="475,-71.7 475,-90.7 605,-90.7 605,-71.7 475,-71.7"/>
<polygon fill="none" stroke="#000000" points="475,-71.7 475,-90.7 605,-90.7 605,-71.7 475,-71.7"/>
<text text-anchor="start" x="586.4053" y="-77.8" font-family="Helvetica,sans-Serif" font-size="11.00" fill="#000000">0 &gt;</text>
<polygon fill="none" stroke="#000000" stroke-width="2" points="356,-70.7 356,-334.7 606,-334.7 606,-70.7 356,-70.7"/>
</a>
</g>
</g>
<!-- PTOBS_Off_ADS&#45;&gt;PTOBS_ID -->
<g id="edge5" class="edge">
<title>PTOBS_Off_ADS:w&#45;&gt;PTOBS_ID:e</title>
<path fill="none" stroke="#000000" d="M342.4203,-167.7C330.5435,-167.7 323.158,-167.7 306.5,-167.7"/>
<polygon fill="#000000" stroke="#000000" points="349,-167.7001 357,-171.3 353,-167.7 357,-167.7 357,-167.7 357,-167.7 353,-167.7 357,-164.1 349,-167.7001 349,-167.7001"/>
<ellipse fill="none" stroke="#000000" cx="345.8" cy="-167.7001" rx="3.2" ry="3.2"/>
</g>
<!-- PTOBS_Off_ADS&#45;&gt;METADATA_Datasets -->
<g id="edge3" class="edge">
<title>PTOBS_Off_ADS:w&#45;&gt;METADATA_Datasets:e</title>
<path fill="none" stroke="#000000" d="M342.4062,-211.8872C333.5023,-212.1319 327.1416,-212.5472 314,-212.7 263.7812,-213.2839 251.1629,-215.1412 201,-212.7 182.7129,-211.8101 178.3087,-208.7 160,-208.7"/>
<polygon fill="#000000" stroke="#000000" points="349.0007,-211.8026 357.0462,-215.2997 353.0003,-211.7513 357,-211.7 357,-211.7 357,-211.7 353.0003,-211.7513 356.9538,-208.1003 349.0007,-211.8026 349.0007,-211.8026"/>
<ellipse fill="none" stroke="#000000" cx="345.8009" cy="-211.8437" rx="3.2" ry="3.2"/>
</g>
<!-- PTOBS_Off_ADS&#45;&gt;METADATA_Events -->
<g id="edge4" class="edge">
<title>PTOBS_Off_ADS:w&#45;&gt;METADATA_Events:e</title>
<path fill="none" stroke="#000000" d="M342.9872,-141.8727C324.6321,-128.3248 343.6084,-82.5038 314,-64.7 270.9597,-38.8195 249.9781,-53.5905 201,-64.7 178.8991,-69.7131 177.6623,-86.7 155,-86.7"/>
<polygon fill="#000000" stroke="#000000" points="349.2827,-143.5921 356.0515,-149.1728 353.1413,-144.6461 357,-145.7 357,-145.7 357,-145.7 353.1413,-144.6461 357.9485,-142.2272 349.2827,-143.5921 349.2827,-143.5921"/>
<ellipse fill="none" stroke="#000000" cx="346.1957" cy="-142.749" rx="3.2" ry="3.2"/>
</g>
</g>
</svg>
