<?xml version="1.0" encoding="UTF-8" standalone="no"?>
<!DOCTYPE svg PUBLIC "-//W3C//DTD SVG 1.1//EN"
 "http://www.w3.org/Graphics/SVG/1.1/DTD/svg11.dtd">
<!-- Generated by graphviz version 2.40.1 (20161225.0304)
 -->
<!-- Title: oneDegreeRelationshipsDiagram Pages: 1 -->
<svg width="600pt" height="294pt"
 viewBox="0.00 0.00 600.00 294.20" xmlns="http://www.w3.org/2000/svg" xmlns:xlink="http://www.w3.org/1999/xlink">
<g id="graph0" class="graph" transform="scale(1 1) rotate(0) translate(4 290.2)">
<title>oneDegreeRelationshipsDiagram</title>
<polygon fill="#ffffff" stroke="transparent" points="-4,4 -4,-290.2 596,-290.2 596,4 -4,4"/>
<text text-anchor="middle" x="72.4936" y="-7.3" font-family="Helvetica,sans-Serif" font-size="11.00" fill="#000000">Generated by SchemaSpy</text>
<!-- PTOBS_FZW -->
<g id="node1" class="node">
<title>PTOBS_FZW</title>
<g id="a_node1"><a xlink:href="../../tables/PTOBS_FZW.html" xlink:title="PTOBS_FZW" target="_top">
<polygon fill="#ffffff" stroke="transparent" points="355,-38.2 355,-282.2 584,-282.2 584,-38.2 355,-38.2"/>
<polygon fill="#f5f5f5" stroke="transparent" points="357.5,-257.2 357.5,-280.2 582.5,-280.2 582.5,-257.2 357.5,-257.2"/>
<polygon fill="none" stroke="#000000" points="357.5,-257.2 357.5,-280.2 582.5,-280.2 582.5,-257.2 357.5,-257.2"/>
<text text-anchor="start" x="362.5" y="-266.3" font-family="Helvetica,sans-Serif" font-weight="bold" font-size="11.00" fill="#000000">PTOBS_FZW</text>
<text text-anchor="start" x="547.5437" y="-265.3" font-family="Helvetica,sans-Serif" font-size="11.00" fill="#000000">[table]</text>
<polygon fill="none" stroke="#000000" points="357.5,-235.2 357.5,-257.2 452.5,-257.2 452.5,-235.2 357.5,-235.2"/>
<text text-anchor="start" x="377.5" y="-242.3" font-family="Helvetica,sans-Serif" font-size="11.00" fill="#000000">Source_File</text>
<polygon fill="none" stroke="#000000" points="452.5,-235.2 452.5,-257.2 582.5,-257.2 582.5,-235.2 452.5,-235.2"/>
<text text-anchor="start" x="455.5" y="-242.9" font-family="Helvetica,sans-Serif" font-size="11.00" fill="#000000">text[2000000000,10]</text>
<polygon fill="none" stroke="#000000" points="357.5,-213.2 357.5,-235.2 452.5,-235.2 452.5,-213.2 357.5,-213.2"/>
<image xlink:href="../../images/primaryKeys.png" width="11px" height="12px" preserveAspectRatio="xMinYMin meet" x="362.5" y="-230.2"/>
<text text-anchor="start" x="377.5" y="-220.3" font-family="Helvetica,sans-Serif" font-size="11.00" fill="#000000">PT_ID</text>
<polygon fill="none" stroke="#000000" points="452.5,-213.2 452.5,-235.2 582.5,-235.2 582.5,-213.2 452.5,-213.2"/>
<text text-anchor="start" x="455.5" y="-220.9" font-family="Helvetica,sans-Serif" font-size="11.00" fill="#000000">integer[2000000000,10]</text>
<polygon fill="none" stroke="#000000" points="357.5,-191.2 357.5,-213.2 452.5,-213.2 452.5,-191.2 357.5,-191.2"/>
<text text-anchor="start" x="377.5" y="-198.3" font-family="Helvetica,sans-Serif" font-size="11.00" fill="#000000">FZW_Low</text>
<polygon fill="none" stroke="#000000" points="452.5,-191.2 452.5,-213.2 582.5,-213.2 582.5,-191.2 452.5,-191.2"/>
<text text-anchor="start" x="455.5" y="-198.9" font-family="Helvetica,sans-Serif" font-size="11.00" fill="#000000">float[2000000000,10]</text>
<polygon fill="none" stroke="#000000" points="357.5,-169.2 357.5,-191.2 452.5,-191.2 452.5,-169.2 357.5,-169.2"/>
<image xlink:href="../../images/primaryKeys.png" width="11px" height="12px" preserveAspectRatio="xMinYMin meet" x="362.5" y="-186.2"/>
<text text-anchor="start" x="377.5" y="-176.3" font-family="Helvetica,sans-Serif" font-size="11.00" fill="#000000">EQ_ID</text>
<polygon fill="none" stroke="#000000" points="452.5,-169.2 452.5,-191.2 582.5,-191.2 582.5,-169.2 452.5,-169.2"/>
<text text-anchor="start" x="455.5" y="-176.9" font-family="Helvetica,sans-Serif" font-size="11.00" fill="#000000">integer[2000000000,10]</text>
<polygon fill="none" stroke="#000000" points="357.5,-147.2 357.5,-169.2 452.5,-169.2 452.5,-147.2 357.5,-147.2"/>
<text text-anchor="start" x="377.5" y="-154.3" font-family="Helvetica,sans-Serif" font-size="11.00" fill="#000000">FZW_Central</text>
<polygon fill="none" stroke="#000000" points="452.5,-147.2 452.5,-169.2 582.5,-169.2 582.5,-147.2 452.5,-147.2"/>
<text text-anchor="start" x="455.5" y="-154.9" font-family="Helvetica,sans-Serif" font-size="11.00" fill="#000000">float[2000000000,10]</text>
<polygon fill="none" stroke="#000000" points="357.5,-125.2 357.5,-147.2 452.5,-147.2 452.5,-125.2 357.5,-125.2"/>
<text text-anchor="start" x="377.5" y="-132.3" font-family="Helvetica,sans-Serif" font-size="11.00" fill="#000000">Date_Added</text>
<polygon fill="none" stroke="#000000" points="452.5,-125.2 452.5,-147.2 582.5,-147.2 582.5,-125.2 452.5,-125.2"/>
<text text-anchor="start" x="455.1372" y="-132.9" font-family="Helvetica,sans-Serif" font-size="11.00" fill="#000000">datetime[2000000000,10]</text>
<polygon fill="none" stroke="#000000" points="357.5,-103.2 357.5,-125.2 452.5,-125.2 452.5,-103.2 357.5,-103.2"/>
<text text-anchor="start" x="377.5" y="-110.3" font-family="Helvetica,sans-Serif" font-size="11.00" fill="#000000">FZW_High</text>
<polygon fill="none" stroke="#000000" points="452.5,-103.2 452.5,-125.2 582.5,-125.2 582.5,-103.2 452.5,-103.2"/>
<text text-anchor="start" x="455.5" y="-110.9" font-family="Helvetica,sans-Serif" font-size="11.00" fill="#000000">float[2000000000,10]</text>
<polygon fill="none" stroke="#000000" points="357.5,-81.2 357.5,-103.2 452.5,-103.2 452.5,-81.2 357.5,-81.2"/>
<image xlink:href="../../images/primaryKeys.png" width="11px" height="12px" preserveAspectRatio="xMinYMin meet" x="362.5" y="-98.2"/>
<text text-anchor="start" x="377.5" y="-88.3" font-family="Helvetica,sans-Serif" font-size="11.00" fill="#000000">DS_ID</text>
<polygon fill="none" stroke="#000000" points="452.5,-81.2 452.5,-103.2 582.5,-103.2 582.5,-81.2 452.5,-81.2"/>
<text text-anchor="start" x="455.5" y="-88.9" font-family="Helvetica,sans-Serif" font-size="11.00" fill="#000000">integer[2000000000,10]</text>
<polygon fill="none" stroke="#000000" points="357.5,-59.2 357.5,-81.2 452.5,-81.2 452.5,-59.2 357.5,-59.2"/>
<text text-anchor="start" x="377.5" y="-66.3" font-family="Helvetica,sans-Serif" font-size="11.00" fill="#000000">FZW_flag</text>
<polygon fill="none" stroke="#000000" points="452.5,-59.2 452.5,-81.2 582.5,-81.2 582.5,-59.2 452.5,-59.2"/>
<text text-anchor="start" x="455.5" y="-66.9" font-family="Helvetica,sans-Serif" font-size="11.00" fill="#000000">text[2000000000,10]</text>
<polygon fill="#ffffff" stroke="transparent" points="357.5,-40.2 357.5,-59.2 396.5,-59.2 396.5,-40.2 357.5,-40.2"/>
<polygon fill="none" stroke="#000000" points="357.5,-40.2 357.5,-59.2 396.5,-59.2 396.5,-40.2 357.5,-40.2"/>
<text text-anchor="start" x="360.5" y="-46.3" font-family="Helvetica,sans-Serif" font-size="11.00" fill="#000000">&lt; 3</text>
<polygon fill="#ffffff" stroke="transparent" points="396.5,-40.2 396.5,-59.2 452.5,-59.2 452.5,-40.2 396.5,-40.2"/>
<polygon fill="none" stroke="#000000" points="396.5,-40.2 396.5,-59.2 452.5,-59.2 452.5,-40.2 396.5,-40.2"/>
<text text-anchor="start" x="417.1105" y="-46.3" font-family="Helvetica,sans-Serif" font-size="11.00" fill="#000000">0 rows</text>
<polygon fill="#ffffff" stroke="transparent" points="452.5,-40.2 452.5,-59.2 582.5,-59.2 582.5,-40.2 452.5,-40.2"/>
<polygon fill="none" stroke="#000000" points="452.5,-40.2 452.5,-59.2 582.5,-59.2 582.5,-40.2 452.5,-40.2"/>
<text text-anchor="start" x="563.9053" y="-46.3" font-family="Helvetica,sans-Serif" font-size="11.00" fill="#000000">0 &gt;</text>
<polygon fill="none" stroke="#000000" stroke-width="2" points="356,-39.2 356,-281.2 583,-281.2 583,-39.2 356,-39.2"/>
</a>
</g>
</g>
<!-- METADATA_Datasets -->
<g id="node2" class="node">
<title>METADATA_Datasets</title>
<g id="a_node2"><a xlink:href="../../tables/METADATA_Datasets.html" xlink:title="METADATA_Datasets" target="_top">
<polygon fill="#ffffff" stroke="transparent" points="8,-52.7 8,-135.7 160,-135.7 160,-52.7 8,-52.7"/>
<polygon fill="#f5f5f5" stroke="transparent" points="8,-112.2 8,-135.2 160,-135.2 160,-112.2 8,-112.2"/>
<polygon fill="none" stroke="#000000" points="8,-112.2 8,-135.2 160,-135.2 160,-112.2 8,-112.2"/>
<text text-anchor="start" x="12.7997" y="-121.3" font-family="Helvetica,sans-Serif" font-weight="bold" font-size="11.00" fill="#000000">METADATA_Datasets</text>
<text text-anchor="start" x="125.5219" y="-120.3" font-family="Helvetica,sans-Serif" font-size="11.00" fill="#000000">[table]</text>
<polygon fill="none" stroke="#000000" points="8,-90.2 8,-112.2 160,-112.2 160,-90.2 8,-90.2"/>
<image xlink:href="../../images/primaryKeys.png" width="11px" height="12px" preserveAspectRatio="xMinYMin meet" x="13" y="-107.2"/>
<text text-anchor="start" x="32" y="-97.3" font-family="Helvetica,sans-Serif" font-size="11.00" fill="#000000">DS_ID</text>
<polygon fill="none" stroke="#000000" points="8,-71.2 8,-90.2 160,-90.2 160,-71.2 8,-71.2"/>
<text text-anchor="start" x="11" y="-77.3" font-family="Helvetica,sans-Serif" font-size="11.00" fill="#000000">...</text>
<polygon fill="#ffffff" stroke="transparent" points="8,-52.2 8,-71.2 57,-71.2 57,-52.2 8,-52.2"/>
<polygon fill="none" stroke="#000000" points="8,-52.2 8,-71.2 57,-71.2 57,-52.2 8,-52.2"/>
<text text-anchor="start" x="11" y="-58.3" font-family="Helvetica,sans-Serif" font-size="11.00" fill="#000000"> &#160;</text>
<polygon fill="#ffffff" stroke="transparent" points="57,-52.2 57,-71.2 114,-71.2 114,-52.2 57,-52.2"/>
<polygon fill="none" stroke="#000000" points="57,-52.2 57,-71.2 114,-71.2 114,-52.2 57,-52.2"/>
<text text-anchor="start" x="78.6105" y="-58.3" font-family="Helvetica,sans-Serif" font-size="11.00" fill="#000000">0 rows</text>
<polygon fill="#ffffff" stroke="transparent" points="114,-52.2 114,-71.2 160,-71.2 160,-52.2 114,-52.2"/>
<polygon fill="none" stroke="#000000" points="114,-52.2 114,-71.2 160,-71.2 160,-52.2 114,-52.2"/>
<text text-anchor="start" x="135.2904" y="-58.3" font-family="Helvetica,sans-Serif" font-size="11.00" fill="#000000">43 &gt;</text>
</a>
</g>
</g>
<!-- PTOBS_FZW&#45;&gt;METADATA_Datasets -->
<g id="edge1" class="edge">
<title>PTOBS_FZW:w&#45;&gt;METADATA_Datasets:e</title>
<path fill="none" stroke="#000000" d="M342.7086,-92.2891C266.8539,-93.2238 242.7203,-101.2 160,-101.2"/>
<polygon fill="#000000" stroke="#000000" points="349.5001,-92.2482 357.5217,-95.7999 353.5001,-92.2241 357.5,-92.2 357.5,-92.2 357.5,-92.2 353.5001,-92.2241 357.4783,-88.6001 349.5001,-92.2482 349.5001,-92.2482"/>
<ellipse fill="none" stroke="#000000" cx="346.3002" cy="-92.2675" rx="3.2" ry="3.2"/>
</g>
<!-- METADATA_Events -->
<g id="node3" class="node">
<title>METADATA_Events</title>
<g id="a_node3"><a xlink:href="../../tables/METADATA_Events.html" xlink:title="METADATA_Events" target="_top">
<polygon fill="#ffffff" stroke="transparent" points="13,-160.7 13,-243.7 155,-243.7 155,-160.7 13,-160.7"/>
<polygon fill="#f5f5f5" stroke="transparent" points="13,-220.2 13,-243.2 155,-243.2 155,-220.2 13,-220.2"/>
<polygon fill="none" stroke="#000000" points="13,-220.2 13,-243.2 155,-243.2 155,-220.2 13,-220.2"/>
<text text-anchor="start" x="17.6881" y="-229.3" font-family="Helvetica,sans-Serif" font-weight="bold" font-size="11.00" fill="#000000">METADATA_Events</text>
<text text-anchor="start" x="120.5219" y="-228.3" font-family="Helvetica,sans-Serif" font-size="11.00" fill="#000000">[table]</text>
<polygon fill="none" stroke="#000000" points="13,-198.2 13,-220.2 155,-220.2 155,-198.2 13,-198.2"/>
<image xlink:href="../../images/primaryKeys.png" width="11px" height="12px" preserveAspectRatio="xMinYMin meet" x="18" y="-215.2"/>
<text text-anchor="start" x="37" y="-205.3" font-family="Helvetica,sans-Serif" font-size="11.00" fill="#000000">EQ_ID</text>
<polygon fill="none" stroke="#000000" points="13,-179.2 13,-198.2 155,-198.2 155,-179.2 13,-179.2"/>
<text text-anchor="start" x="16" y="-185.3" font-family="Helvetica,sans-Serif" font-size="11.00" fill="#000000">...</text>
<polygon fill="#ffffff" stroke="transparent" points="13,-160.2 13,-179.2 57,-179.2 57,-160.2 13,-160.2"/>
<polygon fill="none" stroke="#000000" points="13,-160.2 13,-179.2 57,-179.2 57,-160.2 13,-160.2"/>
<text text-anchor="start" x="16" y="-166.3" font-family="Helvetica,sans-Serif" font-size="11.00" fill="#000000"> &#160;</text>
<polygon fill="#ffffff" stroke="transparent" points="57,-160.2 57,-179.2 111,-179.2 111,-160.2 57,-160.2"/>
<polygon fill="none" stroke="#000000" points="57,-160.2 57,-179.2 111,-179.2 111,-160.2 57,-160.2"/>
<text text-anchor="start" x="75.6105" y="-166.3" font-family="Helvetica,sans-Serif" font-size="11.00" fill="#000000">0 rows</text>
<polygon fill="#ffffff" stroke="transparent" points="111,-160.2 111,-179.2 155,-179.2 155,-160.2 111,-160.2"/>
<polygon fill="none" stroke="#000000" points="111,-160.2 111,-179.2 155,-179.2 155,-160.2 111,-160.2"/>
<text text-anchor="start" x="130.2904" y="-166.3" font-family="Helvetica,sans-Serif" font-size="11.00" fill="#000000">40 &gt;</text>
</a>
</g>
</g>
<!-- PTOBS_FZW&#45;&gt;METADATA_Events -->
<g id="edge2" class="edge">
<title>PTOBS_FZW:w&#45;&gt;METADATA_Events:e</title>
<path fill="none" stroke="#000000" d="M343.6905,-175.7152C332.0923,-165.7824 334.3755,-142.105 314,-133.2 267.9808,-113.0877 244.7511,-108.54 201,-133.2 166.6043,-152.5869 194.4831,-209.2 155,-209.2"/>
<polygon fill="#000000" stroke="#000000" points="349.8912,-177.7289 356.388,-183.624 353.6956,-178.9645 357.5,-180.2 357.5,-180.2 357.5,-180.2 353.6956,-178.9645 358.612,-176.776 349.8912,-177.7289 349.8912,-177.7289"/>
<ellipse fill="none" stroke="#000000" cx="346.8477" cy="-176.7405" rx="3.2" ry="3.2"/>
</g>
<!-- PTOBS_ID -->
<g id="node4" class="node">
<title>PTOBS_ID</title>
<g id="a_node4"><a xlink:href="../../tables/PTOBS_ID.html" xlink:title="PTOBS_ID" target="_top">
<polygon fill="#ffffff" stroke="transparent" points="209,-143.7 209,-270.7 306,-270.7 306,-143.7 209,-143.7"/>
<polygon fill="#f5f5f5" stroke="transparent" points="209.5,-247.2 209.5,-270.2 306.5,-270.2 306.5,-247.2 209.5,-247.2"/>
<polygon fill="none" stroke="#000000" points="209.5,-247.2 209.5,-270.2 306.5,-270.2 306.5,-247.2 209.5,-247.2"/>
<text text-anchor="start" x="214.3014" y="-256.3" font-family="Helvetica,sans-Serif" font-weight="bold" font-size="11.00" fill="#000000">PTOBS_ID</text>
<text text-anchor="start" x="272.0219" y="-255.3" font-family="Helvetica,sans-Serif" font-size="11.00" fill="#000000">[table]</text>
<polygon fill="none" stroke="#000000" points="209.5,-225.2 209.5,-247.2 306.5,-247.2 306.5,-225.2 209.5,-225.2"/>
<image xlink:href="../../images/primaryKeys.png" width="11px" height="12px" preserveAspectRatio="xMinYMin meet" x="214.5" y="-242.2"/>
<text text-anchor="start" x="232.5" y="-232.3" font-family="Helvetica,sans-Serif" font-size="11.00" fill="#000000">PT_ID</text>
<polygon fill="none" stroke="#000000" points="209.5,-203.2 209.5,-225.2 306.5,-225.2 306.5,-203.2 209.5,-203.2"/>
<image xlink:href="../../images/primaryKeys.png" width="11px" height="12px" preserveAspectRatio="xMinYMin meet" x="214.5" y="-220.2"/>
<text text-anchor="start" x="232.5" y="-210.3" font-family="Helvetica,sans-Serif" font-size="11.00" fill="#000000">EQ_ID</text>
<polygon fill="none" stroke="#000000" points="209.5,-181.2 209.5,-203.2 306.5,-203.2 306.5,-181.2 209.5,-181.2"/>
<image xlink:href="../../images/primaryKeys.png" width="11px" height="12px" preserveAspectRatio="xMinYMin meet" x="214.5" y="-198.2"/>
<text text-anchor="start" x="232.5" y="-188.3" font-family="Helvetica,sans-Serif" font-size="11.00" fill="#000000">DS_ID</text>
<polygon fill="none" stroke="#000000" points="209.5,-162.2 209.5,-181.2 306.5,-181.2 306.5,-162.2 209.5,-162.2"/>
<text text-anchor="start" x="212.5" y="-168.3" font-family="Helvetica,sans-Serif" font-size="11.00" fill="#000000">...</text>
<polygon fill="#ffffff" stroke="transparent" points="209.5,-143.2 209.5,-162.2 235.5,-162.2 235.5,-143.2 209.5,-143.2"/>
<polygon fill="none" stroke="#000000" points="209.5,-143.2 209.5,-162.2 235.5,-162.2 235.5,-143.2 209.5,-143.2"/>
<text text-anchor="start" x="212.5" y="-149.3" font-family="Helvetica,sans-Serif" font-size="11.00" fill="#000000">&lt; 2</text>
<polygon fill="#ffffff" stroke="transparent" points="235.5,-143.2 235.5,-162.2 276.5,-162.2 276.5,-143.2 235.5,-143.2"/>
<polygon fill="none" stroke="#000000" points="235.5,-143.2 235.5,-162.2 276.5,-162.2 276.5,-143.2 235.5,-143.2"/>
<text text-anchor="start" x="241.1105" y="-149.3" font-family="Helvetica,sans-Serif" font-size="11.00" fill="#000000">0 rows</text>
<polygon fill="#ffffff" stroke="transparent" points="276.5,-143.2 276.5,-162.2 306.5,-162.2 306.5,-143.2 276.5,-143.2"/>
<polygon fill="none" stroke="#000000" points="276.5,-143.2 276.5,-162.2 306.5,-162.2 306.5,-143.2 276.5,-143.2"/>
<text text-anchor="start" x="281.7904" y="-149.3" font-family="Helvetica,sans-Serif" font-size="11.00" fill="#000000">27 &gt;</text>
</a>
</g>
</g>
<!-- PTOBS_FZW&#45;&gt;PTOBS_ID -->
<g id="edge3" class="edge">
<title>PTOBS_FZW:w&#45;&gt;PTOBS_ID:e</title>
<path fill="none" stroke="#000000" d="M342.9822,-226.075C330.8214,-229.45 323.9642,-236.2 306.5,-236.2"/>
<polygon fill="#000000" stroke="#000000" points="349.5659,-225.2247 357.9611,-227.7703 353.5329,-224.7124 357.5,-224.2 357.5,-224.2 357.5,-224.2 353.5329,-224.7124 357.0389,-220.6297 349.5659,-225.2247 349.5659,-225.2247"/>
<ellipse fill="none" stroke="#000000" cx="346.3923" cy="-225.6346" rx="3.2" ry="3.2"/>
</g>
<!-- PTOBS_ID&#45;&gt;METADATA_Datasets -->
<g id="edge4" class="edge">
<title>PTOBS_ID:w&#45;&gt;METADATA_Datasets:e</title>
<path fill="none" stroke="#000000" d="M195.4301,-187.8109C173.2067,-169.6333 199.926,-101.2 160,-101.2"/>
<polygon fill="#000000" stroke="#000000" points="201.863,-189.8176 208.4279,-195.6367 205.6815,-191.0088 209.5,-192.2 209.5,-192.2 209.5,-192.2 205.6815,-191.0088 210.5721,-188.7633 201.863,-189.8176 201.863,-189.8176"/>
<ellipse fill="none" stroke="#000000" cx="198.8081" cy="-188.8646" rx="3.2" ry="3.2"/>
</g>
<!-- PTOBS_ID&#45;&gt;METADATA_Events -->
<g id="edge5" class="edge">
<title>PTOBS_ID:w&#45;&gt;METADATA_Events:e</title>
<path fill="none" stroke="#000000" d="M194.9657,-213.5048C181.4182,-212.1309 173.623,-209.2 155,-209.2"/>
<polygon fill="#000000" stroke="#000000" points="201.5091,-213.8177 209.328,-217.7959 205.5046,-214.0089 209.5,-214.2 209.5,-214.2 209.5,-214.2 205.5046,-214.0089 209.672,-210.6041 201.5091,-213.8177 201.5091,-213.8177"/>
<ellipse fill="none" stroke="#000000" cx="198.3128" cy="-213.6648" rx="3.2" ry="3.2"/>
</g>
</g>
</svg>
